<svg xmlns="http://www.w3.org/2000/svg" width="100%" height="100%" viewBox="0 0 2160 1215" clip-rule="evenodd" fill-rule="evenodd" stroke-linejoin="round" stroke-miterlimit="2"><style>
@keyframes jjyy29ean2fgqpl9qsow2rin_f { 0% { fill: #f1e8d4; } 49.741% { fill: #dd9e9e; } 49.841% { fill: #e8b204; } 99.829% { fill: #dd9e9e; } 99.997% { fill: #f1e8d4; } 100% { fill: #f1e8d4; } }
@keyframes bp41uu0vqvcsvoa802kn5666_f { 0% { fill: #f9642d; } 49.924% { fill: #5958ba; } 99.997% { fill: #f9642d; } 100% { fill: #f9642d; } }
@keyframes wql3ifkimgbg4puj8c027svr_f { 0% { fill: #ffbc08; } 50.03% { fill: #e5d8b0; } 99.962% { fill: #ffbc08; } 100% { fill: #ffbc08; } }
@keyframes gxyu62qhgxh9z4meb7qqq7dj_f { 0% { fill: #bb3e45; } 50.117% { fill: #9f1921; } 100% { fill: #bb3e45; } }
@keyframes qy5t7qi250iaxc1ayko319uj_f { 0% { fill: #bb3e45; } 49.88% { fill: rgba(142,11,17,0.98); } 99.962% { fill: #bb3e45; } 100% { fill: #bb3e45; } }
@keyframes eoiplrc9outli4jgdqzhf6lf_f { 0% { fill: #d62431; } 7.384% { fill: #d62431; } 100% { fill: #d62431; } }
@keyframes pgojjtoewn1fql9y4es0d5md_f { 0% { fill: #d62431; } 7.384% { fill: #d62431; } 100% { fill: #d62431; } }
@keyframes h0yfk3oz1smdw2gv1lwwozxt_f { 0% { fill: #d62431; } 7.384% { fill: #d62431; } 100% { fill: #d62431; } }
@keyframes jsu448tm9x0j0m6s9ou36on5_f { 0% { fill: #d62431; } 7.384% { fill: #d62431; } 100% { fill: #d62431; } }
@keyframes pywcw9hlu7dxqcceagfled7t_f { 0% { fill: #d62431; } 7.384% { fill: #d62431; } 100% { fill: #d62431; } }
@keyframes whaq96hda176wkrd0rwl1jzr_f { 0% { fill: #d62431; } 7.384% { fill: #d62431; } 100% { fill: #d62431; } }
@keyframes kpugtac61iff7e0fw19u54xg_f { 0% { fill: #3b7d1b; } 49.966% { fill: #56d019; } 100% { fill: #3b7d1b; } }
@keyframes r9852gtjor9rxj3irol6o8tj_f { 0% { fill: #5a6edc; animation-timing-function: cubic-bezier(0,0,1,1); } 50.025% { fill: #1b30a5; } 99.997% { fill: #5a6edc; } 100% { fill: #5a6edc; } }
@keyframes v82zefguba403nmr0frcj0h9_f { 0% { fill: #000; animation-timing-function: cubic-bezier(0,0,1,1); } 50.078% { fill: #333d3d; } 99.997% { fill: #000; } 100% { fill: #000; } }
@keyframes rder8id44wvszcyiwcf5r7zf_f { 0% { fill: #009ef1; } 49.924% { fill: rgba(229,88,10,0.57); animation-timing-function: cubic-bezier(0,0,1,1); } 99.997% { fill: #009ef1; } 100% { fill: #009ef1; } }
@keyframes b9ckezcs39tphtnvsc1qd0kb_f { 0% { fill: #009ef1; } 49.906% { fill: rgba(229,88,10,0.58); animation-timing-function: cubic-bezier(0,0,1,1); } 99.962% { fill: #009ef1; } 100% { fill: #009ef1; } }
@keyframes ze5t4ju6t46gtpagj5k2dn84_f { 0% { fill: #009ef1; } 49.924% { fill: rgba(229,88,10,0.57); animation-timing-function: cubic-bezier(0,0,1,1); } 99.997% { fill: #009ef1; } 100% { fill: #009ef1; } }
@keyframes n96ow4hjo7zl972lzrey6x28_f { 0% { fill: #009ef1; } 50.341% { fill: rgba(229,88,10,0.65); animation-timing-function: cubic-bezier(0,0,1,1); } 99.997% { fill: #009ef1; } 100% { fill: #009ef1; } }
@keyframes t546y8395cfnezbnabmrk33x_f { 0% { fill: #38ac54; animation-timing-function: cubic-bezier(.4,0,1,.9); } 50.217% { fill: #2d6452; animation-timing-function: cubic-bezier(.7,.7,1,1); } 99.933% { fill: #38ac54; } 100% { fill: #38ac54; } }
@keyframes wm7xojxzumhat5rqqbzy1h0q_f { 0% { fill: #e8afd8; } 50.095% { fill: #88b275; } 99.962% { fill: #e8afd8; } 100% { fill: #e8afd8; } }
@keyframes v4717mqbjbedqjtm6bt7g6en_f { 0% { fill: #4a4745; animation-timing-function: cubic-bezier(.4,0,1,1); } 49.84% { fill: rgba(10,20,52,0.92); } 99.997% { fill: #4a4745; } 100% { fill: #4a4745; } }
</style><path d="M117.3 457.2c-2.9 10.7-5.5 23.5-7.7 38.3c0 0 0 0 0 0c-2.5 16.6-4.6 30.4-6.2 41.5c0 0 0 0 0 0c-0.8 5.6-1.9 11.9-3.3 18.8c-3.9 9.7-7.1 17.4-9.3 23.2c0 0 0 0 0 0c-3.8 9.4-6.2 16.4-7.6 21.1c-1.1 4.1-3.4 11.7-6.9 22.9c-3.7 12-7.8 27.9-12.3 47.6c-4.3 19.3-7.8 35.2-10.3 47.9c-2.3 11.9-4.4 21.5-6.3 28.8c-1.8 7.3-4.2 15.9-7.2 25.8c-3.3 11.2-6.3 25.8-8.8 44c0 0 0 0 0 0c-2.4 17.4-3.9 30.3-4.6 38.7c0 0 0 0 0 0c-0.6 7.8-1.1 13.9-1.6 18.3c-0.6 5.2-0.9 11.8-1 20.1c-0.1 7.6 0 15.9 .4 24.7c0 0 0 0 0 0c.3 8.8 .9 18.1 1.9 27.9c0 0 0 0 0 0c.9 9.2 1.6 16.1 2 20.6c.6 6.8 1.5 11.7 2.4 14.6c.1 .5 .3 .9 .3 1.2c.9 7.6 5.1 17.5 19.3 23.2c0 0 0 0 0 0c4.8 1.9 9.2 3 13.2 3.6c.6 3.8 1.4 7.1 2.2 9.9c0 0 0 0 0 0c2 7 5.8 13.3 11.9 18.8c0 0 0 0 0 0c5.2 4.6 11.6 8.1 19.3 10.1c3.8 .9 7.1 1.7 10 2.5c3.2 .8 8.6 1.9 16.3 3.2c7.6 1.4 15.7 2.3 24 2.8c.1 0 .1 0 .1 0c7.6 .5 22.7 .8 45.2 1c0 0 0 0 0 0c22 .2 41.9 .1 59.6-0.2c17.9-0.3 32.8-0.8 44.6-1.5c12-0.7 23.2-1.6 33.4-2.8l21.6-2.4l2.6 .5c11.8 2.4 23.3 4.8 34.5 7.2c0 0 0 0 0 0c11.8 2.6 20.5 4.3 26 5.4c0 0 0 0 0 0c5.5 1 10 1.7 13.5 2.3c3.4 .6 10.3 1.8 20.7 3.6c10 1.7 21.6 4.3 34.8 7.7c14.4 3.8 26.6 6.7 36.5 8.7c0 0 0 0 0 0c10.1 2.1 19.2 3.8 27.1 4.9c0 0 0 0 0 0c7.8 1.1 17.3 2.2 28.5 3.3c10.8 1 22.1 2 33.7 3c12.3 1.1 21.5 1.6 27.6 1.8c5.6 .1 13.8 .4 24.7 .8c10.2 .5 19.2 1.2 27 2.3c8.4 1.2 15.3 2.2 20.6 3c5.1 .7 10.8 1.7 17.3 2.9c6.7 1.3 12.5 2.5 17.5 3.6c5 1.1 9.4 2.1 13.1 3c4.8 1.1 10.2 2 16.3 2.5c7.3 .6 15 0 23.3-2.1c3.5-0.9 8.3-0.7 14.5-0.2c0 0 0 0 0 0c8.5 .8 15.4 1.6 20.6 2.7c5.6 1.1 10.6 2.2 15 3.3c0 0 0 0 0 0c6.3 1.5 16.2 2.2 29.8 1c11-0.9 19.8-2 26.6-3.1c4.5-0.9 11.1-0.4 19.7 .7c12 1.5 23.9 2.7 35.7 3.6c12 .9 21.1 1.4 27.1 1.5c5.5 .1 9.8 .2 12.8 .4c2.7 .1 11.3 1.5 25.6 4c0 0 0 0 0 0c15.8 2.8 27.9 4.9 36.3 6.6c0 0 0 0 0 0c8.6 1.7 18.4 3.5 29.3 5.6c11.8 2.2 21.8 3.6 30.2 4.4c8.1 .8 17.8 1.4 29 1.9c0 0 0 0 0 0c10 .4 18 1 24 1.7c0 0 0 0 0 0c6.6 .9 12.8 1.6 18.7 2.3c0 0 0 0 0 0c6.4 .7 13.6 1.1 21.6 1.1c0 0 0 0 0 0c6.5 0 11.1 .1 14 .2c2.7 .2 4.8 .3 6.2 .4c0 0 0 0 0 0c1.7 .2 3.2 .3 4.6 .4l1.8 .1c.7 .1 1.5 .2 2.3 .2c.1 0 .1 0 .1 0c3.7 .2 6.4-0.3 8.1-0.9h.1c1.2-0.4 2.6-0.8 4-1.5l.3-0.1c-1.1 .5-2.2 .9-3.5 1.3c.8-0.3 1.3-0.6 1.5-0.7c7.3-3.1 10.5-8 12.1-11.9c-1.1 3.2-3 6.2-6 8.7c-1.1 .9-2.3 1.6-3.4 2.2l-0.2 .2c1.3-0.7 2.6-1.5 3.6-2.4c1.7-1.4 3.5-3.1 5.1-5.4c1.2-1.8 3.7-6.4 5.9-14.4c0 0 0 0 0 0c1.7-6 2.9-11.2 3.7-15.5c1-5.1 1.6-11 1.6-18c0 0 0 0 0 0c0-5.1 .4-15 1-29.7c.8-15.5 1.1-27.3 1.1-35.4c0 0 0 0 0 0c0-7.4 0-13 .1-16.8c0 0 0 0 0 0c.2-4.2 .2-8.2 .1-11.9c0-3.3 0-9.7-0.1-19.2c0-8.6 .5-17 1.6-25.1c0 0 0 0 0 0c1-8.5 2.5-17.1 4.4-25.8c2.2-10.5 3.6-18.8 4.2-24.9c.6-5.5 1.3-13.8 2.2-24.7c.8-9.9 3-22.2 6.5-37c3.8-16.1 6.9-29 9.3-38.8c0 0 0 0 0 0c2.3-9.7 4.8-19.5 7.4-29.3c2.9-10.6 5.3-20.9 7.2-30.7c1.8-9.4 3.7-19.3 5.7-29.8c2-10.6 3.8-20.8 5.4-30.4c1.7-10.3 2.8-20 3.3-29.3c0 0 0 0 0 0c.5-7.9 1.4-16.4 2.7-25.4c1.5-10 2.5-17.9 3.3-23.7c.7-6.4 1.2-12.1 1.4-17c.2-4.5 .3-8.7 .5-12.5c.1-4.3 0-8.8-0.2-13.4c-0.2-2.9 .5-7.6 1.5-13.9c1.3-8 3.4-17.1 6.2-27.4c3.2-11.5 5.5-20.1 6.9-26c0 0 0 0 0 0c1.6-6.5 2.7-11.4 3.3-14.8c0 0 0 0 0 0c.6-3.2 1.6-9.7 3-19.7c1.4-9.6 2.5-17 3.3-22.4c.7-4.8 1.4-8.9 2.1-12.3c.9-4.3 2.1-11.8 3.3-22.7c1.3-10.5 2.1-19.9 2.3-28c.3-8.9 0-16.6-0.8-23.2c-0.7-5.9-1.9-12.3-3.5-19.3c3.4-7.9 6.7-15.6 10.1-22.8c1.5-1.1 2.7-2.9 3.5-5.7v-0.1l1.3-4.6l1.3-2.8c1.9-4 3.7-7.9 5.6-11.9l4.8-10c.5 .3 1.1 .5 1.8 .8c0 0 0 0 0 0c5.6 2.3 9.4 3 11 3c7.3 .1 13.3-5.7 13.4-13c0-6.7-4.9-12.3-11.3-13.3c-0.5-0.1-1.8-0.6-2.9-1.1l-0.5-0.2c2.3-4.9 4.7-10 7-15.2c3.2-4.9 5.9-9.5 8.2-13.8c0 0 0 0 0 0c2.7-4.9 4.7-9 6-12.1c3.1-1.2 6.2-2.1 9.2-2.8c8.4-2 13.2-3 14.2-3.2c4.7-0.8 8.5-4 10.1-8.2l4 .5c1.7 .3 3.4 .2 5-0.2c6.3-1.5 8.6-5.4 9.7-7.6c1.7-3.5 1.9-7.3 .1-11.3c-0.8-1.7-2.3-4.3-5.9-6.4c-1.6-1-5.6-2.5-12.2-4.1c0 0 0 0 0 0c-8.3-1.9-16-3.4-23.1-4.5c0 0 0 0 0 0c-6.7-1-15.1-2.5-25.1-4.3c0 0 0 0 0 0c-10.4-1.9-21.3-3.7-32.9-5.4l-6.3-0.9c-5.8-2.1-10.8-4-14.7-5.6c-9.1-3.8-18-6.2-26.6-7.4c-7.8-1.2-16.7-2.1-26.6-2.9l-1.3-0.1c-0.7-0.3-1.3-0.7-2-1c-5.8-3.1-11.7-5.1-17.9-6.3c-6.4-1.1-11.1-1.4-14.1-1.2c-2.1 .1-5.8 .3-11.1 .4c-5.4 .1-11 .2-16.7 .3c-1.4 0-3.2-0.1-5.4-0.3c-8.9-2.1-15.3-3.4-19.3-4.1c-4.6-0.9-11.2-2.2-19.9-4c0 0 0 0 0 0c-9.4-2-17-3.4-22.8-4.5c-6.2-1.1-13.2-2-21-2.8c-7.1-0.7-17.4-1.6-30.9-2.7c-11.6-0.9-19.2-1.7-22.6-2.3c-3.9-0.8-8.7-1.8-14.2-2.9c0 0 0 0 0 0c-4.4-0.9-7.5-1.5-9.2-2c0 0 0 0 0 0c-2.9-0.9-6.7-1.8-11.3-2.6c-3-0.6-7.8-1.9-14.4-3.9c-7.3-2.2-15.1-4.8-23.5-8c-9.5-3.6-19.6-7.1-30.2-10.6c-9.1-2.9-15.8-5.3-20.2-7.2c0 0 0 0 0 0c-7.2-3.2-14.9-5.5-23-6.7c-6-0.9-13.7-1.7-23.2-2.6c-7.7-0.7-13.4-1.3-17.2-1.9c-4.4-0.8-7.9-1.4-10.5-1.8c-2.9-0.4-5.9-0.8-9-1.2c-3.3-0.3-8.6-0.6-15.7-0.5c-4.1 0-8.1-0.3-11.9-0.9c0 0 0 0 0 0c-5.1-0.8-11.2-1.9-18-3.3c-7.3-1.4-13.2-2.5-17.8-3.3c0 0 0 0 0 0c-4.6-0.9-10.6-1.9-17.8-3c0 0 0 0 0 0c-7.9-1.2-14.8-2-20.8-2.4c-4.2-0.3-8.4-0.8-12.7-1.6c-3.5-0.6-6.5-1.3-8.8-2.1c0 0 0 0 0 0c-5.1-1.9-11.8-3.5-20.1-4.6c0 0 0 0 0 0c-5.9-0.8-12.2-1.7-19-2.7c-4.9-0.7-9.1-1.6-12.4-2.7c0 0 0 0 0 0c-6.6-2.3-12.3-3.7-17.1-4.5c-3.6-0.6-7.3-1.2-11.4-1.8c0 0 0 0 0 0c-2.3-0.3-4.2-0.7-5.7-1.2c0 0 0 0 0 0c-4.1-1.3-7.3-2-9.4-2.4c-2.4-0.4-5.6-0.7-9.6-0.8c-2.5-0.1-6.2-0.1-11.1 0c-3.2 0-6.9-0.3-11.2-1c0 0 0 0 0 0c-6.7-1-12.1-1.7-16.3-2c-5.1-0.5-9.1-0.6-12.1-0.6c-0.9 .1-1.8 0-2.6 0c-1.7-0.2-4.6-0.6-8.6-1.2c-5.5-0.7-9.7-1.2-12.6-1.4c-1.7-0.1-3.8-0.4-6.2-0.8c-3.4-0.5-6.8-1.1-10.2-1.7c-7-1.3-11.9-1.5-14.9-1.3c-2.1 .2-5.6 .6-10.5 1.4c-0.1 0-0.3 .2-0.4 .2c0 0 0 0 0 0c-1-0.2-1.8-0.4-2.7-0.8c-3.8-1.5-9.6-3.1-17.5-4.4c-3.1-0.5-5.5-1-7.3-1.7c0 0 0 0 0 0c-0.3-0.1-0.6-0.1-0.8-0.3c-4.8-3.7-10.1-6.5-16-8.5c-2.5-0.9-5.3-1.9-8.5-3.2c-4.3-1.7-9.5-3.4-15.4-5.2c0 0 0 0 0 0c-7.1-2.1-14.1-3.3-21.1-3.8h-0.1c-3.5-1.1-7.2-2.2-11.2-3.4c-9.4-2.8-17.8-4.7-25.1-5.8c-6.2-0.9-11.1-1.7-14.8-2.4c-4-0.7-8.1-1.5-12.5-2.2c-5.1-0.9-11.4-1.5-18.9-1.8c-6.7-0.3-14.6-0.5-23.9-0.4c-6 0-10.5-0.1-13.3-0.9c-5.6-1.6-11.2-2.5-16.6-2.8c-3-0.2-6.2-0.7-9.8-1.4c-1.5-0.3-3.6-1-4-1.1c-12.2-7.4-21.3-4.3-23.1-3.6c.9-0.4 2.6-1.1 5.1-1.2c-2.5 .1-6.6 .7-12 2.9c-2.5 1-5.5 2.3-9.2 4c-7.4 1.6-13.8 7-16.4 14.7c-2.9 9.1-4.7 14.8-6 16.9c-5.9 9.3-6.1 16.8-5.4 21c.3 2.2 1 4.8 2.2 7.9c-0.8 3-1.6 5.9-2.5 8.9c0 0 0 0 0 0c-3.1 11-7 23.6-11.5 37.8l-5 16.1c-4.9 3.7-8 9.3-8.5 15.4l-0.1 .3c-1.7 2.8-3.6 6-5.7 9.7c0 0 0 0 0 0c-6.4 11.6-12 23.3-16.9 34.9c-4.6 11.1-11.2 28.6-19.7 52.4c-8.4 23.4-15.1 42.7-20.2 57.9c-5.1 15.3-8.8 26.4-11 33.3c0 0 0 0 0 0c-2.1 6.8-4.1 13.1-6 19c0 0 0 0 0 0c-1.8 5.7-3.8 12-6.1 19c0 0 0 0 0 0c-2.3 7.1-6.4 21-12.3 41.7c-5.8 20.4-11.5 40.4-17.1 60.1c-1.9 6.7-0.5 14 3.8 19.5c2 2.7 4.7 4.8 7.7 6.3Zm1120.3 696.8h.3l-0.8-0.1l.5 .1Z" fill="#f1e8d4" transform="translate(993,581.8) scale(1.36,1.36) translate(-753.7,-556.1)" style="animation: 300s linear infinite both jjyy29ean2fgqpl9qsow2rin_f;"/><path d="M375.1 110c-4 .1-2.8-12.3-38.5 11.6c-4.2 2.7-8.8 6.5-13.9 11.5c-4.9 4.9-9.3 10.2-13.1 16.1c0 0 0 0 0 0c-2.3 3.6-3.9 6.2-4.9 7.9c0 0 0 0 0 0c-3.1 5.1-5 9.7-6.2 13.7c0 0 0 0 0 0c-2.3 7.8-2.5 14.4-2 19.6c1 9.3 4.3 16.9 8.6 23c0 0 0 0 .1 0c1.4 2.1 3.3 4.4 5.9 6.9c.8 .9 1.6 1.8 2.6 2.6c1.1 1.1 8.2 6.8 23.1 13.9c8.5 4 15.6 7.2 21.4 9.7c0 0 0 0 0 0c7 2.9 15.1 5.7 24.4 8.2c0 0 0 0 0 0c7.1 1.9 12.7 3.5 16.9 4.6c0 0 0 0 0 0c4 1.1 8.3 2.3 13 3.6c0 0 0 0 0 0c5.9 1.6 13.3 3.4 22.3 5.2c7.1 1.4 13.4 2.7 18.9 4c0 0 0 0 0 0c3.8 .8 7.3 1.8 10.6 3c1.1 .4 2.2 1 3.3 1.7c1.1 .8 2.1 2.1 3.2 3.5c5.3 6.7 9.9 12 13.6 16c4.7 4.8 8.2 8.1 10.5 10c2.9 2.4 6.7 5.1 11.5 8.1c1.7 1 3.9 2.5 6.6 4.4c-2-0.4-3.8-0.7-5.2-1.1c-3.1-0.9-9-3.3-17.8-7c-12-4.9-21.2-8.6-27.7-11c-7.3-2.8-13.2-4.8-17.5-6.1c-2.6-0.8-6.8-2.5-12.6-4.9c0 0 0 0 0 0c-5.8-2.4-10.7-4.7-14.8-7c0 0 0 0 0 0c-7.3-4.2-15.1-7.8-23.1-10.8c-5.4-2.1-11-4.3-16.6-6.6c-6.2-2.5-10.9-4.4-14.1-5.7c-5.1-2-11.6-4-19.7-5.7c-6.7-1.5-12.9-2.5-18.7-3.2c0 0 0 0 0 0c-6.7-0.7-15.2-0.9-25.6-0.2c-9.2 .7-17.4 1.8-24.5 3.3c-7.1 1.6-13.3 3.2-18.6 5c-6.6 2.2-14 5.5-21.8 10.2c-5.9 3.4-10.3 6.2-13.4 8.4c-3.5 2.4-7.5 5.5-11.9 9.3c0 0 0 0 0 0c-4.2 3.5-8.7 7.8-13.5 13c-5.7 6-10.4 12.1-14.3 18.1c0 0 0 0 0 0c-4.3 6.8-7 12.1-8.5 15.7c0 0 0 0 0 0c-2.2 5.4-3.3 9.4-3.9 11.7c-2.4 10.8-0.8 19.5 1.5 26c0 .1 0 .1 0 .1c.6 1.8 1.4 3.8 2.6 6l1.1 4.4c0 0 0 0 0 0c2.1 8.1 5 14.4 8.1 19.2c0 0 0 0 0 0c3.1 5 5.5 7.8 6.6 9c0 0 0 0 0 0c1 1.1 2.4 2.6 4.3 4.4c1.9 1.9 3.9 3.5 5.7 4.8c0 .1 0 .1 0 .1c.6 .4 1.4 1.1 2.6 2c1.5 1.1 3.6 2.7 6.6 5c1.9 1.4 4.5 3.1 7.8 5c-3.1 .1-6.6 .3-10.5 .8c-8.1 1-18.8 4.1-31.1 11.2c-8.3 4.8-14.6 9.3-19.1 13.2c-4.6 3.9-8.3 7.5-11.2 10.8c0 0 0 0 0 0c-3.5 3.8-7.7 9.5-12.2 17.6c-2.7 4.7-6 11-10 18.9c0 0 0 0 0 0c-2.9 5.6-5.2 9.9-7 12.8c0 0 0 0 0 0c-5.8 9.3-8 15.6-8.7 17.9c0 0 0 0 0 0c-0.7 2.3-1.5 6.1-2.2 11.4c-0.2 1.6-0.3 2.8-0.5 3.6c-1.9 12.9 1.1 22.4 4.4 28.8c0 0 0 0 0 .1c2.4 4.7 5.1 8.5 8 11.5c5.1 6.5 10.8 10.4 16.4 12.7c1.5 .9 3.1 1.8 4.9 2.7c7.6 3.9 16.6 7 27.2 9.2c6.4 1.3 11.8 2.3 16 3c0 0 0 0 0 0c4.1 .7 17.9 1 41.4-0.4l2 .3c.9 .2 26.9-1.2 47.1-10.8c14.3-6.7 23.4-11.2 27.5-13.4c6.2-3.5 11.3-8.1 15.2-13.5c6.2 4.6 13.9 9.5 22.9 14.8c0 0 0 0 0 0c12.7 7.4 22.2 11.5 28.1 13.4c4.7 1.4 10.6 3 18 4.8c7.1 1.7 15.5 3.5 25.3 5.1c0 0 0 0 0 0c15.8 2.7 28.5 2.8 30.7 2.5c2.9-0.4 5.9-1.1 9-2.1c0 0 0 0 0 0c2.1-0.6 4.2-1.4 6.3-2.4c8.2-3.6 21.2-11.3 26.6-31.3c0 0 0 0 0 0c.6-2.1 1.2-4.5 1.7-7.3c.8-4.4 1.4-11.7 0-21.8c-0.7-4.8-1.9-10.6-3.7-17.4c0 0 0 0 0 0c-1.7-6.3-4-13.5-7.2-21.5c0 0 0 0 0 0c-2.8-7.2-5.1-12.7-6.8-16.5c-1.4-2.9-3.1-6.9-5.2-11.9c-2.7-6.4-7-15.2-13.1-26.3c-8.2-15.1-16-25.1-22-30.7c-3.9-3.7-7.8-7.3-11.6-10.7c-3.4-3.1-7.9-7.2-13.3-12.4c-8.1-7.6-13.3-11.9-15.2-13.3c-1.5-1-3.2-2.2-5-3.5c-3-2-5.5-3.6-7.6-4.8c-1.9-1.1-4.8-2.6-8.8-4.5c-3.3-1.6-8.5-3.7-15.7-6.2c-7.3-2.7-15.4-4.9-24.1-6.6c-6-1.1-14.6-3-25.9-5.7c0 0 0 0 0 0c-10.5-2.4-19.6-4.8-27.5-7.4l-0.6-0.3c.5-0.4 1-0.9 1.4-1.3c1.7-1.4 3.2-2.6 4.5-3.6c0 0 0 0 0 0c1.8-1.2 4.4-2.8 7.8-4.8c1.4-0.8 2.5-1.5 3.6-1.9c2.5-0.8 5.4-1.5 8.7-2.2c3.3-0.7 7.1-1.2 11.4-1.5c3.2-0.2 5.9-0.4 8-0.1c2.9 .3 6.1 .9 9.4 1.6c2 .4 3.6 .7 4.8 1.2c0 0 0 0 0 0c3.1 1.2 7.5 3 13.3 5.4c0 0 0 0 0 0c6.4 2.6 12.6 5 18.8 7.4c3.6 1.4 7.1 3 10.4 4.9c6.7 3.7 14.9 7.7 24.7 11.8c9.9 4.1 17.1 6.7 21.6 8.1c0 0 0 0 0 0c2.8 .8 6.7 2.2 11.6 4c0 0 0 0 0 .1c5.8 2.1 14 5.4 24.7 9.9c13.9 5.7 23.2 9.1 28 10.5c5.4 1.5 12.9 3.1 22.4 4.5c0 0 .1 0 .1 0c8.3 1.2 15.9 2 22.9 2.5c5.5 .3 10.3 .6 14.4 1c0 0 0 0 0 0c9.4 .7 16.9 .3 22.4-0.7c0 0 0 0 0 0c8.3-1.4 15.1-4 20.7-6.9c8.9-4.8 15.7-11.2 20.8-19.1c4.3-6.6 7.2-14.1 8.5-22.5c0 0 0 0 0 0c.2-1.5 .5-3.1 .7-4.6c.5-2.7 1-6.1 1.4-10.3c0 0 0 0 0 0c.5-5.7 .3-13.6-1.5-23.8c0 0 0 0 0 0c-1.3-7.5-3.5-15.5-6.7-24c-3.3-8.6-6.2-14.7-8.2-18.3c-2-3.5-5.1-8.3-9.4-14.2c-4.4-6-9.6-11.4-15.5-16.3c2.9 1 5.8 2.1 8.8 3.5c0 0 0 0 0 0c5.3 2.4 9.7 4.7 13.3 6.9c5.1 3.2 12.1 7.6 20.9 13.3l19.2 12.1l1.4 1.4c.6 .5 1.2 1 1.8 1.5l1.2 1c1.2 1 2.3 2 3.6 3c0 0 0 0 0 0c1.7 1.4 3.8 2.9 6.2 4.5c3 2 7.8 4.7 14.8 7.5c2.7 1.1 6.7 2.7 11.8 4.8c17.3 7 29 5.8 32.8 5.2c25.8-4.1 35.4-19.9 38.6-36.8c4.5-24.4-12.2-47.9-37.3-52.3l-8.6-3.3c-1.7-1.7-3.5-3-5.2-4.2c-2.8-2.4-6-4.8-9.8-7.2c-4.4-2.8-11-7-19.9-12.6c-9-5.7-16-10.2-21.2-13.5c-6.6-4.1-14.8-8.5-24.5-12.9c-10.1-4.6-20-8.1-29.6-10.6c-7.5-2-14.9-3.9-22.1-5.6c-3.5-0.8-6.8-2.2-10.3-3.9c-8.1-4.2-14.7-7.4-20.1-9.8c-6.2-2.7-10.7-4.5-13.1-5.3c0 0 0 0 0 0c-2.1-0.7-9.1-2.7-20.8-5.9c0 0 0 0 0 0c-10.9-2.8-23.6-5.7-38.2-8.5c-14.1-2.7-25.5-4.7-34.1-6c-8-1.2-14.4-2.1-19.2-2.9c-3.9-0.6-7.3-1.2-10.2-1.8c-5.9-1.3-11.7-2.1-17.3-2.5c-5.5-0.4-9.6-0.6-12.5-0.5c0 0 0 0 0 0Zm-138.9 505.2c-2.6 .4-5 .5-7.2 .4l7.2-0.4Zm-122.9-30.1c.5 .8 1 1.5 1.5 2.2l1.2 1.5l.9 1c0 0 0 0 0 0c3.2 3.3 6.4 5.9 9.5 7.9l2.1 1.4c.9 .6 11.4 7.2-2.1-1.4c-8.5-6.1-12.6-11.7-14.1-14.2l1 1.6Zm190.5-129l5.8 3.6c9.7 6.3 17.2 12.4 22.7 17.9c0 0 0 0 0 0c2.5 2.5 5.7 5.1 9.3 7.9c5.5 4.3 8.1-0.3 8.1-0.3c-3.8-3.4-8.6-7.9-14.6-13.5c0 0 0 0 0 0c-2.9-2.7-5.9-5.4-7-6.4l-2.7-1.9c0 0 0 0 0 0c-0.2-0.2-0.4-0.4-0.6-0.5c0 0 0 0 0 0c-0.4-0.2-1.1-0.5-2-0.9c0 0 0 0 0 0c-1.6-0.8-4.2-1.7-7.6-2.9c0 0 0 0 0 0c-3.2-1.2-6.7-2.1-10.5-2.8c0 0 0 0 0 0l-0.9-0.2Zm339.1-163.9h.1l-0.2-0.1l.1 .1Zm50.2-75.6c1.4 .7 3.1 1.8 5.2 3.3l4.3 3.5c-1.5-1.4-3-2.5-4.3-3.5l-0.3-0.4c-1.7-1.2-3.3-2.1-4.9-2.9Zm9.5 6.8l-1.7-0.7c0 0 0 0 0 0c1.4 .6 1.7 .7 1.7 .7Z" fill="#f9642d" transform="translate(493.8,268.5) scale(1.36,1.36) translate(-403.3,-388.9)" style="animation: 300s linear infinite both bp41uu0vqvcsvoa802kn5666_f;"/><path d="M526.8 115.6l-1.3 .5c-7 2.6-12.3 4.8-16 6.4c-3.8 1.7-9.9 4.7-18.1 9.2c0 0 0 0 0 0c-8 4.3-14.6 8.1-20 11.5c-7.1 4.5-15 10.9-23.4 19.6c-6.9 7.1-12.7 13.7-17.5 19.7c-6.1 8-11.1 16.4-14.9 25.3c0 0 0 0 0 0c-3.2 7.5-5.7 14.6-7.6 21.4c-1.9 6.9-3.2 13.6-3.9 20.1c-2.4 7.3-3.9 14.3-4.8 20.9c-1.1 8.8-0.9 19.2 1.3 31.1c0 0 0 0 0 0l.4 2c-1.2 5.4-2.1 10.9-2.5 16.4c-0.7 9.1-0.6 16.9 0 23.2c.5 4.6 .9 8.3 1.2 11.2c.4 4 1.3 9.3 2.8 16.1c1.4 6.1 2.7 11.2 4 15.5c2.6 9 7.5 17.9 15.2 26.3c5.5 5.9 11.8 11.1 19 15.6c4.5 2.9 8.1 5 10.6 6.5c2.2 1.2 7.2 4.2 15.1 8.8c0 0 0 0 0 0c9.2 5.4 17.4 9.8 24.7 13.2c7.3 3.6 13.5 6.3 18.4 8.2c5.4 2.1 13.8 4.6 25.2 7.2c8.3 1.9 16.8 3.7 25.6 5.3c6.2 4.6 12.1 7.3 17.3 9c2.9 .9 7.1 2 12.6 3.3c6.3 1.5 12.6 2.4 18.8 2.8c8.1 .6 17.5-0.3 27.8-3.2c6.5-1.9 13.5-4.3 21-7.3c0 0 0 0 0 0c4.8-2 9.4-3.7 13.7-5.1c0 0 0 0 0 0c7.2-2.2 15.3-5.7 24.2-10.4c3.6-1.2 6.6-2.2 8.9-3c0 0 0 0 0 0c2.4-0.9 6.9-2.5 13.5-4.7c0 0 0 0 0 0c9.2-3.1 17.4-6.7 24.8-10.6c0 0 0 0 0 0c7.7-4 13.3-7.4 17.1-10c3.8-2.7 6.5-4.7 8.2-6c1.5-1.3 2.9-2.4 4-3.4c0 0 0 0 0 0c1.2-1 2.4-2.1 3.8-3.4c0 0 0 0 .1 0c2-1.9 4.1-4.1 6.3-6.5c.7-0.8 1.7-1.8 2.8-3c3.1-3.2 8.1-9.6 13.8-20c4.6-8.2 8.4-17.2 11.3-27.3c2.6-8.6 4.3-15.7 5.3-21c.4-1.7 .6-3.3 .9-4.9c1.8-4.2 3.4-8 4.6-11.2c2.2-6.1 3.9-11.1 5-15.3l2.9-11.2c1.8-6.6 3.1-17.8 2.7-33.8c-0.3-10.9-0.6-19.9-1-26.8c-0.3-6.4-0.5-11-0.7-13.9c-0.2-5.9-0.8-10.4-1.4-13.5c-0.7-3.5-1.9-7.5-3.6-11.9c-2.1-5.5-4.9-10.6-8.4-15.3c-0.3-0.3-0.5-0.6-0.7-0.9c0 0 0 0 0 0c-0.7-1.2-1.8-2.7-3.2-4.5c-0.8-5.5-2.8-11-5.9-16c-10.6-16.7-31.4-23.3-49.3-16.6l-0.4-0.2l-0.3-0.2l-0.2-0.2c-6.2-6.2-11.9-11.2-17-15.1c0 0 0 0 0 0c-7-5.3-16.8-10.4-29.9-14.2c-6.7-1.9-14.3-4.2-22.6-7c0 0 0 0 0 0c-9.8-3.2-18.6-5.8-26.2-7.7c-8.1-2.1-15.4-3.7-21.7-4.8c0 0 0 0 0 0c-6.6-1.1-13.5-2-20.9-2.5c-7-0.5-14.3-0.8-21.7-0.7c-8.1 0-16.2 .6-24.5 1.7c-9.9 1.4-20 4.1-30.4 8.5c-6 2.6-11 4.9-14.9 6.8Z" fill="#ffbc08" fill-opacity=".57" transform="translate(781.5,116.8) scale(1.36,1.36) translate(-614.9,-277.4)" style="animation: 300s linear infinite both wql3ifkimgbg4puj8c027svr_f;"/><path d="M959.9 289.4c-2.4 3.5-5.6 8.3-9.6 14.4c-1.3 2-2.6 4.1-4 6.3c-2.6-0.2-4.8-0.6-5-1.6c.7-1.3 .8-1.7 .2-0.7c-0.2 .3-0.2 .5-0.2 .7c-3.6 7.6-23.6 46-27.8 55.5c-5 11.4-8.7 20-11.1 25.9c0 0 0 0 0 0c-2.4 6.1-4.2 11-5.5 14.6c0 0 0 0 0 .1c-1.2 3.3-2.1 6-2.8 7.9c-0.4 1.1-0.7 2.1-1 2.8c0 0 0 0 0 0c-0.5 1.1-2.5 6.1-5.8 14.8c-0.8 1.2-1.7 2.4-2.5 3.7c-6.6 9.6-12.9 19.9-19.1 30.7c-3.2 4.3-6.5 8.6-9.8 12.7c-5.8 7.2-7.2 16.5-4.6 24.7c-5.4 10.1-9.8 18.8-13.3 26.1c-3.7 7.8-7.3 16.5-10.7 25.9c-3.4 9-5.9 16.1-7.6 21.4c0 0 0 0 0 0c-1.7 5.1-3.1 9.3-4.1 12.7c-1.1 3.4-2.6 8.1-4.6 14.1c-1.9 6.2-5.5 18.2-10.6 36.1c-5 17-9.4 31.1-13.3 42.4c0 0 0 0 0 0c-4.1 11.3-7.1 19.7-9.1 25.1c0 0 0 0 0 0c-2 5.2-4.7 11.6-8.3 19.5c-3.4 7.5-6.7 13.9-9.8 19.3c0 0 0 0 0 0c-4.2 7.2-8.2 15.9-11.9 26c-3.4 9.4-6.8 22-9.9 37.7c0 0 0 0 0 0c-2.8 13.9-5.1 24.9-7.1 33.2c-1.8 8-4.2 16.9-7.2 26.8c0 0 0 0 0 0c-3.2 10.5-7.9 26.1-13.8 46.7c0 0 0 0 0 0c-6 20.3-10.4 35.5-13.4 45.6c0 0 0 0 0 0c-3.3 11.1-5.4 19.3-6.5 24.5c-0.7 3.6-1.6 7.1-2.8 10.7c-2.1 6.3-3.5 16.7-3.4 31.2c.2 11.5 .7 21.3 1.5 29.7c.8 7.4 1.3 13 1.6 16.8c0 0 0 0 0 0c.6 7.9 2.3 13.9 4.4 18.3c2 4.3 4.1 7.8 6.3 10.6c0 0 0 0 0 0c2.6 3.3 9 9 21.2 13.5c7.3 2.8 16.4 4.6 27.1 5.2c9.9 .6 19.8 0 29.4-1.9c8.8-1.7 16.9-3.8 24.3-6.3c7.1-2.4 15.3-5.7 24.4-9.9c9.4-4.3 19.8-10.3 31-18.1c0 0 0 0 0 0c10.8-7.5 19.3-14 25.6-19.4c6.1-5.4 10.6-9.5 13.4-12.3c2.8-2.8 5.8-5.9 8.9-9.2c0 0 0 0 0 0c3.1-3.3 7.9-8.7 14.3-16.2c0 0 0 0 0 0c6.5-7.7 14.1-18.1 22.8-31.3c0 0 0 0 0 0c8.3-12.7 15.1-23.7 20.2-33.1c4.4-7.9 7.9-13.8 10.3-17.6c2.9-4.3 9.1-14.6 18.4-30.9c9.1-15.8 15.8-27.9 20.2-36.2c4.3-8.3 8.5-16.4 12.4-24.2c3.8-7.8 7.7-15.8 11.6-24.1c3.9-8.2 7.2-15.2 9.8-20.9c0 0 0 0 0 0c2.6-5.8 4.7-10.5 6.2-14.1c1.6-3.5 4-9.4 7.4-17.5c0 0 0 0 0 0c3.5-8.2 6.7-16 9.6-23.4c2.8-7.2 5.1-13 6.8-17.2c0 0 0 0 0 0c1.6-4.2 3.8-9.7 6.6-16.6c0 0 0 0 0 0c3.1-7.6 6-15.2 8.4-22.8c0 0 0 0 0 0c2.5-7.6 4.8-15.7 7-24.5c2-8.3 5.1-22.3 9.2-42.2v-0.3c1.9-4.1 3.4-7.5 4.6-10.1c0 0 0 0 0 0c1.9-4.5 3.3-7.9 4.3-10.2c.9-2.2 3.3-8 7.1-17.2c0 0 0 0 0 0c4-9.4 7-16.8 9.1-22.2c0 0 0 0 0 0c1.8-4.4 4.2-9.3 7.1-14.7c0 0 0 0 0 0c3.8-7 8.5-17.3 14.2-31c5.6-13.3 9.6-23.4 12-30.4c2.1-6.2 3.8-10.8 5-13.8c1.3-3.5 4-11.3 8.2-23.7c4.1-12.1 7.4-22.5 9.9-31c0 0 0 0 0 0c2.6-8.7 4.5-15.5 5.6-20.3c1.5-5.9 2.2-10.9 2.4-15.1c1.3-3.2 2.7-7 4.4-11.5l.2-0.5c1.3-1.3 2.4-2.3 3.3-3.3c0 0 0 0 0 0c1.5-1.5 3-3.1 4.5-4.7c3.9-3.9 8.1-10 11.2-19c0 0 0 0 0 0c2.3-6.3 3.3-11.1 3.7-14l.6-2.5c1.1-3.8 2.1-8.3 3-13.4c0 0 0 0 0 0c1.3-7 1.6-13 1.4-17.9c-0.3-4-1-9.3-2.3-15.8c-0.9-4.3-1.5-7.6-1.9-9.8c0 0 0 0 0 0c-0.3-1.8-0.6-3.4-0.7-4.5c-0.2-1.3-0.4-3.7-0.7-7.1c-0.3-3.9-0.6-7.1-0.8-9.5c-0.3-5-1.2-9.9-2.8-14.7c-1.3-4.3-3.1-8.5-5.3-12.6c-1.3-2.5-2.4-4.4-3-5.7c0 0 0 0 0 0c-1.1-1.8-2.5-4.2-4.5-7.2c-3.6-5.4-9.6-11.3-19.2-16c-5.9-2.9-11.8-4.9-17.7-6.1c-4.2-0.8-8.6-1.3-13.1-1.3c-2-1.5-4-2.8-6-3.8c0 0 0 0 0 0c-0.6-0.3-1.5-0.9-1.5-0.9l.7 .5l-0.4-0.3c-2.3-1.4-8.2-4.6-18.7-7.3c0 0 0 0 0 0c-5.5-1.4-10.3-2.5-14.2-3.4c-4.7-1-12.2-1.9-22.5-2.4c-7.4-0.4-13-0.7-16.8-1.1c-4.1-0.4-7.3-0.7-9.6-0.9c-5.3-0.5-17.3 .8-33 11c-7.8 5.1-13.6 9.2-17.5 12.2c0 0 0 0 0 0c-3.3 2.6-5.6 4.5-7.1 5.7c-2.3 1.8-4.2 3.5-5.8 4.9c-1.6 1.6-3.5 3.5-5.6 6c-1.7 1.9-3.5 4.3-5.5 7c-1.5 2-3.1 4.2-4.7 6.6c-1.6 2.1-2.8 3.8-3.8 5l-0.7 1c-2.2 2.1-3.9 4.1-5.3 5.9c-1.5 1.9-3 4-4.6 6.4c0 0 0 0 0 0c-1.6 2.5-3.3 5.4-5.1 8.7c0 0 0 0 0 0c-1.5 2.7-3.9 8-7.1 15.8l.8 9.6l1.8 .4l-1.1 5.1c-0.3 1.3-0.6 2.5-0.8 3.7Z" fill="#bb3e45" transform="translate(1250.6,670.5) scale(1.36,1.36) translate(-955,-619.1)" style="animation: 300s linear infinite both gxyu62qhgxh9z4meb7qqq7dj_f;"/><path d="M1033.9 1076.5l.6 .4l.8 .4l.2 .1l.1 .1c.6 .3 1.1 .5 1.7 .8l-1.7-0.8l-0.3-0.2l-1.3-0.7h-0.1c-2.9-1.8-4.9-3.7-6.4-5.2c2.5 2.5 19 14.7 35.5 7.9l.1 .2c-1.2 1.4-2.1 2.8-2.9 3.9c-2.3 3.3-3.9 7-4.8 11c0 .1 0 .3-0.1 .5c-3.3 15.6 54.9 56.2 64.7 54.6c1.7-0.3 3.2-0.7 4.7-1.4c-5.3-1.1 2-0.9 0 0c1.8 .4 3.6 .7 5.4 1c8.9 1.5 15.2 1.7 18.8 1.5c3-0.2 7.6-0.8 13.8-2c4.6-0.8 11.2-2 19.7-3.5c7.4-1.3 14.8-2.8 22-4.5c3-0.5 6.1-1.1 9.2-1.7c0 0 0 0 0 0c3.4-0.7 6.8-1.4 10.1-2.3h.8c6.5-0.3 11.9-0.6 16.3-1.1c5-0.5 10.1-1.2 15.2-2.2c0 0 0 0 0 0c3.4-0.8 7.6-1.4 12.7-2.1c11-1.5 19.3-4.6 25.3-8.2c2.6-1.5 5.8-3.7 9.5-6.3c1.7-0.2 3.3-0.2 4.7-0.3c7.3-0.2 13.9-1.3 19.9-3.3c6.5-2.1 11.7-4.7 15.8-7.6c2.8-2 5.9-4.3 9.2-6.7c0 0 0 0 0 0c3.2-2.4 6.9-6.8 10.4-13.5c8.6-6.1 14-16.3 13.5-27.6c-0.1-3.2-0.7-6.2-1.8-9.1c1-3.8 1.9-7.7 2.9-11.7c2.8-12 5.3-22.8 7.5-32.4c2.4-9.9 4.2-18.7 5.6-26.5c1.4-7.9 2.4-14 3.1-18.6c.6-4.3 1.7-11.8 3.3-22.3c1.6-10.4 4.9-27.1 9.9-50.1c5.1-23.6 8.9-41.4 11.4-53.4c0 0 0 0 0 0c2.6-11.9 5.4-25.3 8.5-40.2c1.4-4.6 2.9-9.3 4.5-14.2c1.6-5 5.5-15.5 11.7-31.6c6.5-17.1 11.5-30.5 15-40.2c2.9-8.2 5.9-15.4 9.1-21.6c0 0 0 0 0 0c4.1-8.2 7.3-15 9.6-20.3c2.6-6.3 4.9-13.3 6.7-21.1c.9-3.7 1.7-6.7 2.6-8.8c0 0 0 0 0 0c1.4-3.3 3.5-8.1 6.2-14.5c3.6-8.2 6.8-18.7 9.5-31.7c2.1-10 4-18.4 5.7-25.4c0 0 0 0 0 0c1.6-6.5 3.6-13.8 6.1-21.8c2.6-8.3 4.6-14.5 6-18.6c2.3-6.5 3.6-12.2 4.3-16.9c.3-2.1 1.2-5.5 2.5-10.2c0 0 0 0 0 0c2-6.8 3.6-12.8 4.9-17.8l.1-0.2l.2-0.1c0 0 0 0 0 0c13.4-6.8 16.5-16.3 16.8-21.3c0 0 0 0 0 0c.1-1.2 .3-2.6 .5-4.3c0-0.1 0-0.1 0-0.1c.5-4.1 .3-9.5-1.5-16c0 0 0 0 0 0c-0.3-1.1-0.7-2.4-1.1-3.7c.3-0.9 .6-1.8 .9-2.6c0 0 0 0 0 0c2.2-7.6 2.8-14.3 2.4-20.1c0 0 0 0 0 0c-0.5-7.5-2.7-15.1-7.5-22.8c0 0 0 0 0 0c-3.3-5.2-8.9-11.6-18-18.2c-3.9-2.8-6.8-5.1-8.8-6.7c0 0 0 0 0 0c-3.3-2.8-7.8-6-13.6-9.6c0 0 0 0 0 0c-2.6-1.6-5.3-3.2-8.1-4.7c-1.8-2.2-3.5-4.5-5.1-6.7c0 0 0 0 0 0c-7.3-9.9-13.9-15.9-18.9-18.8c0 0 0 0 0 0c-6.6-3.9-13-5.7-19.2-6c-3.8-0.2-7.1-0.2-9.8-0.2c-0.2 0-0.4 0-0.6 0c-3.7-0.8-8.1-1.5-13.3-1.9c0 0 0 0 0 0c-7-0.6-14.2-0.2-21.6 1h-0.3l-0.9-0.2l-1.4-0.3c-9.5-2.5-16.6-4.3-21.3-5.5c0 0 0 0 0 0c-2.9-0.7-5.1-1.2-6.6-1.7c-1.4-0.8-3-1.7-4.9-2.5c0 0 0 0 0 0c-2.7-1.2-8.6-3.3-9.7-3.6c-0.8-0.2-1.8-0.4-2.7-0.6c-2.9-0.7-19 1.4-19 1.4l-2 1c-2.4 .9-12.3 6.5-14.3 7.6c-3.3 1.8-5.8 3.4-7.6 4.7c-0.6 .4-1.3 .9-2.2 1.5c0 0 0 0 0 0c-3.1 1.9-8.1 6-13.9 13.2c-3.5 4.4-6 7.8-7.5 10.1c-1.6 2.4-5.1 9-9.8 20c-3.3 7.9-6.3 14.9-9.1 21.1c-2.6 5.5-4.6 9.7-6 12.5c0 0 0 0 0 0c-2 3.7-3.5 6.5-4.4 8.4c-0.6 1.4-1.5 3.1-2.6 5.2c-1.2 2.4-2.2 4.3-2.9 5.7c-0.7 1.3-1.8 3.5-3.3 6.4c-1.9 3.5-4.1 8.4-6.8 14.5c-2.3 5.4-4.5 10.7-6.6 15.9c0 0 0 0 0 0c-1.8 4.3-4.7 10.5-8.8 18.4c-4.9 9.4-10.6 21.3-17 35.5c0 0 0 0 0 0c-6.3 14.1-11 24.9-14.1 32.4c0 0 0 0 0 0c-2.9 7.2-6.6 16.3-11.1 27.2c-4.7 11.5-8.4 20.8-11 28c-2.5 7.1-6.5 18.9-12 35.5c-5.3 16.4-9.3 28.8-11.9 37.3c-2.9 9.3-4.7 16-5.7 20.1c-0.8 3.4-2.2 8.6-4.1 15.6c0 0 0 0 0 0c-2 6.9-4.7 14.8-8 23.9c-4.1 11-7.8 23.3-11 36.7c-2.8 11.6-5.1 20.6-6.9 27.1c0 0 0 0 0 0c-1.8 6.3-3.5 12.3-5.3 17.9c-2.1 6.6-4.1 13.7-6 21.2c-1.5 6.1-3.5 13-6 20.5c-2.4 7-4.9 13.4-7.6 19c0 0 0 0 0 0c-3.1 6.3-6.1 12.1-8.9 17.3c-2.2 3.9-3.8 6.7-5.1 8.4c0 0 0 0 0 0c-2.3 3.2-5.8 8.8-10.3 16.9c-4.2 7.5-8.9 18.4-14 32.8c-4.4 12.3-7.7 21.5-9.9 27.6c0 0 0 0 0 0c-1.2 3.5-2.3 6.3-3.4 8.2c-2.4 3.8-10.2 24.1-22 61.3c-4.6 14.4 1.5 29.8 14.2 37.2Zm191.8-202.7c-2.1 6.7-4.1 13.5-6 20.4c-3.6 12.5-16.6 53.3-20.2 68.4c0 0-16.9 36-15.8 36.5l19.6-28.2c3.8-18.7 14.6-61.4 16.8-71.4c2.2-9.8 4-18.1 5.4-24.8l.2-0.9Zm150.1-565.4l3.5 2.4c-0.8-0.6-1.8-1.6-3.5-2.4Zm-37.2-5.5c.5-0.1 .1 0 .1 0l-1 .4l-0.1 .1l-0.8 .3c-0.5 .2-1 .5-1.5 .8c.7-0.4 1.4-0.8 2.3-1.1v-0.1h.1l.9-0.4Zm19.2-1.6c-1.2-0.2-1-0.1 .4 .1l-0.4-0.1Z" fill="#bb3e45" transform="translate(1687.8,734.7) scale(1.36,1.36) translate(-1264.6,-668.5)" style="animation: 300s linear infinite both qy5t7qi250iaxc1ayko319uj_f;"/><path d="M687.5 1009.1c-0.4-2.2-1-5.1-1.6-8.6c0 0 0 0 0 0c-0.6-2.8-1-4.7-0.7-5.9c0 0 0 0 0 0v-0.1l.5-0.3c0 0 0 0 0 0c2-1 4.5-2.2 7.6-3.8c0 0 0 0 0 0l.6-0.3c1.5-0.1 3-0.6 4.4-1.4c.6-0.4 1.3-0.9 1.9-1.5c2.9-2.7 3.7-6.8 2.1-10.4c-0.8-2-2.3-3.6-4.5-4.7c-1.2-0.5-3-1.1-5.5-0.8c-1.2 .2-3.7 .9-7.4 2.8c-3 1.5-5.4 2.8-7.3 3.7c-3.4 1.7-5.5 3.4-6.6 4.6c-1.2 1.4-2.6 3.9-3.6 7.9c-0.6 2.8-0.7 7.3 .5 13.6c.8 4.5 1.5 7.9 2 10.3c0 0 0 0 0 0c.7 3.6 1.7 6.1 2.6 7.8c1.6 2.9 3.7 4.9 6.2 6.2c4.8 2.4 8.9 1.7 12.4-1.1c1.3-1.1 2.4-2.1 3.2-3.1c3.2-3.9 2.6-9.7-1.4-12.9c-1.6-1.3-3.5-1.9-5.4-2Z" fill="#d62431" transform="translate(1921,1091.4) scale(1.36,1.36) translate(-685,-989)" style="animation: 300s linear infinite both eoiplrc9outli4jgdqzhf6lf_f;"/><path d="M692.7 964.6c-2.5 1.9-4.2 4.3-5.3 7c-0.7 1.9-1.4 4.2-2 6.9c0 0 0 0 0 0c-0.7 2.8-1.1 5-1.2 6.5c-0.4 4.2 2.3 7.9 6.4 8.9c1.9 .5 3.9 .2 5.5-0.6c.9 .2 1.7 .4 2.6 .4c.8 1 1.9 1.8 3.1 2.3c1.1 .5 4.9 2 8.3-0.7c.4-0.2 .8-0.3 1.2-0.5c1.1-0.5 2.4-1 3.7-1.5c.5-0.2 1.1-0.4 1.3-0.5c3.8-0.8 6.6-4.1 6.7-8c0-0.2 0-0.4-0.1-0.6c.6-0.6 1-1.1 1.3-1.5c0 0 0 0 0 0c1.1-1.8 2-4.3 2.5-7.4c.7-5.2-1.2-9.6-6.5-12.6c0 0 0 0 0 0c-0.9-0.5-2-1-3-1.4c-0.5-0.8-0.9-1.3-1.2-1.5c0 0 0 0 0 0c-0.9-1-2.2-1.9-4.1-2.5c-0.5-0.2-1-0.3-1.5-0.4h.1c0 0-0.3-0.1-0.6-0.1c0 0 0 0 0 0c-1.1-0.4-2.9-0.6-5.5-0.6c0 0 0 0 0 0c-3.5 .1-7.9 1.9-11.3 7.7c0 0 0 0 0 0c-0.2 .2-0.3 .5-0.4 .7Z" fill="#d62431" transform="translate(2079.8,959.7) scale(1.36,1.36) translate(-705.5,-988.3)" style="animation: 300s linear infinite both pgojjtoewn1fql9y4es0d5md_f;"/><path d="M732.8 1108.9c1.4-0.7 2.7-1.7 3.8-3c1.2-1.4 1.8-2.6 2.1-3.3c2.4-5.5 .7-9.5-0.9-11.9c-1.7-2.8-4.5-5.3-9.1-5.8c-1-2.3-2.5-4.5-4.6-6.7c-3.3-3.2-7.8-5.8-13.6-7.2c0 0 0 0 0 0c-4.2-1-9.4-1.5-15.6-1.3c0 0 0 0 0 0c-9.3 .3-15 3.3-18.1 6.3c-2.8 2.8-4.8 5.8-6.2 8.9c-2.1 4.6-2.5 10.4 .7 17.2c2.6 5.7 5.9 9 8.9 10.8c2.1 1.3 4.9 2.5 8.4 3.6c0 0 0 0 0 0c3.6 1.1 7.2 1.6 10.8 1.6c0 0 0 0 0 0c2.5 0 5.2-0.1 8.2-0.2c0 0 0 0 0 0c3.9-0.2 8.4-1.1 13.3-2.9c4.8-1.8 8.4-3.7 11.1-5.5c0 0 0 0 0 0l.8-0.6Z" fill="#d62431" transform="translate(2052.4,1112.6) scale(1.36,1.36) translate(-704.4,-1093.9)" style="animation: 300s linear infinite both h0yfk3oz1smdw2gv1lwwozxt_f;"/><path d="M938.7 1210.6l-0.2 .2l-0.2 .3c-0.3 .4-0.7 1-1.2 1.6c-1.2 1.6-2.2 3.7-2.8 6.3c-0.2 1-0.6 2.6-0.7 3.1c.3-1.5 .2-1.1-0.2 1.2c0 0 0 0 0 0c-0.3 1.5-0.4 3.2-0.2 5.2c.2 1.2 .5 2.4 .8 3.3c0 0 0 .1 0 .1c0-0.1 0-0.1 0-0.1c0 0 0 0 0 .1c.4 1.7 1.6 5.7 7 8.4c0 0 0 0 0 0c1.6 .8 3.5 1.4 5.8 1.7c2.3 .4 6.4 .1 11.5-2.7c0 0 0 0 0 0c2.3-1.3 4.9-3 7.6-5.1c4.6-1.1 8.1-4.9 8.6-9.8c.3-3.6-0.9-6.2-2.1-7.9c-1.7-2.2-3.9-3.8-7-4.4c-0.7-0.2-2-0.3-3.7 0c0-0.7-0.3-2.6-1.2-5.7c-1-3.3-2.2-6.3-3.5-9.1c-0.1-0.2-0.3-0.5-0.4-0.8c.1-0.9 .3-1.8 .5-2.7c.4-2 .7-3.5 .9-4.8c.9-6-3.2-11.6-9.2-12.5c-6-0.9-11.7 3.2-12.6 9.2c-0.1 .9-0.3 2-0.6 3.3c0 0 0 0 0 0c-0.5 2.2-0.8 4.3-1 6.4c0 0 0 0 0 0c-0.2 3.2 .4 7.1 2.5 11.5c0 0 0 0 0 0c.6 1.2 1.1 2.4 1.6 3.7Z" fill="#d62431" transform="translate(1994.5,1301.7) scale(1.36,1.36) translate(-953.8,-1221.7)" style="animation: 300s linear infinite both jsu448tm9x0j0m6s9ou36on5_f;"/><path d="M868.1 1172.1c0 .3-0.3 2.1-0.6 3.7c0 0 0 0 0 0c-0.1 .7-0.3 1.4-0.4 2h-0.1l-1 2.5c-0.8 2-1 4.3-0.8 6.4c-3.2-4.2-7.9 5.3-7.9 5.3c-0.6 .4-1.7 1.3-1.7 1.3c-1.6 1.2-2.7 2.5-3.5 3.8c-4 6-1.6 11.9-1.3 12.7c1.3 3.8 3.7 6.7 7.7 8.6c1.7 .7 5.7 2.6 11.7 .3c0 0 0 0 0 0c1-0.4 3.7-1.4 3.7-1.4c1.1-0.1 2.3-0.3 3.5-0.5c0 0 0 0 0 0c1.4-0.3 2.8-0.7 4.3-1.2c0 0 0 0 0 0l.8-0.3h.2v-0.1h.1l.2-0.1c.3-0.1 .7-0.2 1.1-0.4c0 0 0 0 0 0c1-0.3 3.8-1.9 8.3-4.8c1.1-0.5 2-1.1 2.8-1.5c1.8-1.2 10.5-7.4 5.2-18.7c-0.1-0.2-1-1.9-3.1-4.9c-0.4-0.6-0.7-1.2-1.1-1.7c.1-0.6 .2-1.1 .3-1.7c.9-4.7 1.2-7.6 1.2-8.5c-0.1-8.2-6.8-14.8-14.9-14.7c-7.8 .1-14.2 6.2-14.7 13.9Zm-17.9 32.1v.1v-0.1Zm17.2-27l-0.3 .6h-0.1h.1l.2-0.5l.1-0.1Zm30.5 8.7l.1 .1h-0.1v-0.1Z" fill="#d62431" transform="translate(1888.7,1230.7) scale(1.36,1.36) translate(-876,-1169.5)" style="animation: 300s linear infinite both pywcw9hlu7dxqcceagfled7t_f;"/><path d="M985.5 1188.1l-0.8-0.1c-1.9-0.2-3.4-0.4-4.3-0.5c-2.5-0.4-4.4-0.4-5.7-0.2l-0.4 .1c-1.2 .1-2.6 .5-4 1.2c-1.5 .8-4.6 3.7-5.1 4.2c-0.9 1-2.6 4.3-2.8 4.8c-1.9 4-1.8 8.1 .4 12.3c1.5 2.7 3.4 4.5 5.1 5.7c0 0 .1 0 .1 0c.8 .5 2.5 1.4 5.2 2.4c1.8 .7 7.5 1.8 17.3 2.7c2.9 .3 5.8-0.6 8.1-2.4l.7-0.6c.8-0.5 1.2-0.9 1.3-0.9c0 0 0-0.1 0-0.1c.1-0.1 .3-0.2 .5-0.5c4.4 2.1 7.5 2.8 8.9 2.9c0 0 2.3 .1 3.1 .1c.8-0.1 7.1-1.9 9.9-4.7c1.6-1.7 2.9-3.7 3.8-5.9c5.1-11.8-4.7-16.3-8.1-16.9c-1.6-0.3-3.1-0.3-4.7 .1c-0.6 .1-1.2 .3-1.7 .4c-1.5 .4-2.8 1.1-3.9 2l-0.3-0.5c-2-3.6-3.4-5.8-4.2-6.8c-3.9-4.8-11.1-5.6-15.9-1.6c-1 .8-1.9 1.8-2.5 2.8Z" fill="#d62431" transform="translate(2050.1,1259.6) scale(1.36,1.36) translate(-994.7,-1190.7)" style="animation: 300s linear infinite both whaq96hda176wkrd0rwl1jzr_f;"/><path d="M179.6 942.3c.3 .4 .7 .9 1 1.5c2.6 3.4 5.7 8 9.4 13.6c0 0 0 0 0 0c6.7 10 12.8 16.3 17.3 19.8c0 0 0 0 0 0c2.6 2 5.8 4.5 9.5 7.5c1.7 1.3 3.1 2.7 4.2 4.2c1.3 1.8 2.3 4.2 3.3 7c1.7 4.5 3 9.5 4.1 14.9c0 0 0 0 0 0c1.3 6.5 2.4 14.1 3.4 22.8c0 0 0 0 0 0c1.4 11.9 3.5 21.4 6 28.6c0 0 0 0 0 .1c4.1 11.8 9.3 19.2 13.2 23.1c0 0 0 0 0 0c.7 .6 1.4 1.4 1.4 1.4v-0.1c1 1.3 2.3 2.7 3.8 4.2c2.2 2.2 4.1 4 5.7 5.2c2.5 2.2 5 3.9 7.4 5.3c4.2 2.5 6.7 3.4 6.9 3.4c.1 .1 .2 .1 .2 .1c.3 .1 2.5 1 6.8 1.9c.9 .1 2.1 .3 3.8 .6c3.4 .6 7.7 1 13.1 .8c4.6-0.1 9.8-0.8 15.5-2.3c2.1-0.6 5-1.3 8.5-2c6.7-1.4 13.8-3.7 21.1-7.1c0 0 0 0 0 0c9.4-4.3 16.9-9.7 22.5-16c4.4-4.8 8.3-10.2 11.7-16.2c3.3-6 6.1-13.1 8.2-21.5c0 0 0 0 0 0c1.5-6.2 2.8-12.3 4-18.5c0 0 0 0 0 0c1.1-6.2 2.2-14.8 3.2-25.9c1-11.5 1.1-23.5 .2-36c-0.9-11.4-1.6-20.4-2.4-27c-0.6-5.3-0.8-10.8-0.8-16.6c0 0 0 0 0 0v-1.6c3.4 .1 6.9 .6 10.5 1.3c4.9 1 8.8 1.9 11.7 2.7c2.5 .7 5.1 1.6 7.8 2.7c0 0 0 0 0 0c2.6 .9 4.6 1.8 6.2 2.5c1.1 .6 2.5 1.5 4.3 2.8c0 0 .1 0 .1 0c2.2 3.5 5.3 8.5 9.4 15.1c4.2 6.8 8.5 13.7 12.8 20.7c2.1 3.4 3.7 6.6 4.3 9.7c1.3 6.4 2.9 13.7 4.8 21.9c1.8 7.6 3.4 14.6 4.8 20.8c1.2 5.5 2.2 12.5 3.1 21.1c1 9.5 1.9 22.2 2.8 38.1c.9 18.1 1.7 28.2 2 30.2c0 .1 0 .1 0 .1c.6 3.8 1.8 7.9 3.5 12.1c0 0 0 0 0 0c1.3 3.1 3.3 7 6.1 11.7c0 0 0 0 0 0c6.4 10.7 15 16.7 23.4 19.9c2.2 .8 4.3 1.5 6.4 2c7.5 2.5 13.9 2.5 19.3 1.2l2.5-0.3c4.2-0.7 9.3-1.9 15.2-3.8c0 0 0-0.1 .1-0.1c4.2-1.4 10.2-3.8 17.8-7.1c0 0 0 0 0 0c12.7-5.7 20.8-12.3 25.5-18.2c2.1-2.6 4-5.4 5.6-8.4c.8 3.8 2.1 6.7 3.2 8.6c8.5 15.4 29.3 21.7 46.5 14.1c11.8-5.2 18.8-15.6 19.4-26.5c.5-2 1.8-6 3-9.5c3.2-9.3 6.1-16.7 8.7-22.3c0 0 0 0 0 0c4.5-9.7 7.1-20.5 7.5-32.5c0 0 0 0 0 0c.4-10.5-0.2-19.1-1.5-25.5c0 0 0 0 0 0c-0.8-4.1-1.4-8.1-1.9-11.7c-0.6-4.9-1.7-11.5-3.3-19.9c0 0 0 0 0 0c-1.9-9.6-5.2-19.5-10-29.8c0 0 0 0 0 0c-4.2-9-9.2-18.2-15.1-27.6c0 0 0 0 0 0c-5.3-8.6-9.5-15-12.3-19.3c0 0 0 0 0 0c-4.4-6.6-9.1-12-13.8-16.2c-6.3-5.6-12.8-9.5-19.4-12.1c0 0 0 0 0 0c-3.8-1.5-8.3-3.1-13.6-4.7c0 0-0.1 0-0.1 0c-8.4-2.6-17.6-3.8-27.6-3.2c0 0 0 0 0 0c-8.9 .5-16.7 2.1-23.3 4.4c-6.7 2.3-12.6 5.1-17.8 8.4c0 0 0 0 0 0c-7.9 5-14.9 12.6-19.5 23.8c-1.1 2.6-8.2-0.3-8.2-0.3c0 0 0 0 0 0c-4.4-7-7.8-12.4-10.2-16.1c0 0 0 0 0 0c-4.6-7.1-10.6-13.3-18-18.4c-5.7-3.8-10.2-6.5-13.6-8.1c-3-1.4-6.9-3.1-11.8-5c-4.7-1.8-9.4-3.3-13.9-4.7c0 0 0 0 0 0c-4.3-1.2-10.1-2.6-17.5-4.1c-8.4-1.7-16.6-2.6-24.5-2.9c0 0 0 0 0 0c-10.9-0.3-20.1 1.1-27.6 3.5c-7.4 2.4-13.8 5.5-19.3 9c-8.1 5.3-15.1 13-19.4 24.2c-2.7 6.7-4.5 15.5-4.6 26.6c-0.1 8.1 .3 16 1.1 23.5c.7 6.2 1.4 14.5 2.2 24.9c0 0 0 0 0 0c.7 9.3 .7 18.3-0.1 26.8c0 0 0 0 0 0c-0.8 9-1.6 15.9-2.6 20.9c-0.9 5.1-2 10.1-3.2 15.1c-0.7 2.7-1.4 5.1-2.5 7c-1 1.8-2.1 3.5-3.4 4.9c0 0 0 0 0 0c0-0.1-0.2-0.2-0.1-0.3c-2 .9-3.8 1.7-5.6 2.1l-3.7 .8l-0.1-0.2c-1.5-4.3-2.5-10-3.3-17c-1.3-10.2-2.6-19.2-4.1-26.9c-1.7-8.7-3.9-16.5-6.5-23.6c-3.2-8.7-7.1-15.8-11.1-21.5c0 0 0 0 0 0c-4.3-5.9-9.6-11.4-16-16.5c-3.7-3.1-7-5.6-9.6-7.7c-0.6-0.7-2.7-3.3-4-5.3c-4.3-6.5-7.9-11.7-10.8-15.6c-4.7-6.5-9.5-11.5-14.2-15.1c-3.2-2.6-7.3-5.2-12.4-7.5c3.8-11.5 .1-24.4-10.8-32.7c-14.6-11.1-36.5-9.5-49 3.6c-2.8 2.9-5.6 5.9-8.4 9c-4.6 4.9-8.8 11.1-12.3 18.5c-5.7 12.1-4.4 21.8-1.9 28.4c3.6 9.3 10.6 16.6 21.9 20.8c4.5 1.6 10 3.1 16.5 4.4c0 0 0 0 0 0c3.1 .7 6.6 1.6 10.3 2.7l1 .4Zm355.5 211.8c11.3-2.6 3.6 3.7-18.2-1l-1.1-0.3l-1.8-0.6l.9 .4l.9 .2l1.1 .3c4.1 1.1 10.1 2 18.2 1Zm-37.5-13.2l.2 .2l-0.5-0.5l.3 .2Zm-1-1.3l.2 .3l-0.4-0.6l.2 .3Zm-0.8-1.2l.1 .1l-0.3-0.3l.2 .2Zm87.6-195.9c-2-0.7-4.3-1.5-6.9-2.3c-0.2 0-0.3 .1-0.4 .1v.2c.2 5.7 .4 10.1 .8 13.4c.4 3.8 .9 10 1.6 18.6c0 0 0 0 0 0c.5 6.6 1.5 13.1 3.1 19.4c1.7 6.6 4.5 14.2 8.3 22.9c4.2 9.6 7.5 16.8 10 21.5c3.8 7.3 6.7 14.7 8.7 22.3c1.3 5.4 2.1 10.9 2.2 16.4c2.8-7.3 5.3-13.5 7.7-18.5c1.4-3.1 2-6.5 2.1-10.4c.2-5.2 .2-9.5-0.5-12.7c-1.1-5.6-1.9-10.8-2.5-15.8c-0.5-3.9-1.4-9.1-2.7-15.7c-1-5.4-3-10.9-5.7-16.7c-3.2-6.9-7-14-11.5-21.1c-5-8-8.8-13.9-11.4-17.8c-1-1.5-1.9-2.8-2.9-3.8Z" fill="#3b7d1b" transform="translate(461.9,1101) scale(1.36,1.36) translate(-379.9,-1001)" style="animation: 300s linear infinite both kpugtac61iff7e0fw19u54xg_f;"/><path d="M203.1 859.5c-1.5-0.2-3.2-0.2-5.1-0.2c-6.7 .3-10.1 2.5-10.8 2.8l-0.4 .2c-2.7 1.2-6.2 3.2-9.8 6.8c0 .1 0 .1 0 .1c-0.5 .4-0.9 .9-1.4 1.5c-6.2-1.4-12.3-1.9-18-1.6c-7.6 .4-14.8 2.2-21.8 5.7c0 0 0 0 0 0c-6.9 3.4-13.4 8.7-19.2 16.1c-3.3 4.3-5.9 7.8-7.8 10.5c0 0 0 0 0 0c-2.7 3.6-5.9 9.7-9.3 18.5c-2.9 7.6-4.7 13.5-5.5 17.6c0 0 0 0 0 0c-0.7 3.1-1.5 6.7-2.3 10.6c-0.9 4.2-1.9 8.6-2.8 13.3c0 0 0 0 0 0c-1.6 8-1 19.6 4.8 34.5c0 0 0 0 0 0c3.5 9 7 17.2 10.4 24.6c0 0 0 0 0 0l3.3 7c.3 3.3 .7 6.5 1.2 9.7c0 0 0 0 0 0c.6 3.8 1.3 7.3 2.1 10.5c.2 2.5 .5 4.9 .8 7.2c0 0 0 0 0 0c1.7 11.2 4.9 18.3 7.5 22.1c5.2 7.6 11.7 10.9 17.6 12.3l.7 .2l.6 .8c0 0 0 0 0 0c5.9 8.9 11.8 14.9 16.9 18.5c0 0 0 0 0 0c7.6 5.4 14.7 7.8 20.8 8.5c0 0 0 0 0 0c1.2 .2 2.3 .3 3.3 .3c4.1 2.2 9.3 4.5 15.8 6.4c7.1 2.2 12.3 3.6 15.8 4.3c4.8 1.1 12.4 1.5 22.7 .3c0 0 0 0 0 0c9.7-1.1 19.4-4.2 29.1-9.8c0 0 0 0 0 0c7.4-4.2 14.4-8.9 20.9-13.9c5.2-4 10-7.6 14.5-10.7c4.8-3.4 13.1-9 24.8-16.9c12.4-8.4 19.8-13.5 22.2-15.2c11.8-8.7 14.4-25.3 5.7-37.1c-5.5-7.5-14.4-11.3-23.1-10.7c.4-0.9 .7-1.8 1.1-2.7c2.4-6.2 4.3-15.4 4.5-27.6c.2-9.6-0.4-18.8-1.7-27.5c-1.2-8.8-2.8-16.2-4.5-22.1c-2.4-8-5.2-14.1-8.1-18.7c-2.7-4.1-5.1-7.4-7.3-9.9c0 0 0 0 0 0c-2.7-3.2-6.3-6.4-10.9-9.6c-3-2-7.9-4.9-14.8-8.7c-6.6-3.5-14.4-7.1-23.3-10.7c-4.4-1.7-8.5-3.2-12.5-4.5l-0.6-0.7c0 0 0-0.1 0-0.1c-2.7-3-6.5-6.1-11.8-8.7c-4.7-2.3-11.6-4.2-21-3.6c-2.8 .2-6.3 .3-10.5 .2c-1 0-1.9 .1-2.8 .1Z" fill="#5a6edc" transform="translate(246.9,1091.7) scale(1.36,1.36) translate(-221.8,-994.2)" style="animation: 300s linear infinite both r9852gtjor9rxj3irol6o8tj_f;"/><path d="M278.7 896.8h.6c.2 0 .5 0 .7 0c6.5-0.4 9.1-4.2 10-5.4c2-2.7 2.7-5.7 2.4-8.7c-0.2-2.4-1-5.3-3.9-8.1c-0.7-0.7-1.9-1.8-4.1-2.7c-0.8-0.3-4-1.3-9.7-2.3c0 0 0 0 0 0c-6.4-1.2-11.7-1.9-15.9-2c-2-0.1-3.9-0.5-5.5-1.2c0 0 0 0 0 0c-3.4-1.4-6.4-2.6-9-3.4c-2.6-0.9-7-2.1-13.3-3.4c-6.4-1.4-12.5-2.1-18-2.2c-5.5 0-11.1 .5-16.7 1.5c0 0 0 0 0 0c-5.1 .9-10.3 2.9-15.6 6c-8.4 2.4-16.3 5.4-23.9 9.1c-8.2 3.9-14.2 7-18 9.1c0 0 0 0 0 0c-4.1 2.4-7.2 4.4-9.5 6c-1.5 1.1-3 2.1-4.7 3c0 0 0 0 0 0c-2.6 1.5-6.8 4.6-12.4 9.5c-5 4.5-9.1 8.3-12.1 11.5c-3.3 3.5-5.9 6.7-7.8 9.5c0 0 0 0 0 0c-3.3 4.8-4.8 10.1-4.5 16.1c.3 5.5 4.1 10.2 9.4 11.7c2.4 .6 4.3 1 5.8 1.2c.5 .1 1 .1 1.5 .1l-4.5 9.1c-2.3 4.6-4.3 10.8-5.8 18.5c-1.2 6-2.2 10.7-3.1 14c-1.6 5.8-1.7 10.9-0.8 15.1c0 0 0 0 0 0c.5 2.6 .9 4.7 1.2 6.3c.5 2.1 2 6.2 5 11.9c0 0 0 0 0 0c2.7 5.1 5.1 8.9 7.2 11.4c.8 .9 1.7 2.2 1.7 2.2c0 0-0.1-0.2-0.2-0.3c1.1 2.2 5.2 7.2 13.7 14.1c0 0 0 0 0 0c6.3 5.1 12 9.4 17 13c4.8 3.5 8.6 6.3 11.4 8.2c2.5 1.8 5.5 4.2 9.1 7.2c4.3 3.7 8.6 6.8 12.7 9.6c0 0 0 0 0 0c4.7 3.1 9.8 5.7 15.4 7.6c0 0 0 0 0 0c4.1 1.4 7.9 2.9 11.4 4.4c4.3 1.9 7.9 3.2 10.5 4c2.6 .8 5.6 1.6 9.2 2.4c5.2 1.2 10.8 1.1 16.9-0.7c0 0 0 0 0 0c4.2-1.2 7.4-2.2 9.7-3c0 0 0 0 0 0c2.8-1 6.5-3 11-6.1c0 0 0 0 0 0c4-2.8 7.5-5.8 10.5-8.9c0 0 0 0 0 0c2.6-2.8 4.8-5.2 6.6-7.4c2-2.5 3.9-5.1 5.5-7.8c1.6-2.7 2.9-5.1 3.8-7.2c1-2.3 1.6-4 2-5.2c.2-0.8 1.3-4.1 3.2-9.7c0 0 0 0 0 0c1.9-5.7 3.5-10 4.7-13.1c1.2-3.1 3-7.3 5.5-12.7c2.9-6.5 5-12.3 6.2-17.4c1.1-4.3 1.9-7.7 2.6-10.3c.9-3.3 1.5-8.2 1.6-14.7c0 0 0 0 0 0c.1-5.6-0.1-10.3-0.5-14c-0.4-4.1-0.9-7.4-1.5-10c0 0 0 0 0 0c-0.8-3.1-2.3-6.9-4.9-11.2c0 0 0 0 0 0c-1.6-2.6-3-5-4.1-7.2c-1.1-2.1-1.9-3.8-2.4-4.8c-0.6-1.3-1.1-2.5-1.7-3.6c0 0 0 0 0 0c-0.5-1.1-1.9-4.1-4.3-8.8c-2.4-4.8-4.3-8.7-5.9-11.7c-0.9-1.8-1.5-4-1.8-6.7c-0.6-4.3-0.9-7.5-1.2-9.6c0 0 0 0 0 0l-0.2-2.1c.6 .2 1.2 .2 1.8 .3Zm-27.5 1.1c-0.5-0.5-1.1-1.3-1.6-1.9c0 0 0 0 0 0c-1.7-1.8-3.8-3.1-6.3-4.1c-3.6-1.5-7.4-2.6-11.3-3.4c-5.1-0.9-8.9-1.7-11.4-2.3c-1.5-0.3-2.6-0.5-3.2-0.6c-0.9 0-3.8 0-8.7 .1c-4.6 0-10.4 1.1-17.5 2.9c-4.2 3-7.7 5.7-10.3 8.2c0 0 0 0 0 0c-2.8 2.6-5 4.7-6.4 6.1c-1.4 1.4-3.9 4.4-7.6 8.8c0 0 0 0 0 0c-4.3 5.3-8.7 10.1-13.1 14.3c-4.2 4.1-7.7 7.3-10.4 9.6c0 0 0 0 0 0c-1.6 1.4-3.1 3.3-4.5 5.6c-2 3.3-4.6 8.3-7.8 14.8c-3.5 7-6.1 12.4-8 16.2c0 0 0 0 0 0c-1.5 3-2.7 7.1-3.7 12.1c0 0 0 0 0 0c-1.3 6.7-2.5 12-3.5 15.7c-0.3 1.3-0.6 2.3-0.4 3.3l1.2 5.9c.2 .4 1.4 3.2 2.5 5.4c1.7 3.1 3.1 5.5 4.4 7c1.9 2.4 3.3 4.4 4.3 6.1c1 1 4 3.7 7.1 6.3c6 4.7 11.2 8.8 15.9 12.2c0 0 0 0 0 0c4.8 3.4 8.6 6.2 11.3 8.1c0 0 0 0 0 0c3 2.1 6.5 4.9 10.8 8.5c3.5 2.9 7 5.6 10.4 7.8c2.9 2 6 3.5 9.4 4.7c4.9 1.6 9.4 3.4 13.4 5.2c0 0 0 0 0 0c3.2 1.3 5.8 2.4 7.7 3c2.1 .6 4.5 1.2 7.4 1.8c1.3 .3 2.7 .1 4.2-0.3c3.4-1 6-1.8 7.9-2.5c1.4-0.5 3-1.5 5.1-3c2.5-1.7 4.7-3.5 6.5-5.4c2.2-2.3 4-4.4 5.4-6.2c0 0 0 0 0 0c1.3-1.4 2.4-3 3.3-4.6c0 0 0 0 0 0c1-1.6 1.8-3 2.3-4.2c.5-1.1 .8-1.9 1-2.4c0 0 0 0 0 0c.2-0.9 1.4-4.4 3.4-10.5c2.1-6.2 3.8-11 5.2-14.4c1.3-3.4 3.3-8 6-13.9c0 0 0 0 0 0c2.1-4.7 3.7-8.9 4.6-12.7c1.1-4.6 2-8.3 2.8-11c0 0 0 0 0 0c.5-1.9 .7-4.7 .7-8.3c0-4.5-0.1-8.2-0.4-11.2c-0.2-2.6-0.5-4.8-0.9-6.4c-0.3-1.2-1-2.5-2-4c-1.9-3.2-3.5-6.1-4.8-8.7c0 0 0 0 0 0c-1.4-2.6-2.3-4.6-2.9-5.9c0 0 0 0 0 0c-0.6-1.1-1.1-2.2-1.6-3.2c-0.5-1.1-1.9-3.9-4.1-8.5c-2.3-4.6-4.2-8.3-5.7-11.2c-2.2-4.1-3.7-9.2-4.5-15.4c-0.6-4.5-1-7.9-1.2-10.1c-0.2-1.2-0.3-2.4-0.4-3.4Z" fill="#000" transform="translate(216.6,1108.3) scale(1.36,1.36) translate(-196.6,-1000.6)" style="animation: 300s linear infinite both v82zefguba403nmr0frcj0h9_f;"/><path d="M735.7 974.7l-0.1 .1l-0.1 .1l-1.5 1.1c-2.4 1.7-4.8 3.6-7.1 6c0 0 0 0 0 .1c-2.1 2-4.2 4.6-6.2 7.7c-4.1 5.5-7.2 12.9-7.4 23l-0.1 2.1c0 0 0 0 0 0c-0.3 9.5 1.9 16.4 4.1 21.1c4 8.8 9.1 14.1 13.7 17.4c.8 .7 1.6 1.3 2.4 1.8l.2 .2l1.3 .9c1 1.1 2.2 2.3 3.7 3.6c2.8 2.6 6 5 9.7 7.1c3.4 2 7.1 3.6 10.9 4.9c.2 0 .5 .2 .8 .3c0 0 0 0 0 0l1 .4l2 1c0 0 0 0 0 0c3.4 1.8 7.5 3.5 12.2 5c4.1 1.2 7.5 2 10.2 2.5c0 0 0 0 0 0c.7 .1 1.7 .3 2.9 .7c2.9 .6 5.4 1.2 7.7 1.7c1.5 .4 3.2 .8 5 1.2c0 0 0 0 0 0c2.6 .7 6.8 1.7 12.6 3c5.8 1.3 13.5 2.7 22.9 4.3c0 0 0 0 0 0c6.7 1.1 10.7 1.7 12.1 2c1 .3 2.6 .8 4.6 1.5c0 0 0 0 0 0c4 1.2 10.3 3 19 5.1c0 0 0 0 0 0c7.8 1.9 14.7 3.4 20.6 4.6c3.2 .7 6.8 2 10.8 3.7c5.5 2.4 11.2 5.3 17.2 8.9c11.3 6.6 18.1 9.8 19.8 10.5c1 .3 2.7 1.1 5.3 2.1c3 1.3 7.5 3.2 13.4 5.7c6.3 2.7 14.2 6 23.7 10.1c10.2 4.3 20.3 8.2 30.3 11.8c0 0 0 0 0 0c8.3 2.9 17 6.5 26.1 10.6c9 4 14.4 6.4 16.3 7.4c4.3 2.3 10.6 4.7 19 6.7c5.5 1.4 12.2 2.5 19.9 3.3c5.8 .6 13.4 1.4 22.7 2.3c3.7 .3 8.6 1.1 9.5 1.3c4.4 1.7 10.4 3.7 18 6c10.4 3.2 20 5 28.7 5.7c0 0 0 0 0 0c5.2 .4 10 .8 14.3 1.4c5.4 .7 13.3 1.5 23.7 2.5c0 0 0 0 0 0c9.8 .9 19.2 1.8 28.1 2.7c6.4 .6 12 1.5 16.5 2.7c0 0 0 0 0 0c7.3 1.9 13.1 3.3 17.5 4.2c2.7 .5 6.6 1.8 11.9 3.5c1.6 .6 4 1.7 4.7 2c5.7 4.5 13.5 9.4 23.5 14.2c6.4 3 11.6 5.6 15.6 7.6l3 1.6c3.8 2.7 9.3 5.7 17 8.4c14.3 5 26.5 4.2 36.6 .7c15.9-3.3 29.1-15.7 32.5-32.6c.1-0.1 .1-0.3 .1-0.4c4.1-19.8-6.6-39.7-25.4-47.2c-2.2-0.8-9.7-4-21.2-2.4c-1.4-0.8-2.9-1.6-4.5-2.4c-4.5-2.4-10.4-5.3-17.7-8.7c-3.2-1.6-5.8-2.8-7.6-4.3c-6.8-5.6 13.2-4.1 0-8.6c0 0 0-7 0-7c-9.6-3.2-24.8-9.9-29.8-10.9c0 0-13.6 2.1-13.6 2.1c6.3-4.4 28.7-7.6 0 0c-8.2-2.1-1.7-11.5-13.2-12.6c0 0-11.9 0-11.9 0c-9-0.9-16-7.9-25.9-8.9c-9.2-0.8-14.2 .6-19 0c-5.7-0.7-10.4 .5-17.2 0c-3.1-0.2-19.9-2.5-23.6-3.7c-5.9-1.8-15.2-2.5-18.5-3.8c-6.1-2.3-10.3 .5-24.6-0.8c-8.9-0.8-35.8 2.9-41.3 2.3c0 0 0 0 0 0c-3.7-0.4-6.8-0.8-9.4-1.5c0 0 0 0 0 0v-7.4c-3.3-1.6-18.4-5-27.8-9.3c-11.3-5-16.7-14.1-26.9-17.7c-8.5-3-17.4-3.4-26.1-7.1c-9.4-3.9-24.1-7.1-30.3-9.7c-6.4-2.8-2.1 4.3-5.4 2.9l-5.2-2.1c-1.4-0.8-5.3-3-9.2-5.3c0 0 0-13.6 0-13.6c-9.3-5.5-18.2 3.6-26.7 0c0 0 0 0 0 0c-10-4.3-19-7.1-26.8-8.7c0 0 0 0 0 0c-4.3-0.9-9.1-2-14.4-3.2c6-12.9 5.3-28.6-3.2-41.2c-10.7-15.8-30.3-22-47.6-16.3c-10-2.3-20.2-20.5-27.8-20.5c-7.8 .1-12.4 8.3-20.7 9c-5.5 .5-17.4 .1-20.8 0c-9.4-0.1-18.9 5.5-26.9 8.2c-8.9 3.1-8.6 12.5-12.1 15c0 0 0 0 0 0l-0.5 .3Zm630.1 277.2c1.1 .4 2.2 .7 3.3 .9c5.4 1.1 10.8 1.1 16 .1c-8.7 2.5-15.3 .7-19.3-1Zm-629.7-194.8c2 1.5 3.4 2 3.8 2.3c-0.8-0.5-2.1-1.2-3.8-2.3Zm-1.7-1.3l.2 .2l-0.2-0.3l-0.2-0.1l.2 .2Zm-6.7-5.5l-0.1-0.1l.1 .1Zm8-75.6c16.6-10.9 18.9-12.4-0.8 .7l.6-0.5l.2-0.2Zm124-7.5c2.6 1.1 5 2.5 7.2 4c-1.9-1.4-4.3-2.9-7.2-4Z" fill="#009ef1" transform="translate(1395.4,1245.8) scale(1.36,1.36) translate(-1066.3,-1107.5)" style="animation: 300s linear infinite both rder8id44wvszcyiwcf5r7zf_f;"/><path d="M326.4 760c-5.4 7.4-7.5 15.6-7.1 24.3c.1 1.9 2.2 28.7 34.4 37.9c0 0 0 0 0 0c6 1.7 13.6 3.5 22.6 5.3c8.1 1.7 16.6 3.3 25.4 4.8c7 1.2 18.8 2.9 35.5 5c5.1 1.5 9.4 2.5 13 3.2c0 0 0 0 0 0c5.9 1.2 12 2.4 18.3 3.5c6.8 1.2 12 2 15.7 2.5c2.4 .3 4.8 .7 7.2 1.2c0 0 0 0 0 0c3 .6 7.9 1.7 14.6 3.3c7 1.7 17.5 4.3 31.5 7.9c15.7 4.1 29.8 7.1 42.1 9.1c0 0 0 0 0 0c13.3 2.1 25.8 3.3 37.6 3.5h.2l.8 .5c1.8 1.2 8.8 5.1 21.8 9.7c10.1 3.6 24.6 6.9 43.5 9.3c0 0 0 0 0 0l14.3 1.8l2.1 .5c13.5 3.4 26.9 6.9 40.2 10.5c13.6 3.7 23.1 6.2 28.4 7.5c5.3 1.4 12.8 3.3 22.5 5.6c0 0 0 0 0 0c8.7 2.1 18.6 4.9 29.8 8.4c12.3 3.9 28.9 8.8 49.7 14.8c22.1 6.4 38.4 10.5 48.9 12.4c11.4 2.2 17.8 3.1 19 3.2c9.9 .6 17.3-1.7 22.6-4.8l11.7 6.3c10.2 5.4 19.8 9.9 28.9 13.6c0 0 0 0 0 0c9.3 3.7 16.3 6.2 21 7.6c5.7 1.7 10.2 2.8 13.4 3.4c0 0 0 0 0 0c1.5 .3 4.2 1 8 2.1c3.2 1 5.9 1.8 8 2.8c2.7 1.3 5 2.3 6.9 3l3.3 2.1c3.3 2.1 5.8 3.8 7.6 5.2c2.3 1.8 4.5 3.4 6.5 5c2 1.5 4.2 3.3 6.8 5.3c3.2 2.5 8.2 6.1 15.1 10.6c0 0 0 0 0 0c8 5.3 18.6 10.3 32.1 14.5c0 0 0 0 0 0c11.1 3.6 19.7 5.9 25.9 7.1c4.6 .9 8.3 1.7 11.1 2.4c2.6 .6 7.3 2 14.1 4.2c7.5 2.4 17.6 6.4 30.5 11.9c15.3 6.6 33.7 13.5 55.2 20.5c9.5 3.1 19.9 2.4 28.9-2l1.6-0.8c7.4 .9 12.7 .9 15.8 .7l.8-0.1c1.9 0 3.9-0.1 6.2-0.4l1.9-0.2c12.8 0 25.3-6.3 32.7-17.8c11.7-18 6.5-42.2-11.6-53.8c-1.5-1-10.2-7.5-27.4-6c0 0 0 0 0 0l-2.8 .3c-5.5-6.3-13-10.8-21.8-12.5c-6.1-1.2-12.2-0.8-17.8 .7c-18.3-7-32.5-12.5-42.6-16.5c0 0 0 0 0 0c-10-3.9-19.4-8-28.4-12.2c0 0 0 0 0 0c-8.5-4.1-15.8-7.9-22-11.4c-7.4-4.4-16.5-9.4-27.5-15.1c-11-5.7-22.3-11.1-33.7-16c-10.9-4.7-20.3-8.7-28.2-12c-7-2.8-14.4-6.2-22-9.9c-9.1-4.5-16.1-7.9-21.1-10.1c0 0 0 0 0 0c-4.8-2.2-9.2-4.2-13.2-5.9c-3.9-1.8-7.3-3.2-10-4.4c-2.4-1.1-4.8-2.2-7.2-3.3c-2.5-1.2-4.9-2.3-7.2-3.4c-2-0.9-7-3.7-15.1-8.1c-10.2-5.6-21.1-11-32.7-15.9c-10.6-4.6-21.4-9.1-32.4-13.7c-11.3-4.6-20-8.2-26.1-10.5c-7.2-2.8-15-5.3-23.6-7.6c-5.8-1.5-14.8-5.1-26.9-10.4c-15.1-6.6-29.7-12.7-43.8-18.2c-13.6-5.4-23.9-9.4-31-12.2c-8.5-3.3-18.1-6.3-29-9.1c-10-2.5-17.6-4.3-22.6-5.3c0 0 0 0 0 0c-4.3-0.8-11.4-2.4-21.3-4.6c-10.8-2.5-22.6-5.1-35.5-7.7c-13.6-2.8-27.2-5.1-40.9-6.9c0 0 0 0 0 0c-13.7-1.8-23.8-2.9-30.4-3.4c0 0 0 0 0 0c-4.9-0.4-11.8-1.6-20.6-3.5c-11.2-2.5-19.8-4.3-25.8-5.5c-4.5-0.9-12.4-4.1-23.9-8.9c0 0 0 0 0 0c-15.4-6.5-27.2-11.2-35.4-14.3c-5.9-2.2-10.2-4-13-5.5c-3.6-1.9-7.5-3.9-11.5-6.1c-6.6-3.6-12-5.9-16-7.3c0 0 0 0 0 0c-3.2-1-7.1-2.2-12-3.5c-4.7-1.3-9.7-2.5-15.1-3.6c0 0 0 0 0 0c-8.6-1.7-17.1-2.1-25.4-1.1c-6.2 .7-11.6 1.6-16.2 2.7c-5.6 1.3-11.2 3.2-16.7 5.7c-6 2.8-12.1 6.6-18.1 11.6c-7 5.7-11.8 11.6-15.2 17c-3.1 5-5 8.9-6.1 11.7c-1.7 4.2-3.5 10.5-3.8 19.2c-0.3 7.1 .6 13.3 2 18.6Zm977.6 311.1l-0.3 .2c3.1 2.1 9 5 18.1 4.4c-6.1 0-12.2-1.5-17.8-4.6Zm9.4-72.5c8 .1 12.2 1.8 12.8 2c-1-0.4-5.3-2.6-12.9-2.2l.1 .2Zm-1.3-0.1l-0.7 .1l.8-0.1h-0.1Zm-947.3-177.5h-0.1c0 0 0 0 0 0c-1.9 .3-3.9 .4-6 .5c2.2-0.1 4.2-0.2 6.1-0.5Z" fill="#009ef1" transform="translate(1093.3,927.6) scale(1.36,1.36) translate(-825.2,-882.5)" style="animation: 300s linear infinite both b9ckezcs39tphtnvsc1qd0kb_f;"/><path d="M1489.8 940.1c15-0.6 33.4-11.4 33.4-11.4c13.4-14.9 14-35 11.9-42c-0.7-2.3-2.4-9.1-8.1-15.7c-1.2-1.5-2.4-2.9-3.8-4.2c-4.3-4.5-8.9-7.2-13.3-8.8c1.1-6.1 .9-12.5-1.2-19.3c-3.4-11.1-11.3-20.3-21.9-25.3c-8.3-3.9-17.3-7.9-26.8-11.9c0 0 0 0 0-0.1c-9.6-4-20-8.2-31.2-12.4c-10.5-3.9-19.2-7.2-26-9.8c0 0 0 0 0 0c-5.8-2.2-11.2-4.5-16.2-7c-7.5-3.6-16-7-25.7-10.2c-9.6-3.1-19.5-5.5-29.7-7.3c0 0 0 0 0 0c-6-1-11.1-2.2-15.3-3.6c-4.1-1.3-7.8-2.8-11.1-4.3c0 0 0 0 0 0c-3.7-1.7-7.7-3.9-12.3-6.6c-6.2-3.7-12.8-7.5-19.8-11.3c-10.3-5.6-20.3-9.4-30-11.5c-6.7-1.6-12.5-2.7-17.2-3.6c0 0 0 0 0 0c-3.7-0.7-7.5-1.5-11.4-2.4l-1-0.2l-10.2-4.7c-15.9-7.1-28.3-12.6-37.2-16.5c-8.6-3.7-15.7-6.8-21.2-9.2c0 0 0 0 0 0c-5.8-2.6-13.6-6-23.4-10.2c0 0 0 0 0 0c-9.5-4-19.9-8.4-31.1-13.1c-12.6-5.2-29.4-10.5-50.4-15.7c0 0 0 0 0 0l-17-4.3c-4.5-1.6-8.1-3.2-10.9-4.8c0 0 0 0 0 0c-5.2-3-12.1-7.1-20.6-12.1c0 0 0 0 0 0c-9.6-5.6-17-9.8-22.4-12.6c-5.9-3-11.8-5.7-17.6-8.1c0 0 0 0 0 0c-5.4-2.2-12.5-4.8-21.5-7.9c-7.8-2.7-16.6-5.8-26.6-9.5c-8.9-3.3-17.4-6.9-25.6-11c0 0 0 0 0 0c-9.7-4.8-23.9-11.5-42.5-19.9c-22.5-10.3-36.8-15.5-42.6-16.7c-5.3-1.1-12.6-2.4-22.2-3.8c-10.9-1.7-22.2-2.3-33.9-1.8c-8.2 .3-20.3 .1-36.1-0.5c0 0 0 0 0 0c-13.6-0.5-22.9-1-27.9-2.1c-7-1.6-17.4-3.5-31.2-5.4c-14.7-2.1-26.5-3.1-35.5-3.2c-8.5-0.1-15.2 0-20 .2c-2.9 .1-5.5 .2-7.6 .1c-2.6-0.1-6.4-0.5-11.4-1.1c-5.3-0.6-11.7-1.8-19.3-3.4c0 0 0 0 0 0c-13-2.8-22.9-3.8-29.6-3.8c0 0 0 0 0 0c-8.2 .1-15.6 1-22.2 2.7c0 0 0 0 0 0c-7.1 1.7-13.4 4.1-19 7c-23.5 12.2-26.4 30.6-26.7 39c0 2.7 0 5.1 .2 7.2c.5 7.4 2.8 15.3 8.3 23.1c1.4 2.1 4 5.4 8.1 9.4c3.9 4 9.5 8.3 17.1 12.4c0 0 0 0 0 0c6.3 3.4 12.9 5.9 19.7 7.6c0 0 0 0 0 0c3.1 .7 7.9 2.1 14.4 4c0 0 0 0 0 0c8.4 2.5 17.5 4.7 27.5 6.8c0 0 0 0 0 0c10 2 17.5 3.3 22.3 3.9c4.9 .6 11.5 1.2 19.9 1.7c7.2 .4 14.3 .8 21.2 1.2c7.5 .5 18.2 .7 32.2 .8c12.1 0 22.6 .3 31.5 .8c0 0 0 0 0 0c6.8 .4 13.3 1.4 19.5 3.1c0 0 0 0 0 0c9.3 2.4 20.4 5.1 33.1 7.8c12.3 2.7 20.7 4.5 25.5 5.4c4.6 1 9.7 2.1 15.3 3.4c5.8 1.2 9.9 2.2 12.5 2.8c2.3 .5 6.2 1.5 11.7 3.1c0 0 0 0 0 0c6.6 1.9 16.1 4.4 28.3 7.5c12.3 3.2 26.6 6.4 42.7 9.6c14.6 3 28.5 6.1 41.6 9.5c12.8 3.2 20.9 5.4 24.3 6.4c3.6 1.1 8.4 2.6 14.3 4.5c0 0 0 0 0 0c6.4 2 16.6 4.8 30.6 8.5c8 2.2 17.1 4.5 27.1 7.1l1 .3c0 0 0 0 0 0c10.5 3.7 20.1 6.6 28.6 8.9c7.2 1.9 12.6 3.4 16.2 4.4c3.8 1.1 9.2 2.7 16.3 4.7l1.6 .5l5.2 2.2c3.1 1.4 6.6 3.3 10.5 5.6c0 0 0 0 0 0c8.7 4.9 15.5 9.2 20.2 12.8c0 0 0 0 0 0c8.4 6.5 18.4 12.2 29.8 16.9c9.7 4 19.5 7.3 29.6 9.8c8.3 2.1 15.6 3.9 21.8 5.3l6.6 1.6c6.2 2.9 11.2 5.4 15.2 7.6c6.9 3.9 14.1 8.2 21.6 13c0 0 0 0 0 0c8.4 5.4 14.9 9.6 19.5 12.5c4.7 3 12.1 7.4 22.2 13.3c0 0 0 0 0 0c9.7 5.6 20.7 11.8 33.1 18.5c0 0 0 0 0 0c10.8 5.8 17.5 9.5 20.1 11.2c3 1.8 7.6 4.7 14 8.5c6.2 3.8 13 7.8 20.5 12.2c0 0 0 0 0 0c8 4.8 15 8.7 20.7 11.7c0 0 0 0 0 0c5 2.5 11.9 6.3 20.8 11.3c9.3 5.2 17.6 9.9 25 14.1c0 0 0 0 0 0c11.9 6.8 22 10.8 30.1 12.6c6.6 1.6 13 2.7 19.2 3.4c6.7 .8 13.9 1.1 21.8 .8Zm36.5-69.7l-0.5-0.6l.3 .3l.9 .9c3.3 4.3 5.8 9.3 7.2 14.7c-0.6-2-1.4-4.1-2.5-6.2c-1.2-2.8-2.7-5.2-4.1-7.4h-0.1l-0.2-0.3l-1-1.4Zm-0.5-0.7c-3.7-3.8-9.6-6.8-6.5-4.6c4.8 3.4 10.4 8.7 13.9 18c0 0 0 0 0 0c-0.5-1.3-0.9-2.5-1.5-3.6l-0.9-2l-1-1.9c-0.4-0.6-0.8-1.2-1.2-1.8l-1-1.7l-0.3-0.3l-1-1.4l-0.5-0.7Zm-1-1.2l.8 1.1l-0.5-0.7l-0.3-0.4Zm-13.4-9.8c0 0-2.2-0.9-1.5-0.7l2.3 1.1c4 1.9 7.6 4.4 10.7 7.4l1.3 1.4l-0.3-0.4l-0.6-0.7l-0.4-0.3c-4.1-4.1-11.5-7.8-11.5-7.8Z" fill="#009ef1" transform="translate(1295.7,746.2) scale(1.36,1.36) translate(-992.9,-740.1)" style="animation: 300s linear infinite both ze5t4ju6t46gtpagj5k2dn84_f;"/><path d="M1005.7 525.7l12 15.5c9.2 6.5 5 6.4 26 12c0 0 15 5.5 15 5.5c15.7 4.2 22.3 9 30.8 10.9c7.5 1.6 11.4 9.7 15 10.6c3.1 .8 10.7-0.3 14.2 .4c3.7 1.7 4.6-1.6 7.8 0c0 0 0 9.7 0 9.7c6.4 3.3 19.8 4.1 28.2 9.3c9.6 5.8 15.6 6.7 27 13.5c11.3 6.8 18.8 11.3 25.2 15.1c0 0 0 0 0 0c6.1 3.6 18.5-1.8 23.8 1.6c5.9 3.8 10.5 10.1 16 13.6c4.7 2.9 2.2-2.7 6 0c0 0 5.4 6.2 5.4 6.2c4 2.9 8.9 8.2 16.2 13.6c7.3 5.4 18 8.3 22.9 12.2c6 4.9 12.4 7.9 15 9.8c2.3 1.6 9.3 4.4 14.1 7.7c0 0 0 0 0 0c4.7 3.2 16.7 11.2 26.3 17.6c8.4 5.7 9.8 10.1 16.9 15.7c0 0 0 0 0 0c8 6.2 8.8 8.8 14.3 12.4l14.7 9.6c6.4 6.2 14.2 8.3 20.7 13c6.9 5.1 12.5 10 37.5 17.3c8.5 2.5 10.2 12.7 18.3 9.6l.9 .2c13.1 2.2 20.5 2.4 22.1 2.3c15.6-1 23.2-8.7 26.6-12.1c10.3-10.5 14.1-25.8 9.9-39.9c-4.1-14.1-15.6-24.9-30-28.1c-2.5-0.6-5.1-0.9-7.6-1c-1.7-0.3-4.9-0.7-7.7-1.2c0 0 0 0 0 0c-3-0.5-6.2-1.3-9.5-2.3c-3.6-1.8-7.5-3.2-11.5-3.9l-0.5-0.2c0 0 0 0 0 0c-9.3-3.6-6.2 6.6-11 4.1c-6.7-3.4-7-2.2-11-3.9c-0.8-0.4-14.2-8.7-15.2-9.2l-11.3-9.1c-9.2-8.9-4.9-4.5-9.5-8.4c0 0-11.2-12.2-11.2-12.2c-4.1-3.5-9-8.6-14.7-13.6c-5-4.4-9.7-9.8-14.3-14.4c-5.5-5.6-11.2-3.2-16.9-8.7c-6.2-5.9-4.1-10.2-7.9-13.4c0 0-7 0-7 0c-3.8-3.2-7.6-10.6-11.4-13.5c-4-3.1-15.1-5.6-20.6-9.3c-5.2-3.5-19.1-7.1-24-10.1c-5.1-3.1 2.7-16.8-7.4-21.5c-7.9-3.7-19.4-9.6-34.4-17.5c-14.7-7.7-24.3-12.9-28.7-15.5c-5.9-3.5-12.8-7-20.6-10.5c0 0 0 0 0 0c-7.1-3.1-15.9-6.5-26.5-10.2c0 0 0 0 0 0c-9.3-3.2-3.6 11.6-9.4 10.2l-19-10.2c-10.4-4.3-5.9-3.7-17-6.9c0 0-7-2-7-2c-9.7-2.8-26.2-9.7-32-11.2c-5.4-1.4-20.2-12.7-47.4-20.9l.1 .3c-7.3-2.2-12.5-2.2-14.7-2.1c-9.4 .8-16.5 4.2-22 8.5c-12 9.3-17.8 24.5-15 39.4c2.6 14.2 11.5 10.7 25 15.6Zm498.8 184.8h.1c0 0-0.1 0-0.1 0Z" fill="#009ef1" transform="translate(1656.2,591.6) scale(1.36,1.36) translate(-1258.1,-626.5)" style="animation: 300s linear infinite both n96ow4hjo7zl972lzrey6x28_f;"/><path d="M632.2 502.2c-0.4 .4-0.8 .8-1.2 1.2c-3.2 3.1-6.2 5.7-9 7.9c0 0 0 0 0 0c-5.4 4-16.1 13.1-31.9 27.3c0 0 0 0 0 0c-14.4 13-25.3 23-32.7 30.1c-7.2 7-12.9 12.5-17.1 16.6c-4.3 4.3-11.1 11.1-20.2 20.6c-6.6 6.9-12.3 12.3-17.2 16.3c-7.5 6.2-14.6 12.5-21.4 18.9c0 0 0 0 0 0c-8.2 7.8-14 14-17.7 18.6c-2.6 3.1-7.2 8.7-13.8 16.7c-6.2 7.6-11.7 14.2-16.7 20c0 0 0 0 0 0c-5.6 6.5-12 14.2-19.1 23c-5.3 6.5-10.7 12.5-16.2 18.1c-6.1 6.1-10.8 10.6-14.2 13.7c-2.3 2.1-5.2 4.2-8.7 6.6c-5.9 4.2-10.6 7.5-14.1 9.9c-3.3 2.4-7.1 5-11.4 8l-10.9 7.6c-4.5 2.2-11 5.9-19 11.5c-7.5 5.3-13.2 9.7-17.1 13.2c-4 3.6-7.3 6.7-9.9 9.4c-3 3.1-7 7.7-11.8 14.1c0 0 0 0 0 0c-4.1 5.6-7.5 10.7-10.2 15.3l-4 6.7c-100.8-13.5-140.1 7.8-136.1 37.3c-16 28.5 20.4 67 144.5 91.2c4.5 1.3 9.6 2.2 15 2.5c17.6 1.4 34.4-4.7 47-16l.8-0.7l2.1-2l2-2.2l.3-0.3c11-12.3 19.8-24.3 26.5-35.7c4.9-8.2 8.2-13.8 9.9-16.7c0 0 0 0 0 0c.7-1.3 1.8-2.7 2.9-4.3c.6-0.7 1-1.4 1.4-1.8c.7-0.8 1.7-1.7 2.9-2.7c0 0 0 0 0 0c1.3-1.2 3.4-2.6 6-4.5l2.6-1.7c4.4-2.1 9.8-5.2 15.8-9.4c3.1-2.1 6.8-4.7 11.1-7.7c4.4-3.1 8.3-5.8 11.8-8.2c0 0 0 0 0 0c3.4-2.4 8-5.7 13.9-9.8c0 0 0 0 0 0c8.4-5.8 15.3-11.3 20.9-16.4c0 0 0 0 0 0c4.5-4 10.8-10 18.8-18.1c8.6-8.6 17-17.9 25-27.9c6.2-7.6 11.7-14.3 16.6-19.9c5.6-6.5 11.8-13.9 18.8-22.4c6.6-8 11.1-13.6 13.7-16.7c1.5-1.8 3.9-4.1 7.1-7.1c4.6-4.4 9.5-8.8 14.7-13c0 0 0 0 0 0c7.9-6.5 17.2-15.1 27.8-26.2c0 0 0 0 0 0c8.1-8.4 14-14.4 17.9-18.2c3.9-3.9 9.3-9.1 16.1-15.6c0 0 0 0 0 0c6.7-6.4 16.5-15.5 29.6-27.3c11.8-10.5 19.5-17.4 23.6-20.4l.4-0.3c1.2 2.9 2.6 6.1 4.1 9.7c4.1 9.8 8.1 18.8 11.9 27.1c3.8 8.2 8.1 17.1 12.9 26.7c4.4 9 7.9 15.9 10.3 20.7c3.2 6.5 6.5 12.5 9.9 18c1.7 2.8 3.9 8.1 7.2 15.7c4.3 9.9 7.5 17.7 9.5 23.2c0 0 0 0 0 0c2.3 6.5 4.5 12.4 6.6 17.6c0 0 0 0 0 0c1.8 4.9 4.2 11.1 7 18.6c0 0 0 .1 0 .1c2.7 7.1 5.8 16 9.2 26.4c0 0 0 0 0 0c3.7 10.9 7.6 23.2 11.9 36.9c0 0 0 0 0 0c4.7 14.8 8.4 26 11.1 33.5c0 0 0 0 0 0c2.5 7.1 5.4 15.2 8.7 24.4c2.9 8.3 5.1 14.6 6.5 19.1c1.8 5.8 4.4 13.4 7.9 22.8c3.5 9.2 6.3 16.4 8.6 21.6c.7 1.7 1.3 2.8 1.5 3.6c.9 3 4.5 12.7 11.7 28.9c5.8 13.1 11.6 25.6 17.5 37.3c4.5 8.9 8 16.3 10.4 22.4l3.2 8.3c.7 1.8 1.3 3.7 2 5.5c0 0 0 0 0 0c1.1 3.3 2.4 6.3 3.8 9.1l.6 1.6l.1-0.2c13.1 26.4 32.2 32.7 34.4 33.5c21.3 7.5 45.1 1.9 60.8-14.3c15.8-16.3 20.5-40.3 12.2-61.4l-5.1-13c-0.9-2.9-1.8-5.7-2.6-8.5c-1.9-6.6-3.4-11.4-4.3-14.4c-2.7-8.4-7.2-15.8-12.8-21.8c-4.9-9.7-9.7-20-14.5-30.8c0 0 0 0 0 0c-3.3-7.5-6.5-15.2-7-16.5c-1.2-3.6-3-8.5-5.6-14.7c0 0 0 0 0 0c-1.8-4-3.9-9.6-6.6-16.7c0 0 0 0 0 0c-2.6-6.9-4.5-12.4-5.8-16.6c0 0 0 0 0 0c-1.8-5.5-4.4-13.4-8-23.6c0 0 0 0 0 0c-3.3-9.1-6.2-17.2-8.7-24.3c-2.3-6.6-5.6-16.5-9.7-29.6c-4.5-14.3-8.7-27.2-12.5-38.6c-4-12-7.5-22.2-10.6-30.5c-3-7.9-5.5-14.4-7.4-19.5c-1.8-4.8-3.8-10.1-6-15.9c-2.5-6.9-6.4-16.7-11.8-29.2c-6.4-14.9-11.6-25-14.9-30.5c-1.7-2.7-3.3-5.7-4.9-8.8c0 0 0 0 0 0c-2.4-4.9-5.8-11.9-10.4-21c0 0 0 0 0 0c-4.2-8.5-8-16.3-11.3-23.5c0 0 0 0 0 0c-3.3-7.2-6.8-15-10.3-23.4c0 0 0 0 0 0c-4.2-10-7.6-17.9-10.3-23.7c-3.3-7.1-7.5-15-12.8-23.6l-1-1.7c3.1-3.1 5.9-5.9 8.1-8.2c0 0 0 0 0 0c5.1-5.2 11.3-11 18.7-17.4c0 0 0 0 0 0c7.8-6.9 13.4-11.7 16.8-14.4c0 0 0 0 0 0c3.4-2.7 8-6.3 14-10.8c0 0 0 0 0 0c4.9-3.6 8.6-6.4 11.3-8c0 0 0 0 0 0c4-2.6 9.7-6.4 17.2-11.5c6.2-4.2 12.6-8.4 18.9-12.5c7.1-4.5 15.1-9.7 24.2-15.7c6.5-4.2 11.8-7.5 15.9-9.7c4.6-2.4 8.2-4.2 10.9-5.5c4.5-2.1 8.8-4.3 12.9-6.6l4.3-2.5c9.2-0.1 14.7-2.1 16.3-2.5c30.2-9 40.3-30 43.8-48.5c6.5-34.1-15.9-67-49.9-73.5l-0.9-0.1c-10.7-2.9-19.3-3.2-25.5-2.9c-6.1 .4-20.8 2.4-40.2 14.8c-3.7 2.3-6.6 4.1-8.7 5.3c-1.9 1-3.8 2-5.7 2.9c-3.8 1.8-8.9 4.3-15.3 7.7c-6.9 3.6-15.9 8.9-26.9 16.2c0 0-0.1 0-0.1 0c-8.5 5.6-16.1 10.5-22.8 14.8c-7.3 4.7-14.6 9.5-21.9 14.4c0 0 0 0 0 0c-6 4.2-10.7 7.2-13.9 9.3c-4.5 2.9-11 7.4-19.4 13.7c-7.3 5.5-13 9.9-17.2 13.3c-4.2 3.4-11.2 9.3-20.9 17.8c-5.1 4.4-9.8 8.7-14.1 12.7c-3.7-4.8-7.2-9.3-10.5-13.4c-3.2-4-8-10.2-14.3-18.6c0 0 0 0 0 0c-7-9.3-14.3-18.6-21.7-28c0 0 0 0 0 0c-7.7-9.7-16.4-20.2-26-31.4c-10.2-11.7-17.7-20-22.5-24.9c-4.4-4.5-11-11.2-19.7-20c-7.4-7.5-13.8-14.4-19.3-20.8c-8.1-9.6-14.9-16.9-20.4-22.1c-3.8-3.6-9.2-9-16.3-16.3c0 0 0 0 0 0c-6.3-6.5-11.4-12.2-15.2-17.1c0 0 0 0 0 0c-4.5-5.7-8.4-10.2-11.6-13.5c-4.2-22.1-21.1-39.6-42.6-44.9l-3.1-1.2c-4.2-1.6-6.7-2.1-7.1-2.2c-6.5-1.7-11.5-1.8-14.9-1.8c-33.3 .5-46.4 20.7-52.7 36c-1 2.5-16.6 39.9 16.1 66c3.4 6.1 6.8 11.4 10.2 15.8c3.9 5 7.4 8.9 10.3 11.7l4.3 5.3c6 7.6 13.6 16.4 23.2 26.2c8.7 9.1 15.5 15.8 20.2 20.2c3 2.9 6.8 7.1 11.3 12.5c0 0 0 0 0 0c7.2 8.5 15.7 17.7 25.5 27.6c0 0 0 0 0 0c8.5 8.6 14.9 15 19.1 19.4c0 0 0 0 0 0c3.9 3.9 9.7 10.5 17.7 19.7c0 0 0 0 0 0c8.5 9.8 16.1 18.9 22.8 27.4c6.9 8.8 13.7 17.6 20.2 26.2c7.2 9.5 12.7 16.6 16.3 21.1c3.2 4 6.6 8.4 10.2 13.1c3.2 4.1 5.8 7.6 8.1 10.3Zm-352.5 480.7h-0.1h.1Zm59.2-199.7c.7-0.4 1.4-0.8 2-1c.6-0.3 1.2-0.5 1.7-0.7l-3.7 1.7Z" fill="#38ac54" transform="translate(735,656.9) scale(1.36,1.36) translate(-573.1,-635.2)" style="animation: 300s linear infinite both t546y8395cfnezbnabmrk33x_f;"/><path d="M1239 343.6c-4.5-0.2-8.6-0.3-12.3-0.2c-12.7 .2-22 3.4-28.5 7.5c-3.6 2.2-7.9 5.3-12.9 9.3c0 0 0 0 0 0c-8.2 6.6-13.9 14.3-17.4 22.7c0 0 0 0 0 0c-2.4 5.8-4.4 13.1-5.8 22.2c-0.9 5.6-1.7 13-2.4 22.2c-0.5 1.7-0.9 3.2-1.3 4.8c0 0 0 0 0 0c-1.1 5.1-2.2 11.1-3.3 17.9c-1.2 8.2-1.7 16.8-1.2 26c0 0 0 0 0 0c.5 10.3 2.1 18.9 4.4 25.7c1.5 4.3 3.2 10 5.3 17.1c2.2 7.3 4 13.9 5.6 20c0 0 0 0 0 0c3 11.2 6.7 18.7 9.6 22.9c1.4 2 2.9 4.3 4.7 7.1c2.3 3.8 3.7 6 4.1 6.6c0 0 0 0 0 0c.7 1 1.7 2.5 3.2 4.4c1.8 2.4 3.2 3.9 4 4.7c2.2 2.2 7.3 6.9 17.6 9.4c1.9 .5 4.2 1 6.9 1.6c0 0 0 0 0 0c5.5 1.1 12.3 1.4 20.4-0.2c1.5-0.3 3-0.7 4.5-1.1c4.2 2 8 3.4 11.3 4.2c0 0 .1 0 .1 0c5.5 1.5 11.6 2.6 18.2 3.4c0 0 0 0 0 0c4.7 .6 8.6 1.2 11.7 1.7c5.6 .9 11.5 1.2 17.9 .9c8.7-0.6 16.4-2.8 23.3-6.5c5.9-3.1 11.7-7.5 17.1-13.3c3.3-3.5 7.2-8 11.6-13.4c5.1-6.3 9.1-12.1 12-17.2c3.5-6.2 6.2-13.1 8-20.8c1.3-5.5 2.6-13.1 3.8-22.7c0 0 0 0 0 0c1-8.7 1.8-16.9 2.3-24.7c.7-9.9 .6-17.3 0-22.3c-0.9-7-2.5-13-4.6-18.1c0 0 0 0 0 0c-1.5-3.5-3.2-7.1-5.2-10.8c0 0 0 0 0 0c-1.2-2.4-2.3-4.5-3.2-6.5c0-0.1 0-0.1 0-0.1c-0.8-1.7-1.6-3.8-2.5-6.4c0 0 0 0 0 0c-1.7-4.9-4.2-10.8-7.8-17.6c0 0 0 0 0 0c-0.6-1.1-1.2-2.2-1.8-3.3l-1.5-4c-4-10.1-8-16.3-10.7-19.4c-1.9-2.3-4-4.5-6.1-6.6c-0.1 0-0.1 0-0.1 0c-3.3-3.3-6.9-6.1-10.9-8.5l-6.4-3.9c-3.1-1.9-8.4-4.5-15.9-7.7c-6.9-2.9-13.7-4.6-20.2-5.3c-3.5-1.3-5.8-2.2-6.9-2.6c-3.2-1.3-7.7-2.5-13.5-3.2c-9.7-1.2-16.8 .6-21.6 2.6l-3.6 1.5Z" fill="#e8afd8" transform="translate(1669.5,381.2) scale(1.36,1.36) translate(-1267.8,-471.8)" style="animation: 300s linear infinite both wm7xojxzumhat5rqqbzy1h0q_f;"/><path d="M1172.8 345.1l-0.5 .2c-6.5 2.3-11.2 5.9-14.6 10c-0.9 1.1-2.2 2.7-3.8 4.8c-1.7 2.3-3.5 4.7-5.3 7.5c-1.3 2.1-3.1 4.8-5.3 8.1c-2 3-3.6 5.4-4.7 7c-1.5 2.1-3.6 5.4-6.3 9.7c0 0 0 0 0 0c-3.6 6.1-6 11.6-7.3 16.5c0 0 0 0 0 0c-1 3.6-1.5 5.7-1.6 6.1c-0.2 .7-0.5 2.1-0.8 4.1c-0.3 2.2-0.5 5.2-0.4 8.9c0 0 0 0 0 0c.1 6.3 1.5 11.6 3.7 15.9c.3 .6 .6 1.5 1 2.7c1.3 3.7 2.1 6 2.5 6.8c0 0 0 0 0 .1c.5 .9 1.3 2.6 2.6 4.9l.1 .5c0 0 0 0 0 0c0 .6 0 1.5 0 2.6c0 .6-0.1 1.2-0.1 1.8c-0.5 1.5-1 3.2-1.4 5c0 0 0 0 0 0c-0.7 2.7-1.2 5.7-1.4 9.1c-0.3 3.4-0.3 7 0 10.7c.3 3 .6 5.7 1.1 8.1c.4 2.3 .9 4.3 1.5 5.9l.1 .9c0 0 0-0.1 0-0.1c.1 .7 .3 1.8 .5 3.2c.3 1.9 1 4.8 2.4 8.9c1.4 4.3 2.8 7.4 3.8 9.2c0 0-4.2-0.8-6-1.1c-0.6-0.1-1.4-0.3-2.4-0.6c-0.7-0.1-1.3-0.2-1.6-0.4c-0.3-0.1-0.6-0.2-0.8-0.4c0 0 0 0 0 0c-1.5-0.8-3.3-1.6-5.4-2.5c-1.6-0.7-2.8-1.2-3.7-1.6c0 0 0 0 0 0c-1.1-0.4-2.2-0.8-3.5-1.2c-1-0.3-1.9-0.6-2.6-0.8c-0.8-0.3-1.6-0.5-2.1-0.6c-0.2-0.1-0.5-0.1-0.9-0.2c-0.5-0.2-1.2-0.4-1.8-0.5c-0.2-0.1-0.5-0.2-0.7-0.2c-0.8-0.3-1.4-0.4-1.8-0.6c-0.9-0.2-2.2-0.5-4.2-0.8c0 0 0 0 0 0c-0.8-0.1-1.6-0.2-2.1-0.3c0 0 0 0 0 0c-1-0.1-2-0.2-3.1-0.2c-2.3-0.3-5.2-0.3-8.7 .2c-8.2 1.4-17.1 5.7-22.1 18.3c0 0 0 0 0 0c-6.4 16.3 2.7 26.1 3.7 27.4c4.8 6 11 9.7 18.7 9.9l3.6 1.1c1.6 .5 3 .9 4.2 1.3c4.4 1.3 8.9 1.5 13.1 .6c1.9 .8 4.5 1.7 7.8 2.6c0 0 0 0 0 0c3.1 .8 5.7 1.4 7.9 1.7l1.2 .5c0 0 0 0 0 0c2.6 .9 6.6 2.2 12.1 3.9c0 0 0 0 0 0c5.2 1.6 10.8 3.3 16.9 5c5.6 1.5 9.5 2.6 11.4 3.1c2.2 .6 4.6 1.2 7.2 1.9c0 0 0 0 0 0l1.9 .4l.6 3.1c.2 .8 .3 1.5 .4 2.1c.2 1.1 .3 2 .4 2.7c.1 .5 .2 1.1 .3 1.8c.3 2.4 .9 5.1 1.8 8c0 0 0 0 0 0c.7 2.2 1.6 4.6 2.7 7c2 10.2 6.7 14.6 7.5 15.5c9.1 9.3 18.7 9.2 26.5 7c.5-0.2 1.1-0.4 1.6-0.6c12.2-4.5 17.1-9.7 17.4-10c4.8-5.6 6-11.1 6.3-15.1c.5-5-0.4-9.6-2.4-13.8l2.1 .7c0 0 0 0 0 0c5.1 1.5 10 2 14.7 1.8c2.5-0.2 4.8-0.3 7.2-0.6c0 0 0 0 0 0c2.2-0.2 5.5-0.7 9.8-1.4c6.1-1 11.5-2.7 16.3-4.9c0 0 0 0 0 0c4.3-2 8.3-4.3 12-6.9c2.9-2 5.9-4.3 9.2-7c2.2-1.7 3.9-3.1 5.4-4.1c1.1-0.8 2.6-1.6 4.3-2.6c4.5-2.4 8.4-5 11.6-7.7c3.3-2.8 6.4-6.1 9.3-9.8c0 0 0 0 0 0c1.3-1.6 2.5-3.1 3.7-4.4c0 0 0 0 0 0c1.1-1.4 2.4-2.6 3.6-3.9c1.3-1.3 2.3-2.2 3-2.8c0 0 0 0 0 0c1.2-1.1 2.2-2.1 2.9-2.8c.5-0.5 1.2-1.2 2.2-2.1c1.3-1.2 2.9-2.9 5-5.1c1.8-2.1 3.9-4.5 6.2-7.3c0 0 0 0 0 0c2-2.5 3.6-4.5 4.8-6.1c0 0 0 0 0 0c.9-1.1 2.3-2.6 4.2-4.7c0 0 0 0 0 0c2.5-2.8 4.6-5 6.1-6.6c2.7-2.9 5-6 7.1-9.2c0 0 0 0 0 0c2.7-4.5 4.6-9.1 5.8-13.9c0 0 0 0 0 0c.5-2.5 1.1-5.6 1.7-9.4c.4-2.1 .7-3.8 1-5c.6-2.8 1.1-5.7 1.4-8.5c.3-2.6 .5-6.2 .3-10.9c0 0 0 0 0 0c-0.1-3 0-7.4 0-13.2c0 0 0 0 0 0c.1-7.4 0-13.1-0.3-17.1c-0.5-5.2-1.1-9.3-1.8-12.2c0 0 0 0 0 0c-0.7-2.9-1.5-5.7-2.4-8.4c0 0 0 0 0 0c-0.9-2.3-2-5.1-3.4-8.4c-1.1-2.4-2.4-5.5-3.9-9.1c0 0 0 0 0 0c-2.4-5.7-4.9-10.5-7.4-14.2c0 0 0 0 0 0c-4.2-6.2-8.4-10.1-11.7-12.3c-1.8-1.2-3.8-2.5-6.1-3.8c-2-1.2-4.6-2.5-7.7-4.1c0 0 0 0 0 0c-3.5-1.7-6.7-3.2-9.7-4.3c0 0 0 0 0 0c-2.6-0.9-4.6-1.6-6.2-2.1c-0.9-0.3-2.2-0.8-3.8-1.4c-2.3-0.8-4.1-1.5-5.4-2c-2.3-0.8-5.3-1.7-8.9-2.4c-2.4-0.4-5.5-1-9.3-1.5c-1.3-0.2-3-0.6-3.2-0.6c-2.3-0.7-5.5-1.6-9.6-2.4c-4.8-0.9-9-1.3-12.7-1.3c-1.3-0.1-2.8-0.2-4.6-0.5c-3.3-0.5-5.4-0.8-6.4-1c-1.8-0.2-4.2-0.4-7.2-0.4c-2-0.1-3.9 0-5.6 0c0 0 0 0 0 0c-1 0-1.8 .1-2.5 .1c0 0 0 0 0 0c-0.5 0-1.2-0.2-2.2-0.3c-2.4-0.3-5.5-0.7-9.5-1.2c-7.7-1-13-0.7-15.8-0.2c-0.3 0-0.6 0-0.9 0c0 0 0 0 0 0c-1.4 .1-3.5 .1-6.2 .1c-4.4 0-8.5 .3-12.3 .8c-4.2 .6-8.4 1.7-12.9 3.1c-3.6 1.3-6.8 2.4-9.4 3.6c0 0 0 0 0 0c-2.9 1.2-5.2 2.3-7 3.3c-1.6 .8-3.8 2.1-6.5 3.7c-1.5 .9-2.6 1.6-3.5 2.2Zm-89.3 221.9c.3 .1 .7 .2 1 .3l.8 .1l-0.2-0.1c-0.7-0.1-1.4-0.2-2.1-0.4l.5 .1Zm6.3-2.3h.2h-0.2Zm148.3-184c-2.1 .3-4.1 .5-6.2 .5c-1.7 .1-4.2 .1-7.5 .1c-1.7 0-3.2 .1-4.7 .3c0 0 0 0 0 0c-1.2 .2-2.4 .5-3.7 .9c0 0 0 0 0 0c-2.1 .7-3.8 1.3-5.3 2c-1.2 .5-2.2 1-3 1.4c-1 .5-2.3 1.3-4 2.3c0 0 0 0 0 0c-1.5 .9-2.4 1.4-2.7 1.6c-1.3 .9-3.1 2-5.4 3.1c0 0 0 0 0 0l-0.2 .1c-0.8 1-1.6 2.2-2.5 3.5c0 0 0 0 0 0c-1.4 2.2-3.2 5-5.5 8.4c0 0 0 0 0 0c-2.4 3.6-4.2 6.3-5.6 8.3c0 0 0 0 0 0c-1 1.4-2.4 3.6-4.1 6.5c-0.8 1.3-1.4 2.3-1.7 3.3l-0.6 2.2c.4 1.2 .9 2.6 1.5 4.1l.7 2.2l.4 .6c0 0 0 0 0 0c1.7 2.9 3.2 5.9 4.4 9.1c2.1 5.6 2.7 10.5 2.6 14.8c-0.1 .7-0.1 1.2-0.1 1.6c.1 1.1 .1 2.5 0 4.3c0 0 0 .1 0 .1c0 2-0.1 4.2-0.2 6.5c0 0 0 0 0 0c-0.4 4.4-1.3 8.1-2.4 11.1c-0.1 .3-0.2 .7-0.3 1.1c-0.1 .4-0.1 .8-0.1 1.2c0 0 0 0 0 0c-0.1 .5-0.1 .9 0 1.4c.1 1.2 .2 2.3 .4 3.3l.2 .5c.2 .5 .6 1.8 1 4.1l.3 1.6c.3 1.3 .5 2.4 .6 3.4c0 0 0 0 0 0l.1 .6l.5 1.6c0 0 0 0 0 0l.4 1.2l1 1.7c.6 .7 1.3 1.5 2.1 2.6c0 0 0 0 0 0c.6 .8 1.2 1.6 1.7 2.4l-0.3-0.4c.3 .5 .6 1 .9 1.5c0 0 0 0 .1 0c.3 .5 .6 1.1 .9 1.7c.1 .1 .1 .1 .1 .1c.3 .5 .6 1 .9 1.6c0 .1 0 .1 0 .1c.3 .6 .8 1.7 1.5 3.3c.2 .5 .5 1 .7 1.5c.9 1.9 1.7 4 2.5 6.5c0 0 0 0 0 0c.3 .9 .6 2 1 3.1c0 0 0 0 0 0c.1 .6 .5 1.4 1.1 2.5v.2c1.1 1.2 1.6 2.1 1.8 2.4l1.6 2.7c1.6 3.3 2.5 5.2 2.8 5.6l.9 1.7l1.3 .1c4 .3 8.1 .7 12.3 1.2c4.5 .6 7.7 1.1 9.7 1.4c1 .2 2.2 .3 3.6 .4c0 0 0 0 0 0c2.9 .2 5.2 .4 6.8 .6c3.7 .3 7.3 1.2 10.8 2.5c.7 .2 1.5 .5 2.4 .7c.9 0 1.8-0.1 2.8-0.2c1.5-0.2 3.7-0.5 6.6-1c1.1-0.2 2.1-0.4 3-0.8c1.3-0.6 2.5-1.2 3.5-2c.1 0 .1 0 .1 0c1.9-1.4 4-3 6.3-4.9c0 0 0 0 0 0c3.4-2.7 6.3-4.9 8.5-6.4c0 0 0 0 0 0c2.5-1.8 5.6-3.7 9.4-5.7c1-0.5 1.9-1.1 2.6-1.7c0 0 0 0 0 0c.6-0.5 1.1-1 1.6-1.7c2-2.6 4-5 5.9-7.2c2-2.1 3.9-4.2 6-6.3c2-2 3.6-3.5 4.7-4.5c.6-0.5 1.1-1 1.4-1.3c.6-0.6 1.4-1.4 2.5-2.4c.7-0.6 1.5-1.6 2.6-2.7c1.3-1.4 2.7-3 4.2-4.9c1.8-2.3 3.2-4.1 4.3-5.4c1.4-1.8 3.7-4.5 6.9-7.9c2.6-2.8 4.6-5.1 6.2-6.8l.4-0.5c.3-1.2 .5-2.6 .8-4.2c0 0 0 0 0 0c.6-3.9 1.2-6.9 1.7-9.1c.2-0.6 .3-1.2 .4-1.8c0 0 0 0 0 0c0-0.9 0-2.2 0-3.9c-0.1-3.4-0.2-8.5-0.1-15.3c.1-5.3 .1-9.3-0.2-12.2c0 0 0 0 0 0c-0.1-1.8-0.2-3.2-0.5-4.2c-0.2-1-0.5-2-0.8-2.9c-0.5-1.3-1.1-2.9-1.9-4.8c0 0 0 0 0 0c-1.2-2.7-2.7-6.1-4.4-10.2c-0.6-1.6-1.3-3.1-2-4.2l-0.8-0.5c-1.3-0.8-3-1.6-4.9-2.6c-1.6-0.8-3-1.4-4.3-1.9c-1.8-0.7-3.2-1.2-4.2-1.5c0 0 0 0 0 0c-1.6-0.5-3.7-1.3-6.2-2.2c-1.9-0.7-3.5-1.3-4.7-1.7c-0.3-0.2-0.7-0.2-1.1-0.3c0 0 0 0 0 0c-1.8-0.3-4.1-0.7-6.9-1.1c-5.6-0.8-9.5-1.8-11.9-2.7c-0.7-0.2-1.8-0.4-3.1-0.6c-1.3-0.3-2.3-0.4-3.3-0.5c-3.3 0-7.3-0.3-11.9-1c0 0 0 0 0 0c-3-0.5-5-0.8-5.9-0.9c0 0 0 0 0 0c-0.1 0-0.2 .1-0.4 .1c0-0.1 0-0.1 0-0.1c-1.1 0-2.2 0-3.2 .1c-1.9 0-3.5 .1-4.8 .1c-1.6-0.1-4.3-0.2-8-0.7c0 0 0 0-0.1 0c-2.4-0.3-5.6-0.7-9.7-1.2c-0.9-0.1-2-0.2-2.6-0.3Zm-172.7 150.4l-0.1 .3l.7-1.6l-0.6 1.3Zm66.4-28.8c.2 .8 .4 1.3 .5 1.5c0 .1 .1 .2 .2 .4c.8 2.4 1.8 3.7 2.1 4.2c-0.2-0.3-1.5-2.2-2.8-6.1Zm54.9-0.5c.6 .8 .9 1.3 1.1 1.6v-0.1l-0.1-0.1l-0.5-0.7l-0.5-0.7Zm-1-0.9l.3 .3l-0.3-0.3Zm-10.7-74.3v.1c0 0 0 .1 0 .3v-0.4Zm161.6-26.1c.6 .5 1.3 .8 1.8 1.1c-0.6-0.4-1.2-0.8-1.8-1.1Zm-164.4-55c-0.4 .2-0.8 .5-1.1 .7l1.1-0.7Z" fill="#4a4745" transform="translate(1619.2,382.3) scale(1.36,1.36) translate(-1230.8,-475.6)" style="animation: 300s linear infinite both v4717mqbjbedqjtm6bt7g6en_f;"/></svg>