<svg xmlns="http://www.w3.org/2000/svg" width="4020" height="4020" viewBox="0 0 4020 4020" clip-rule="evenodd" fill-rule="evenodd" stroke-linejoin="round" stroke-miterlimit="2"><style>
@keyframes lpxk0g742mpa64kxpglvwmut_f { 0% { fill: #00b2d6; } 46.667% { fill: #d62100; } 100% { fill: #00b2d6; } }
@keyframes urwpjhy27lcoeajkmlp2ae6s_f { 0% { fill: #ffdc00; } 66.667% { fill: #189305; } 100% { fill: #ffdc00; } }
@keyframes m3mtzjxhzb4i55mf5glya0li_f { 0% { fill: #fff; } 14% { fill: #fff; } 100% { fill: #fff; } }
@keyframes npnvosv5n3s8jyxri5pvn7ti_f { 0% { fill: #fe06ad; } 50% { fill: #bbfe06; } 100% { fill: #fe06ad; } }
@keyframes tou6v9ozuwxvmye63ny474en_f { 0% { fill: #69257b; } 73.333% { fill: #ff5b00; } 100% { fill: #69257b; } }
</style><g transform="translate(2010,2010) scale(1.00862,1.03236) translate(-1992.8,-1947)"><rect width="3985.7" height="3894" fill="none"/><g><g transform="translate(2346.3,1946.9) scale(.991458,.968657) translate(-2264.2,-1959.4)"><path d="M992.2 1426.8c-3.6 22.3-6.6 39.2-8.8 50.6c-2.8 14.2-4.8 25.2-6.1 33.2c0 0 0 0 0 0c-1.1 7-4.1 21.2-9 42.6c0 0 0 0 0 0c-5 22.4-9.9 42.7-14.7 60.9c-5.1 19.5-12.5 55.8-22.1 108.8c-9.4 51.4-16.3 90.3-20.9 116.7c-4.5 25.8-8.8 49.4-13.1 70.7c-4.3 21.5-8.7 43-13.4 64.6c-4.9 22.8-8.9 44-12 63.7c-3.5 21.9-4.9 44.3-4.2 67c.5 18.5 .6 35.9 .1 52.4c-0.4 14.5-2.6 30.1-6.4 46.9c-1.8 8.1-17.3 14.6-5 23.2l1883.2 649c53.4 18.6 536.8 129.7 536.8 129.7c134.6 37.4 147.1-39.3 149.1-41.7c2.8-3.3 6.3-34.3 8.4-38c1.6-2.8 3-5.8 4.2-8.9c1.8-4.4 3.1-8.9 4-13.6c.5-2.9 .9-5.9 1.2-8.9c.4-3.5 .5-7 .5-10.6c0-3.3-0.2-6.7-0.4-10c-0.1-2.3-0.3-4.5-0.5-6.7c-0.2-2.3-0.5-4.6-0.8-6.9c0 0 6.9-34.9 9-46.2c2.5-13.4 3.7-22.6 4.1-27.5c.1-2.4 .2-4.2 .4-5.5c.4-2.1 .7-4.2 1.1-6.2c.4-2.2 1.7-10.8 4-25.6c2.1-13.7 4-25.2 5.9-34.4c1.8-9.3 3.6-17.6 5.2-24.7c2.1-9.3 3.5-18 4.1-25.9c0 0 0 0 0 0c.7-8.2 .9-14.5 .7-18.9c0 0 0 0 0 0c-0.1-2.9 4.1-39.5 4.5-46.8c.4-5.9 1-14.6 1.7-26c.8-11.8 2.1-26.2 2.5-27.1c0 0 0 0 0 0c2.9-6.6 5.5-13 7.7-18.9c0 0 0 0 0 0c2.2-5.9 9.1-26.8 9.6-28.1c2-5.6 3.7-10.1 5.2-13.5c1.9-4.5 6.2-17.8 12.3-40c5.5-19.9 10.4-39.3 14.8-58.2c4.4-18.9 8.5-38.3 12.4-58.3c0 0 0 0 0 0c4.1-21 7-41.5 8.6-61.4c1.3-16.3 2.6-28.3 4.1-35.8c2.3-11.5 3.1-23.9 2.4-37.2c0 0 0 0 0-0.1c-0.7-11.9-1.6-20.1-2.4-24.8c0 .1 0 .1 0 .1c-0.7-4.4-6.8-75.8-5.9-83.7c1.2-9.8 1.2-20.6 0-32.3c0 0 0 0 0 0c-0.7-6.7-1.1-12.2-1.1-16.3c0 0 0 0 0 0c-0.1-3.7 2.8-25.2 2.8-25.2c1.6-8.9 4-19.4 7.3-31.5c0 0 0 0 0 0c3.7-13.6 6.6-24.4 8.6-32.4c0 0 0 0 0 0c1.5-5.9 4.3-12.9 8.1-21.2c5.7-12.2 12.5-32.1 20.1-59.8c7-25.7 12.4-48 16.2-66.9c0 0 0 0 0 0c3.7-18.2 7.7-38.8 12.1-62c4.7-24.4 7.7-42.4 8.9-53.7c1.2-10.2 2.4-19.9 3.9-29.2c1.6-9.9 2.8-18 3.7-24.1c1-6.3 2.6-20 5-41.3c2-19.2 5.2-38.4 9.4-57.8c4.2-19.5 7.5-33.6 10.1-42.5c3.2-10.7 5.3-18.9 6.4-24.3c0 0 0 0 0 0c1.9-9.2-0.5-78.7-1.2-85.6c0 0 0 0 0 0c-0.3-2.5-0.6-4.2-0.5-5.2c0 0 0 0 0 0c.1-4 0-7.3-0.2-9.9c0 0 0 0 0 0c-0.1-0.3-2.3-15.1-4.1-19c-3.5-9-9.2-14.3-14.9-17.6l-0.4-0.2c-1.1-0.9-2.2-1.7-3.3-2.4l-1.5-0.9c-8-5.9-67-19.2-72.5-20.7c-3.6-1-8.8-2.1-15.8-3.4c-5.6-1.1-63.6-14.6-80.8-18.2c0 0 0 0 0 0c-18.1-3.8-32.9-6.3-44.5-7.8c0 0 0 0 0 0c-11.7-1.4-20.1-2.2-25-2.5c-3.3-0.3-5.8-0.5-7.5-0.7c-1.8-0.2-3.5-0.4-5.1-0.6c-2.4-0.4-31.9-3.4-38.8-4.3c-6.7-1-12.8-2-18.3-3c-4.7-0.8-9.4-1.9-14.1-3.1c-6-1.7-15-4-27.2-7.1c-13.1-3.4-23.4-5.7-30.8-7.1c0 0 0 0 0 0c-6.4-1.2-11.1-2.1-14.3-2.7c-4.2-0.9-12-2-23.5-3.2c-8.1-0.8-15.1-1.7-21.1-2.9c0 0 0 0 0 0c-8.1-1.5-19.8-2.9-35-3.8c0 0 0 0 0 0c-14.5-0.8-25-1.1-31.5-0.9c0 0 0 0 0 0c-5 .1-13.5-0.5-25.5-1.6c-15.1-1.4-28.1-2.2-38.8-2.5c-7.7-0.2-15.2-1-22.4-2.5c0 0 0 0 0 0c-11.9-2.4-23.8-3.8-35.8-4c-9.3-0.1-27-0.9-53.3-2.4c-27.2-1.4-47.7-2.5-61.7-3.2c0 0 0 0 0 0c-13.4-0.6-23-1.1-28.6-1.5c-4-0.3-6.9-0.5-8.8-0.8c0 0 0 0 0 0c-2.3-0.4-4.2-0.7-5.9-1.1c-2.3-0.4-4.4-0.8-6.4-1.1c-1.2-0.3-5.7-1.5-9.9-2.8c0 0 0 0 0 0c-8.8-2.7-16-4.6-21.5-6c-5.6-1.3-33.5-7.2-54.5-9.9c0 0 0 0 0 0c-21.3-2.8-48-5.5-80.2-7.9c-30.9-2.3-54.9-4.3-71.9-5.9c-18-1.7-36.9-2.8-56.5-3.3c0 0 0 0 0 0c-18.3-0.4-32.3-0.8-42.1-1.2c-10.1-0.5-21.8-0.9-35.3-1.3c0 0 0 0 0 0c-14.2-0.4-37 .8-68.2 3.8c0 0 0 0 0 0c-24.1 2.4-52.4 5.3-85 8.9c-17.3-7.5-29.5-12.4-36.6-14.8c-6.7-2.3-13.1-5-19.3-8c-8.5-4-19-8-31.6-11.6c-11.7-3.4-23.5-6.2-35.4-8.2c-11.4-2.1-26.3-4-44.7-5.7c0 0 0 0 0 0c-17.9-1.7-33.5-2.9-46.8-3.5c-12-0.6-24.6-1.9-37.9-3.8c-13.3-1.9-22.6-3.4-28.1-4.5c0 0 0 0 0-0.1c-6-1.2-14.4-3-25.2-5c-10.5-2.1-27.1-5.4-49.8-10c-20.8-4.2-38.9-9.2-54.3-15.4c0 0 0 0 0 0c-13.4-5.3-22.3-9-26.4-11.9c-5.5-4-12.6-8.8-21.5-14.4c-10.3-6.5-20.9-11.6-31.6-15.3c-9.4-3.2-21-6.4-34.9-9.6c-18-4.2-28.1-5.1-29.7-5c.9-0.1 4.4 .1 4.4 .1c0 0-13.1-2.9-17.6-3.8c-5.3-1-11.4-1.6-18.2-1.9c-4.3-0.2-9.8-0.8-16.6-1.9c-8.5-1.2-17-2.4-25.5-3.5c-11.4-1.4-21-1.4-29-0.3c-5.7 .8-13.5 1.8-23.1 3.1c0 0 0 0 0 0c-6.1 .9-13.3 1.1-21.7 .9c-7.8-2.4-16.1-4.7-24.9-6.7c0 0 0 0 0 0c-12-2.7-23.8-5.6-35.3-8.8c-9.6-2.7-18.4-6.1-26.2-10.3c-12.1-6.4-26.5-11.6-43.2-15.1c0 0 0 0 0 0c-14.3-3.1-58.8-14-66.8-16.3c0 0 0 0 0 0c-7.3-2.1-14.5-3.7-21.5-4.6c-6-0.8-13.5-1.5-22.5-2c0 0 0 0 0 0c-6-0.4-12.7-0.8-20.2-1.3c-5.7-0.9-12.1-1.9-19.2-3c0 0 0 0 0 0c-6.9-1.1-13.3-2.1-19-3c-12.5-3.2-54.6-12.6-56.1-12.9c-3-0.7-7.4-1.5-13.3-2.2c-4.8-0.6-43.5-10.6-54.1-13.8c-12.8-3.8-25.4-7.3-37.8-10.5c0 0 0 0 0 0c-12.9-3.5-25.1-6.2-36.6-8.2c0 0 0 0 0 0c-11.3-2-18.8-3.3-22.5-3.8c0 0 0 0 0 0c-2.9-0.4-5.6-0.8-8.2-1.4c0 0 0 0 0 0c-5.8-1.1-10.2-1.6-13-1.6c-0.4 0-30.3-10.6-53.9-3c0 0-15.9 69.7-18.2 79.8c0 0 0 0 0 0c-2.1 8.7-7.2 35-7.6 38.3c0 0 0 0 0 0c-0.1 .9-7.1 39.1-7.8 44.8c0 0 0 0 0 0c-0.6 6-0.9 15.9-0.7 30c.1 10.9-0.5 22.4-1.7 34.2c0 0 0 0 0 0c-1.3 12.2-3.4 24.7-6.2 37.5c-3.6 17-5.2 29.7-5.2 38c0 7 0 17.2 .2 30.6c.1 13.1 .2 23.1 .2 29.8c-0.1 8 .5 16.6 1.6 25.9c.9 7.5 1.3 34.6 1.4 81.4c.1 18.4 .1 35.7 0 51.9Zm2681.3-24.7l.1 .3l-0.1-0.3Zm-21.4-74.5c0 0 3.2 1.8 5.1 3.4c.7 .6 1.4 1.2 2 1.8c1.4 1.2 2.7 2.5 3.9 3.8c1 1.2 2 2.3 2.9 3.6c.8 1.2 1.6 2.6 2.3 3.9c1 1.9 1.9 3.5 1.5 2.5c-1.1-2.3-2.4-4.4-3.8-6.4c-2.2-3.2-8.8-9.2-8.8-9.2l-1.1-1Z" fill="#00b2d6" style="animation: 30s linear infinite both lpxk0g742mpa64kxpglvwmut_f;"/></g><g transform="translate(2182.5,2275.8) scale(.991458,.968657) translate(-2099.1,-2299)"><path d="M1175.4 1736.1c19-23 35.5-43 49.7-59.9c0 0 0 0 0 0c21.8-26 42.4-50.3 61.8-72.9c19.4-22.7 41.5-48.1 66.2-76.4c24.6-28.3 59.8-67.9 105.5-118.8c45.7-50.9 72-80.2 79-87.9c0 0 0 0 0 0c7-7.6 16.7-18.2 29-31.7c12.4-13.5 30.8-33.5 55.4-60.2c24.5-26.7 54.8-59.8 90.8-99.2c36-39.6 62.1-68.6 78.1-87.1c16.1-18.7 27.6-32.4 34.4-41.1c7.1-8.9 12.6-16.5 16.7-22.8c4.5-6.9 7.4-12.2 8.7-15.7c0 0 0 0 0 0c2.2-5.7 2.4-9.3 2.3-10.4c0 0 0-0.1 0-0.1c-0.3-2-0.7-3.4-1-4c-1.1-2.5-3-4.5-5.5-5.5c-2.6-1.1-6.1-1.6-10.4-1.1c0 0 0 0 0 0c-2.8 .3-6.9 1.4-12.1 3.6c0 0 0 0 0 0c-4.3 1.8-9.6 4.4-15.8 7.8c-5.9 3.2-16 9.6-30.5 19.1c0 0 0 0 0 0c-14.3 9.4-33.6 23.1-57.9 41.1c-24.1 17.9-47.7 36-70.8 54.4c-23 18.3-42.7 34.2-59 47.6c-16.3 13.5-34.2 28.5-53.6 45c-19.5 16.6-36.2 31-50.3 43.2c-14 12.3-29.2 25.6-45.4 40c0 0 0 0 0 0c-16.2 14.5-37.7 34-64.6 58.6c-26.8 24.5-59.9 55.5-99.1 92.9c-39.2 37.4-61.7 59-67.5 64.7c-5.8 5.7-14.2 14-25.3 25c0 0 0 0 0 0c-11.1 10.9-25.1 24.9-42 42c0 0 0 0 0 0c-17 17-40.8 41.5-71.6 73.3c0 0 0 0 0 0c-30.8 31.8-49.8 51.6-57.1 59.2c-7.2 7.7-15.2 16.2-23.9 25.5c0 0 0 0 0 0c-8.8 9.3-20.5 21.9-35.2 37.7c-14.7 15.9-35.3 38.4-61.8 67.5c0 0 0 0 0 0c-26.5 29.2-45.1 49.8-55.8 61.8c-10.8 12-21.9 24.5-33.5 37.5c-11.5 13.1-25.8 29.2-42.7 48.5c-16.9 19.2-30.8 35.2-41.9 47.8c0 0 0 0 0 0c-11 12.6-21.7 25-32.3 37.1c-10.2 11.7-22.7 26.1-37.7 43.2c1.4-2 2.9-4 4.4-6c9.6-13.1 21.4-29.1 35.6-48c14.2-18.8 35.3-46.3 63.5-82.4c28.1-36.1 47.8-61.3 59.2-75.4c0 0 0 0 0 0c11.3-14.2 24.3-30.2 38.9-48.2c0 0 0 0 0 0c14.6-18 29.7-36.4 45.3-55.3c0 0 0 0 0 0c15.6-18.9 36.8-44.2 63.5-75.9c0 0 0 0 0 0c26.7-31.6 56.3-66.1 88.8-103.5c32.5-37.3 64.6-73.7 96.1-109c0 0 0 0 0 0c31.6-35.4 53.6-59.8 65.8-73.4c12.3-13.5 29.1-32 50.6-55.3c21.4-23.4 38.4-42 51.1-55.7c12.7-13.8 29.4-31.8 50-54c20.6-22.3 37.3-40.3 50-54c12.7-13.7 28.6-30.9 47.7-51.8c19.2-20.8 34.6-37.8 46.4-50.8c11.9-13 26.4-29.4 43.7-49.1c0 0 0 0 0 0c17.3-19.8 28-32 31.9-36.7c4-4.8 7.8-9.4 11.4-13.8c3.6-4.4 8-9.8 13-16.3c5.1-6.5 9.8-12.6 13.9-18.2c4.2-5.8 9.1-13.1 14.6-22c6-9.8 9.7-18.3 11.4-25.6c1.5-6.2 2.1-10.2 2.2-11.8c0-3.4-1.2-5.5-1.9-6.5c-0.6-1-1.3-1.8-2.2-2.4c-1.9-1.5-4.2-2.7-6.9-3.6c-2.1-0.6-6-1-11.6-0.5c0 0 0 0 0 0c-4.2 .4-11.5 2.4-21.8 6.2c0 0 0 0 0 0c-9.5 3.5-22.4 9.7-38.7 18.7c-16.1 8.7-33.5 19.1-52.3 31.3c-18.7 12.1-34.8 22.8-48.2 32.1c0 0 0 0 0 0c-13.4 9.4-34.2 24.6-62.5 45.7c-28.2 21-48.3 36.2-60.2 45.6c0 0 0 0 0 0c-11.9 9.3-30 23.9-54.3 43.7c0 0 0 0 0 0c-24.3 19.8-54 44.7-89 74.8c-34.9 30.1-63.7 55.3-86.1 75.5c0 0 0 0 0 0c-22.5 20.3-40.3 36.5-53.5 48.8c-13.2 12.2-25.4 23.6-36.6 34.2c-11.2 10.6-27.6 26.4-49.2 47.4c-21.7 21-51 50.3-88.1 88c-37 37.7-64.5 66.1-82.5 85.3c-17.9 19.1-40.4 43.8-67.3 74c0 0 0 0 0 0c-27.1 30.2-45.3 50.9-54.6 61.9c0 0 0 0 0 0c-9.4 11.1-20.7 24.8-33.9 41.2c0 0 0 0 0 0c-13.2 16.4-27.7 35.9-43.5 58.4c0 0 0 0 0 0c-16.2 23.2-27 41.6-32.5 55.2c-3.9 9.7-6.4 16.5-7.5 20.4c-1 3.4-1 5.8-0.9 7c.4 3.8 1.2 6.1 1.7 7c.9 1.9 2.4 3.4 4.3 4.4c5.1 2.7 9.8 3.9 14.2 4c0 0 0 0 0 0c3.6 .1 9.5-0.8 17.9-2.9c0 0 0 0 0 0c7.5-2 14.7-4.3 21.4-7c6.5-2.6 16.2-7 29-13.2c12.7-6.1 23-11.2 31-15.4c7.9-4.2 19.4-10.5 34.5-18.8c15.1-8.4 26.5-14.7 34.3-19.1c7.7-4.4 18.3-10.4 31.5-18c0 0 0 0 0 0c13.2-7.6 25.5-14.6 36.8-21.1c0 0 0 0 0 0c11-6.4 16.9-9.7 17.6-10.1c4.9-2.6 6.8-8.8 4.2-13.8c-2.7-5-8.9-6.9-13.9-4.2c-0.6 .3-6.7 3.8-18.1 10.4c-11.3 6.4-23.5 13.5-36.8 21.1c-13.2 7.5-23.6 13.5-31.4 17.9c0 0 0 0 0 0c-7.7 4.3-19.1 10.7-34.1 19c0 0 0 0 0 0c-14.9 8.2-26.3 14.4-34.2 18.6c-7.8 4.1-17.9 9.1-30.3 15.1c0 0 0 0 0 0c-12.3 5.9-21.5 10.1-27.7 12.6c0 0 0 0 0 0c-5.9 2.4-12.2 4.4-18.9 6.2c-4.9 1.2-8.6 2-11.2 2.2c1.3-3.5 3.2-8.8 5.5-14.6c0 0 .1 0 .1 0c5.1-12.7 15.2-29.7 30.3-51.2c15.4-22.1 29.6-41.2 42.6-57.3c13.1-16.2 24.2-29.8 33.6-40.8c9.3-11 27.4-31.5 54.2-61.5c26.9-30.1 49.2-54.6 67.1-73.7c17.8-19 45.2-47.3 82.1-84.8c36.9-37.6 66.2-66.8 87.7-87.7c0 0 0 0 0 0c21.6-20.9 37.9-36.6 49.1-47.2c11.2-10.6 23.3-21.9 36.4-34.1c13.2-12.2 30.9-28.4 53.3-48.6c22.3-20.1 50.9-45.2 85.8-75.2c34.8-29.9 64.3-54.7 88.5-74.5c24.2-19.7 42.2-34.1 54-43.4c11.9-9.3 31.8-24.4 59.9-45.3c0 0 0 0 0 0c28-21 48.6-36 61.9-45.3c13.2-9.2 29.1-19.8 47.6-31.7c0 0 0 0 0 0c18.3-11.9 35.3-22.1 51-30.6c0 0 0 0 0 0c15.2-8.3 27.2-14.1 36-17.4c6.8-2.6 11.8-4.2 15.1-4.8c-1.3 5.4-4.3 11.8-8.8 19.1c-5.2 8.3-9.7 15.2-13.7 20.6c0 0 0 0 0 0c-4 5.5-8.5 11.4-13.4 17.7c0 0-0.1 0-0.1 0c-4.9 6.3-9.2 11.7-12.7 16c-3.6 4.3-7.3 8.8-11.2 13.5c-3.9 4.7-14.5 16.8-31.7 36.4c-17.2 19.6-31.6 35.9-43.4 48.9c-11.8 13-27.2 29.9-46.3 50.7c0 0 0 0 0 0c-19.1 20.8-35 38-47.7 51.7c0 0 0 0 0 0c-12.7 13.7-29.4 31.7-50 54c0 0 0 0 0 0c-20.6 22.2-37.3 40.2-50 54c-12.7 13.8-29.8 32.4-51.2 55.8c-21.5 23.4-38.3 41.8-50.6 55.4c0 0 0 0 0 0c-12.3 13.5-34.3 38-65.9 73.4c-31.6 35.4-63.7 71.9-96.3 109.3c-32.6 37.4-62.2 72-89 103.7c-26.8 31.8-48 57.1-63.7 76c-15.6 19-30.8 37.5-45.4 55.5c-14.7 18-27.6 34.1-39 48.3c-11.4 14.2-31.2 39.4-59.4 75.6c-28.2 36.2-49.4 63.8-63.6 82.7c-14.3 19-26.2 35-35.8 48.2c-9.7 13.2-19.6 27-29.7 41.4c0 0 0 0 0 0c-10.1 14.5-18 26-23.6 34.6c0 0 0 0 0 0c-5.7 8.8-9.6 15.1-11.6 18.8c-2.4 4.4-3.9 7.4-4.4 9c-1.1 2.9-1.4 5.2-1.3 6.8c.1 5 3.9 9.2 8.8 9.9c1.1 .1 3.1 .3 5.7-0.9c.7-0.3 3.4-2 7.7-5.5c3.6-3 10.7-10.1 21.3-21.5c10.2-10.9 17.7-19.1 22.5-24.5c4.8-5.4 15-17 30.6-34.9c0 0 0 0 0 0c15.7-17.8 28.7-32.8 39.3-44.9c0 0 0 0 0 0c10.5-12.1 21.2-24.4 32.3-37c11-12.7 24.9-28.6 41.8-47.8c0 0 0 0 0 0c16.9-19.2 31.1-35.4 42.6-48.4c11.6-13 22.7-25.5 33.4-37.5c0 0 0 0 0 0c10.7-12 29.3-32.5 55.7-61.6c26.5-29.1 47-51.5 61.7-67.4c0 0 0 0 0 0c14.7-15.8 26.4-28.3 35.1-37.6c8.7-9.3 16.7-17.8 23.9-25.4c0 0 0 0 0 0c7.2-7.7 26.2-27.3 56.9-59.1c30.7-31.7 54.5-56.1 71.4-73.1c16.9-17 30.8-31 41.9-41.9c11-10.9 19.5-19.2 25.2-24.9c5.8-5.7 28.3-27.2 67.4-64.5c39-37.3 72-68.2 98.7-92.7c26.8-24.4 48.2-43.9 64.4-58.3c16.2-14.4 31.3-27.7 45.3-39.9c14-12.2 30.7-26.5 50-43c19.4-16.5 37.2-31.4 53.4-44.8c16.3-13.4 35.8-29.2 58.7-47.4c22.9-18.2 46.3-36.2 70.3-53.9c0 0 0 0 0 0c23.9-17.7 42.8-31.2 56.9-40.5c13.9-9.1 23.6-15.2 29.2-18.3c0 0 0 0 0 0c2.4-1.4 4.6-2.5 6.7-3.6c-3.8 5.9-9 12.9-15.5 21.2c0 0 0 0 0 0c-6.8 8.6-18.1 22.1-33.9 40.4c0 0 0 0 0 0c-15.9 18.4-41.9 47.3-77.7 86.7c-36 39.4-66.2 72.5-90.8 99.1c0 0 0 0 0 .1c-24.5 26.6-43 46.7-55.3 60.2c-12.4 13.5-22.1 24.1-29.1 31.7c-7 7.7-33.4 37.1-79.1 88.1c-45.8 51-81 90.6-105.8 118.9c0 0 0 0 0 0c-24.7 28.4-46.8 53.9-66.2 76.6c0 0 0 0 0 0c-19.4 22.7-40.1 47-61.9 73c-21.9 26.1-49.4 59.4-82.5 100c-33.2 40.6-57.8 71.1-74 91.3c-16.1 20.3-31.1 39.3-45.1 57.2c0 0 0 0 0 0c-14 17.9-28.4 36.4-43.2 55.4c0 0 0 0 0 0c-14.7 19.1-32.3 42.2-52.8 69.2c0 0 0 0 0 0c-20.5 27-40.5 53.7-60 80.1c-19.5 26.3-40.9 55.5-64.1 87.4c-23.2 32-40.5 56.1-52 72.2c-11.4 16.1-19.8 27.9-25.1 35.4c-5.3 7.6-9.3 13.2-12 17c-2.6 3.8-11.8 17-27.5 39.7c-15.8 22.7-27.2 39.4-34.3 50c-7.2 10.8-12 18.3-14.3 22.2c-2.4 4.2-1.5 9.5 2.1 12.8c3.6 3.2 9 3.4 12.9 .5c.2-0.1 1-0.7 2.1-2.1c.8-0.9 4.4-6 11-15c7.2-9.8 18.7-25.6 34.3-47.2c15.6-21.6 32-44.1 49.1-67.5c0 0 0 0 0 0c17.1-23.4 33.1-45.1 48.1-65.2c15-20.2 30-40.3 45.2-60.3c15.1-20.1 36-47.4 62.7-81.9c26.7-34.6 48.8-62.9 66.3-84.9c0 0 0 0 0 0c17.5-22 30.6-38.4 39.2-49c0 0 0 0 0 0c8.6-10.7 18.2-22.5 28.8-35.4c0 0 0 0 0 0c10.6-12.9 22.7-27.6 36.4-44.1c13.6-16.4 39.5-46.7 77.6-90.8c38-44.2 67.4-77.7 88.1-100.7c20.7-22.9 41.5-45.8 62.6-68.5c21.1-22.7 36.5-39.1 46.1-49.3c0 0 0 0 0 0c9.7-10.1 21.4-22.3 35.2-36.6c13.9-14.3 24.9-25.7 33.2-34.1c8.2-8.4 32.5-32.4 72.8-71.9c40.3-39.5 73.7-71.7 100.4-96.5c0 0 0 0 0 0c26.6-24.8 45.6-42.5 57.1-52.9c0 0 0 0 0 0c11.6-10.4 32.9-29.3 63.9-56.6c0 0 0 0 0 0c31.1-27.3 56.9-49.6 77.5-67c20.6-17.4 48.4-40.3 83.5-68.7c0 0 0 0 0 0c35.1-28.4 61.3-49.4 78.8-62.9c17.4-13.6 42.5-32.5 75.3-56.9c32.8-24.4 60.3-44.4 82.6-60.1c0 0 0 0 0 0c22.4-15.7 43.1-29.8 62.3-42.5c0 0 0 0 0 0c19.1-12.7 37.3-24.2 54.6-34.7c17.3-10.4 29.4-17.5 36.3-21.3c6.9-3.6 12.4-6.5 16.6-8.5c0 0 0 0 0 0c4-2 8.3-3.8 12.8-5.6c0 0 0 0 0 0c.8-0.3 1.6-0.6 2.4-0.9c-3.5 5.7-8 11.8-13.5 18.4c-7.3 8.6-13.3 15.6-18.2 20.9c-4.9 5.3-14.5 15.4-28.8 30.1c0 0 0 0 0 0c-14.3 14.8-26.5 27.2-36.6 37.2c-10.1 10.1-24.1 23.9-42.2 41.5c0 0 0 0 0 0c-18 17.7-43.2 42.2-75.6 73.5c-32.4 31.4-63.3 61.5-92.9 90.3c-29.6 28.8-60.2 58.9-92 90.4c-31.7 31.4-54.1 53.6-67.1 66.7c-13 13-36.6 37.1-70.9 72.2c-34.3 35.1-69.6 71.9-106.2 110.6c-36.5 38.6-65 69.1-85.5 91.4c-20.4 22.2-48.5 53.3-84 93.2c-35.5 39.9-64.8 73.1-87.7 99.7c-23 26.6-51.1 59.8-84.4 99.6c-33.3 39.8-66.3 80.1-99.1 120.8c-32.7 40.7-59.2 74-79.5 99.9c-20.2 25.9-35.7 45.9-46.5 59.9c-10.8 14.1-20.1 26.2-27.8 36.4c-7.8 10.2-25.7 34.1-53.9 71.9c-28.2 37.7-49.2 66.2-63.2 85.3c-14 19.2-27.9 38.4-41.7 57.6c0 0 0 0 0 0c-13.8 19.2-26.6 37-38.3 53.5c-11.6 16.4-27.3 38.6-46.8 66.6c0 0 0 0 0 0c-19.6 28-35.2 50.4-46.8 67.3c0 0 0 0 0 0c-11.7 16.9-26.1 38.1-43.3 63.5c-17.2 25.5-34.9 52.1-52.9 79.7c-18.2 27.8-29 44.7-32.5 50.6c0 0 0 0 0 0c-4 6.7-6.1 10.7-6.6 11.8c-2 5.1 .2 8.3 1 9.6c1.3 1.9 3 3.2 5.1 3.9c1.8 .6 4.4 1.2 7.8-0.3c.5-0.3 1.7-0.9 3.1-2.3c1.2-1.1 5.6-6.5 13.2-16.2c8.9-11.4 18.6-24.2 29.2-38.6c10.6-14.3 18.7-25.4 24.5-33.2c5.8-7.8 10.8-14.6 14.9-20.2c4.2-5.7 18.5-25.1 43.1-58.1c24.6-33.1 47.4-63.5 68.3-91.2c21-27.7 42.5-56 64.7-84.7c22.1-28.7 53.7-68.9 94.9-120.6c41.1-51.6 76-94.8 104.7-129.4c0 0 0 0 0 0c28.6-34.6 53-63.7 73.2-87.4c0 0 0 0 0 0c20.1-23.6 39.8-46.5 59.1-68.6c19.4-22.2 43.7-49.6 73.1-82.2c0 0 0 0 0 0c29.4-32.7 52.8-58.4 70.2-77.2c0 0 0 0 0 0c17.4-18.8 32.9-35.4 46.4-49.7c0 0 0 0 0 0c13.5-14.2 24.6-26 33.5-35.2c8.8-9.2 19.3-20.1 31.5-32.6c12.1-12.6 40.3-40.8 84.4-84.7c44.1-43.9 79.3-78.4 105.5-103.4c0 0 0 0 0 0c26.2-25.1 46.6-44.3 60.9-57.7c14.4-13.4 35.8-33 64.2-58.8c28.3-25.9 55.9-50.6 82.6-74.2c0 0 0 0 0 0c26.6-23.6 51.2-45 73.5-64.3c22.3-19.3 40.4-34.8 54.3-46.6c13.8-11.7 43.9-36.7 90.3-75c46.3-38.3 81.5-67.1 105.6-86.4c24-19.3 44.2-35.4 60.5-48.3c0 0 0 0 0 0c12.6-10 25.2-19.9 37.8-29.7l-2.4 2c-20.5 17.9-43.2 37.9-68 59.9c0 0 0 0 0 0c-24.8 22.1-49.4 44.2-73.8 66.3c-24.3 22.1-44.8 40.9-61.5 56.3c0 0 0 0 0 0c-16.6 15.5-29.1 27-37.3 34.8c-8.3 7.7-14.7 13.7-19.3 18.1c0 0 0 0 0 0c-4.6 4.3-33 31.8-85.1 82.4c-52.1 50.7-101.8 100.3-149 148.8c-47.2 48.5-89.4 92.9-126.6 133.2c-37.2 40.2-65.8 71.5-85.7 93.9c-20 22.3-35.7 40-47.1 53.2c-11.5 13.1-30 34.7-55.6 64.8c0 0 0 0 0 0c-25.7 30.1-54.2 64.3-85.6 102.7c0 0 0 0 0 0c-31.5 38.5-57.1 70.2-76.9 95.3c-19.7 25.1-36.3 46.3-49.6 63.5c-13.3 17.3-32.2 42.3-56.6 74.9c0 0 0 0 0 0c-24.5 32.7-49.2 66.3-74 100.7c0 0 0 0 0 0c-24.8 34.5-44.4 61.9-58.7 82.4c0 0 0 0 0 0c-14.3 20.5-28.4 40.9-42.4 61.4c-14 20.5-28.3 41.7-43 63.6c0 0 0 0 0 0c-14.6 21.9-25.7 38.6-33.2 50.2c0 0 0 0 0 0c-7.6 11.6-14.5 22.2-20.7 31.8c-6.2 9.7-18.4 28.8-36.4 57.5c-18.1 28.7-31.4 50.1-40.1 64.3c-8.7 14.2-16.4 27-23.2 38.4c-6.8 11.4-18.2 31.1-34 58.9c-15.9 27.9-27.4 49-34.6 63.1c-7.3 14.4-12.2 24.6-14.5 30.6c0 0 0 0 0 0c-2.8 7.2-4.1 12.7-4.2 16.2c-0.1 3.6 1.7 7 4.8 8.9c.7 .5 5.9 3.3 13-1c0 0 0 0 0 0c1.8-1.1 4.1-2.9 6.7-5.6c0 0 0 0 0 0c1.9-1.9 7-8.2 15.4-18.7c0 0 0 0 0 0c8.1-10.3 16.3-21.3 24.8-33c8.5-11.6 20-27.8 34.6-48.6c14.5-20.8 28.5-40.7 41.7-59.8c0 0 0 0 0 0c13.2-19.1 30.9-44.6 53.1-76.6c0 0 0 0 0 0c22.2-32 39.7-57.2 52.5-75.5c12.8-18.2 26.8-38.2 42.1-59.7c0 0 0 0 0 0c15.2-21.6 29.9-42.2 43.9-61.9c14.1-19.6 34.4-47.4 60.7-83.4c26.4-36 57.8-77.8 94.2-125.6c36.5-47.8 71.6-92.7 105.3-134.8c33.8-42 61.7-76.3 83.8-102.7c0 0 0 0 0 0c22-26.3 39-46.5 51-60.4c0 0 0 0 0 0c12-14 29.5-34 52.6-60.1c23-26.1 44.2-49.7 63.4-70.9c19.3-21.1 33.9-36.9 43.6-47.3c0 0 0 0 0 0c9.8-10.5 18.6-19.9 26.4-28.1c7.8-8.3 19.7-20.6 35.6-37.1c15.9-16.5 49.1-49.6 99.7-99.4c50.6-49.8 93.5-91 128.9-123.6c0 0 0 0 0 0c35.3-32.7 70.4-64.3 105.2-94.9c34.8-30.5 61-53.3 78.6-68.2c17.7-14.8 38.6-32.3 62.8-52.2c24.2-19.9 49.8-40.6 76.8-62.1c27-21.4 53.7-42.2 80.2-62.5c26.5-20.3 56.1-42.5 88.8-66.5c32.7-24 59.4-43.2 80-57.8c20.6-14.5 37.2-26.1 49.9-34.7c0 0 0 0 0 0c12.6-8.6 28.4-19.2 47.6-31.9c19.1-12.6 33.5-22.1 43.3-28.3c9.7-6.2 19.7-12.4 30-18.7c10.2-6.3 20.5-12.5 30.8-18.5c0 0 0 0 0 0c10.3-5.9 20.2-11.5 29.9-16.6c9.5-5 17-8.8 22.3-11.1l1.6-0.7c-4.5 5.2-9.1 10.2-13.8 15.1c-5.4 5.6-14.9 14.9-28.6 27.9c-13.8 13.1-25.6 24.2-35.6 33.3c0 0 0 0 0 0c-10 9.1-23.9 21.7-42 37.8c-18 16.2-39.4 35.3-64.4 57.3c0 0 0 0 0 0c-24.9 22.1-44.8 39.7-59.8 53c-15 13.3-30.4 26.9-46.1 40.9c0 0 0 0 0 0c-15.7 14-32.8 29.3-51.4 45.9c-18.5 16.5-35.1 31.5-50 44.9c-14.8 13.4-35.2 32.1-61.3 56c-26.1 23.9-55.6 51.3-88.5 82.2c-32.8 30.9-57.7 54.4-74.5 70.6c-16.8 16.2-34.3 33.1-52.3 50.8c-18 17.6-42.1 41.6-72.2 71.8c-30 30.2-58.2 59-84.3 86.2c-26.2 27.2-50.2 52.6-72.2 76.1c0 0 0 0 0 0c-22 23.6-56.4 61.7-103.3 114.4c-46.8 52.6-91.2 104.1-133.2 154.5c-41.9 50.3-74 89.5-96.3 117.7c-22.4 28.2-45.5 58-69.5 89.5c-24 31.5-42 55.5-54.1 71.8c0 0 0 0 0 0c-12.1 16.4-23.5 31.9-34.2 46.7c-10.7 14.8-30.5 43.1-59.4 84.7c-28.9 41.7-54.5 79.6-76.8 113.7c-22.3 34.2-39.4 61.1-51.5 80.7c0 0 0 0 0 0c-12 19.7-21.8 35.9-29.3 48.8c-7.6 13-15.2 26.6-22.9 41c0 0 0 0 0 0c-7.8 14.5-13.2 25.1-16.4 31.9c-3.2 7-5.5 12.4-6.9 16.3c-1.6 4.5-2.6 8-2.9 10.4c-0.6 3.8-0.4 6.8 .1 8.8c.6 2.5 2.1 4.6 4.2 6c1.8 1.2 5.1 2.9 9.9 1c1.8-0.8 8.8-6.3 20.4-17.5c0 0 0 0 0 0c11.2-10.8 25.9-27.7 44.3-50.6c0 0 0 0 0 0c18-22.5 32.4-40.9 43.3-55.1c0 0 0 0 0 0c10.8-14.1 19.5-25.5 25.9-34c0 0 0 0 0 0c6.5-8.5 18-23.7 34.4-45.4c16.5-21.8 31-41 43.5-57.6c12.6-16.5 29-38.1 49.2-64.7c0 0 0 0 0 0c20.2-26.5 40.1-52.4 59.6-77.7c0 0 0 0 0 0c19.6-25.2 39.3-50.5 59.4-75.9c20-25.4 37.4-47.3 52.1-65.6c0 0 0 0 0 0c14.7-18.3 30.4-37.7 47.1-58c16.7-20.4 40.1-48.4 70.3-84c30.1-35.7 55.4-65.1 75.8-88.3c20.4-23.2 38.3-43.5 53.9-60.7c15.6-17.3 33.8-37.2 54.8-59.8c21-22.6 50.8-53.8 89.4-93.6c38.6-39.7 68.1-69.6 88.3-89.4c20.2-19.9 37.1-36.3 50.6-49.3c0 0 0 0 0 0c13.6-13 32.7-30.9 57.3-53.8c24.6-22.8 52.4-48 83.4-75.6c0 0 0 0 0 0c30.9-27.5 56.2-49.6 75.6-66.3c19.5-16.6 40.2-34 62.1-52.2c21.9-18.2 41.6-34.3 59-48.4c0 0 0 0 0 0c17.5-14 41.3-32.7 71.4-56.1c30.2-23.4 56.8-43.7 79.8-60.8c0 0 0 0 0 0c23-17.1 48-35.3 75.1-54.6c27.2-19.3 53.2-37.4 78-54.3c0 0 0 0 0 0c24.9-16.9 48.1-32.2 69.7-46c0 0 0 0 0 0c21.5-13.8 42.8-27 63.8-39.5c0 0 0 0 0 0c20.9-12.5 39.8-23.2 56.8-32.1c0 0 0 0 0 0c16.7-8.8 28.5-14.8 35.2-17.8c0 0 0 0 0 0c6.5-2.9 13.5-5.6 21.1-8c3.3-1.1 6.2-2 8.5-2.6c-1.9 3.4-4.9 7.6-8.7 12.7c-6.8 9.1-15.5 19.2-25.9 30.5c-10.7 11.5-26.8 27.8-48.3 49c-21.7 21.3-39.5 38.5-53.4 51.6c-13.9 13.1-33.6 31.5-59.1 55.2c-25.5 23.7-51.6 47.9-78.4 72.6c-26.7 24.7-58.2 53.9-94.4 87.6c-36.2 33.8-68.7 64.3-97.4 91.5c-28.7 27.3-57.8 55.3-87.4 84c-29.6 28.7-59.6 58.2-89.8 88.4c0 0 0 0 0 0c-30.3 30.1-62.9 63.3-98 99.5c-35 36.2-69.5 72.5-103.3 108.8c-33.8 36.4-59.3 64-76.4 83c-11.1 12.3-23.5 26.2-37 41.5l-4.4 4.7c-28.7 30.6-55.3 59.8-80.1 87.4c-24.7 27.7-49.2 55.7-73.4 83.9c0 0 0 0 0 0c-24.3 28.3-44.4 52.1-60.4 71.4c-16 19.3-37.2 45.5-63.7 78.5c-26.4 33.1-43.6 54.6-51.4 64.7c-7.9 10.1-17.6 22.7-29.1 37.8c-11.5 15.1-26.4 34.8-44.6 59.2c-18.2 24.4-39 52.8-62.3 85.2c-23.4 32.3-42.8 59.6-58.4 82c0 0 0 0 0 0c-15.5 22.3-32.2 46.5-49.9 72.7c-17.8 26.2-29.1 43.1-34.2 50.7c0 0 0 0 0 0c-5 7.6-11.8 18-20.6 31.4c0 0 0 0 0 0c-8.7 13.3-18.5 28.6-29.4 45.8c0 0 0 0 0 0c-11 17.2-17.8 28-20.4 32.2c-2.6 4.3-5.6 9.4-9.2 15.3c-3.6 6.2-6.2 10.8-7.8 13.9c0 0 0 0 0 0c-1.8 3.5-2.6 5.5-2.8 5.9c-1.4 4.4 .2 7.1 .7 8c1.5 2.9 4.4 4.9 7.7 5.4c3.4 .4 6.7-0.8 8.9-3.3c.7-0.8 4.8-6.3 11.9-16.6c6.8-9.6 13.5-19.3 20.1-29c6.6-9.7 14.8-21.8 24.6-36.2c0 0 0 0 0 0c9.9-14.4 17.9-26.2 24.2-35.4c6.3-9.2 16-23.3 29-42.2c0 0 0 0 0 0c13.1-18.9 26.5-38.3 40.4-58.2c13.9-19.8 25-35.7 33.3-47.4c0 0 0 0 0 0c8.3-11.8 20.9-29.4 37.7-52.8c0 0 0 0 0 0c16.8-23.4 35.9-49.6 57.2-78.7c0 0 .1 0 .1 0c21.3-29 50.9-68.4 88.8-118c0 0 0 0 0 0c37.9-49.5 63.7-83 77.4-100.2c0 0 0 0 0 0c13.6-17.3 28.7-36.2 45.3-56.7c16.6-20.5 33.5-41.2 50.7-62c17.2-20.9 38.7-46.3 64.3-76.4c0 0 0 0 0 0c25.7-30.2 49.8-58.1 72.5-83.9c7.8-8.8 15.2-17.3 22.4-25.3c26.5-28.4 48.8-51.9 67-70.6c19.2-19.7 46-46.5 80.5-80.5c34.5-33.9 63-61.5 85.6-82.7c22.5-21.2 39.3-36.9 50.4-47c0 0 0 0 0 0c11.1-10.1 39.9-35.6 86.4-76.3c46.5-40.7 82.2-71.4 106.9-91.9c24.8-20.6 47.9-39.5 69.4-56.7c21.5-17.2 48-38 79.7-62.4c31.7-24.4 62.4-47.6 92.2-69.5c29.8-22 53.9-39.5 72.2-52.5c18.4-13.1 44.9-31.4 79.5-55c34.7-23.7 61.7-41.8 81.1-54.4c19.3-12.5 34.5-22.3 45.4-29.2c11-6.9 31.5-19.3 61.6-37.3c30-17.9 54-31.7 71.9-41.4c17.9-9.7 31.7-16.8 41.3-21.5c9.5-4.5 18-8.4 25.6-11.5c7.4-3 13.7-5.3 18.9-6.7c0 0 0 0 0 0c1.1-0.4 2.2-0.7 3.2-0.9c-2.4 3.9-6 8.7-10.8 14.5c-8 9.6-16 18.6-24 26.9c-8.1 8.4-14.8 15.2-20.1 20.4c-5.3 5.2-13.9 13.5-26 25c-12.2 11.5-29.9 28.1-53.4 49.6c-23.5 21.7-47.4 43.5-71.6 65.5c-24.3 22.1-48.5 44.1-72.5 65.9c0 0 0 0 0 0c-24.1 21.9-42.7 38.9-55.8 51c0 0 0 0 0 0c-13.2 12-25.5 23.4-37 34c-11.5 10.6-37.9 35.3-79.3 74.3c-41.3 38.9-77.4 73.4-108.3 103.4c0 0 0 0 0 0c-30.9 30.1-70.5 69.7-118.9 119c-48.4 49.2-84.6 86.6-108.5 112c-23.8 25.4-43.1 46.1-57.7 62c-14.6 16-27.6 30.2-38.8 42.7c-11.3 12.6-44.1 50.5-98.4 113.7c-54.3 63.2-95.9 112.9-125 148.9c0 0 0 0 0 0c-29 36-49.6 61.9-62 77.6c0 0 0 0 0 0c-12.3 15.8-24.2 31.2-35.8 46.3c0 0 0 0 0 0c-11.5 15.1-31.8 42.2-60.7 81.3c-28.9 39.1-54.5 74.4-76.7 105.8c-22.2 31.4-41 58.5-56.5 81.2c-15.5 22.8-26.9 39.6-34 50.3c0 0 0 0 0 0c-7.1 10.7-14.2 21.6-21.3 32.5c-7.1 11-16.3 25.4-27.4 43.2c0 0 0 0 0 0c-11.3 17.9-23.2 37.8-35.9 59.9c0 0 0 0 0 0c-13 22.4-21.3 38-25.2 46.6c-4.4 10.1-6.6 17.5-6.8 22.3c-0.3 5.3 3.5 10 8.7 10.7c.8 .1 3.7 .8 7.3-1.7c.9-0.5 4.7-3.7 11.5-9.5c7.2-6.2 16.4-15.7 27.8-28.6c0 0 0 0 0 0c10.9-12.4 22.7-26.3 35.3-41.5c0 0 0 0 0 0c12.6-15.1 27.2-32.9 43.8-53.3c0 0 0 0 0 0c16.7-20.3 34.5-42.1 53.4-65.3c0 0 0 0 0 0c18.9-23.2 33.4-41 43.5-53.4c10.1-12.3 31.5-38.1 64.1-77.3c0 0 0 0 0 0c32.6-39.2 65.5-78 98.5-116.4c33-38.4 69.8-80.3 110.6-125.6c40.7-45.4 71.5-79.3 92.4-101.6c0 0 0 0 0 0c21-22.4 38.6-41.1 52.9-56c0 0 0 0 0 0c14.3-15 27.9-29.1 40.9-42.5c13.1-13.4 26.2-26.7 39.5-40.1c0 0 0 0 0 0c13.2-13.4 24.8-24.9 34.6-34.7c9.8-9.7 21.3-21 34.4-33.8c13.2-12.9 39.7-38.1 79.7-75.8c40-37.6 78.8-73.2 116.4-106.8c37.6-33.6 65.2-58 82.9-73.2c17.7-15.2 38.5-32.8 62.4-52.7c23.9-20 47.7-39.6 71.6-58.9c23.9-19.4 45.2-36.4 63.8-51c18.7-14.7 40.3-31.4 65-50.3c24.7-18.8 42.9-32.6 54.8-41.4c0 0 0 0 0 0c11.8-8.7 26.7-19.6 44.6-32.5c17.9-12.9 35.1-25.1 51.7-36.7c16.5-11.5 31.8-21.9 45.9-31.3c0 0 0 0 0 0c14.1-9.2 24.2-15.9 30.5-19.8c6.3-3.9 10.8-6.8 13.7-8.5l.3-0.1c-3.8 3.9-7.5 7.6-11.1 11.1c-7.8 7.5-15.7 15-23.6 22.4c-7.9 7.5-19.3 18.1-34.2 31.8c-14.8 13.8-31.2 28.8-49 45.2c0 0 0 0 0 0c-17.8 16.4-32.9 30.3-45.4 41.8c-12.4 11.4-28.6 26.4-48.5 44.9c-19.9 18.5-36.1 33.7-48.8 45.6c-12.6 11.9-32.4 30.7-59.3 56.4c0 0 0 0 0 0c-26.9 25.7-55.1 53.2-84.8 82.3c0 0 0 0 0 0c-17.2 16.9-33.3 32.9-48.3 47.9c-5.3 4.4-10.2 8.5-14.7 12.4c-17.6 15.1-34 29.2-49.2 42.5c-15.1 13.3-28 24.6-38.4 34c-10.5 9.4-25.3 22.8-44.3 40.3c-19 17.4-40.2 37.2-63.5 59.4c-23.3 22.1-54.1 52.3-92.1 90.5c-38.1 38.2-62.8 63.2-74.1 75c-11.3 11.8-27.5 29.2-48.7 52.1c0 0 0 0 0 0c-21.3 22.9-41.4 45-60.6 66.5c-19.1 21.4-46.3 53-81.7 94.8c-35.4 41.8-60.4 71.7-74.9 89.7c0 0 0 0 0 0c-14.5 18-29.3 36.8-44.5 56.2c-15.2 19.4-37 48.1-65.4 86.1c-28.4 37.9-55.4 75-81 111.3c0 0 0 0 0 0c-25.6 36.2-45.9 65.5-61 87.9c-15.1 22.4-30.1 44.9-45 67.7c-14.9 22.8-30.1 46.7-45.8 71.6c-15.7 24.9-31.3 50.2-46.7 76c0 0 0 0 0 0c-15.5 25.7-31.5 53-48 82c0 0 0 0 0 0c-16.6 28.9-28.5 50.2-35.8 63.7c0 0 0 0 0 0c-7.3 13.5-16.6 31.7-27.9 54.5c0 0 0 0 0 0c-11.5 23.2-19.7 42.3-24.4 57.1c0 0 0 0 0 0c-4.6 14.2-6.8 22.1-7 23.8c-0.7 6 2.9 8.7 4 9.5c2 1.5 4.5 2.3 7 2.1c2.1-0.2 4.7-0.9 7.5-2.7c1.5-0.9 4.1-3 7.7-6.6c0 0 0 0 0 0c3-2.9 5.8-6 8.5-9.1c2.5-3 12.3-16.1 29.3-39.2c16.9-23 38.3-53.4 64.1-91.2c25.8-37.8 57.2-84.1 94.3-139c37-54.9 72.4-106.9 106.3-156.1c33.9-49.2 61-88.2 81.3-117c20.4-28.8 44.4-62.2 72.1-100.4c27.7-38.1 53.5-73.1 77.3-104.8c23.8-31.7 52.1-68.5 84.8-110.3c32.7-41.9 58.2-74 76.4-96.5c18.3-22.5 36.6-44.9 55.2-67.1c0 0 0 0 0 0c18.5-22.3 39.2-46.8 62.2-73.6c0 0 0 0 0 0c22.9-26.7 48.4-55.9 76.3-87.4c0 0 0 0 0 0c28-31.5 57.9-64.4 89.7-98.7c31.8-34.4 59.6-63.9 83.3-88.7c23.8-24.8 47.4-49 70.7-72.6c9.6-9.7 19.8-19.9 30.5-30.6c14.7-12.5 32.2-26.9 52.3-43.5c27.4-22.6 56.1-45.6 86-69.1c29.8-23.4 52.5-41 68-52.8c15.5-11.7 45.6-33.6 90.5-65.7c44.8-32 78.3-55.4 100.5-70.1c0 0 0 0 0 0c22.2-14.7 39-25.6 50.4-32.7c11.4-7.2 20.5-12.8 27.3-16.9c6.9-4 12.9-7.6 18.3-10.7c5.3-3.1 14.8-8.2 28.6-15.5c13.6-7.1 24.2-12.3 31.9-15.5c0 0 0 0 0 0c6.7-2.8 11.9-4.8 15.7-5.8c-3.4 6.8-8.9 14.9-16.5 24.4c-9 11.1-17.8 21.4-26.5 30.9c-8.8 9.6-20.6 22.1-35.4 37.5c-14.9 15.4-30.1 30.9-45.5 46.5c-15.5 15.5-30.6 30.6-45.4 45.3c0 0 0 0 0 0c-14.9 14.8-30.5 30.3-47.1 46.7c0 0 0 0 0 0c-16.6 16.4-32.2 32-46.9 46.6c0 0 0 0 0 0c-14.8 14.6-35.2 35-61.2 61.2c-26.1 26.1-56.7 57.2-91.7 93c-35 35.9-62.1 63.9-81.2 84c-19.1 20-41.3 43.7-66.6 70.9l-6.8 7.4c-19.7 17.4-42.1 37.7-67.3 60.9c-30.6 28-64.4 60.1-101.5 96.2c-37.1 36.1-73.2 72.5-108.4 109c-35.1 36.5-67.7 71.4-97.7 104.5c-30 33.2-51.2 57-63.7 71.4c-12.4 14.4-27.8 32.4-46 54.1c-18.1 21.7-37.5 45.2-58 70.7c-20.5 25.5-36.6 45.8-48.3 60.9c0 0 0 0 0 0c-11.7 15.1-25.4 33.1-41.1 54.1c0 0 0 0 0 0c-15.7 21-37 50.4-63.9 88.3c-26.9 37.9-47.8 68.2-62.9 90.8c-15 22.7-27 41.2-36.1 55.5c0 0 0 0 0 0c-9.1 14.4-18.4 29.6-28 45.7c-9.6 16-17.8 30.1-24.5 42.2c-6.7 12.2-13.6 25.9-20.8 41.3c-7.6 16.6-11.5 27.5-12.2 32.5c0 0 0 0 0 0c-0.8 6.5-0.4 10.3-0.2 11.3c.7 2.4 2 3.8 3 4.7l.3 .2c.7 .6 1.5 1.2 2.3 1.6c1.4 .7 3 1.2 4.7 1.2l.8-0.1c.3 0 .5 0 .8-0.1c2.1-0.3 4.7-1.2 7.8-3c0 0 0 0 0 0c1.9-1.2 5.3-3.9 10.1-8.4c4.1-3.8 10.7-10.9 19.7-21.3c2.8-3.1 6.1-7 9.9-11.6c-4.3 7.8-9 16.4-13.9 25.7c-10.5 19.7-18.8 36.6-25 50.6c-6.4 14.3-10.8 26.3-13.5 35.8c0 0 0 0 0 0c-3.1 11.3-4 18.9-3.3 22.8c.5 3.8 1.2 6.1 1.7 7.2c.8 2.1 2 3.3 2.8 4c0 0 0 0 0 0c1.5 1.4 3.9 2.8 7.6 3.1c0 0 0 0 0 0c1.7 .1 4.1 0 7.2-1c0 0 0 0 0 0c1.9-0.6 4.8-2 8.7-4.3c0 0 0 0 0 0c3.3-2 5.8-3.7 7.6-5.1c1.6-1.3 4.1-3.4 7.5-6.4c3.3-2.9 17.1-17.6 41.4-44.3c24-26.4 43.4-48.4 58.1-66.2c0 0 0 0 0 0c14.6-17.8 29.6-36.2 45-55.3c0 0 0 0 0 0c15.3-19.1 33.4-41.8 54.3-68.1c20.9-26.2 47.9-60.2 81-101.8c33.2-41.7 65.4-81.9 96.8-120.6c0 0 0 0 0 0c31.3-38.7 61.1-74.9 89.1-108.6c28-33.6 53.7-64 76.8-91.1c23.2-27.1 41.6-48.4 55.1-63.9c13.5-15.5 32.3-36.7 56.2-63.4c0 0 0 0 0 0c23.9-26.8 42.6-47.6 56.2-62.4c13.5-14.9 31.9-34.7 55.1-59.5c0 0 0 0 0 0c23.2-24.8 53.7-56.7 91.5-95.7c37.8-39 61.5-63.3 71.3-73.1c9.7-9.7 24.5-24.4 44.3-43.9c19.8-19.6 47.7-46.5 83.4-80.7c35.8-34.2 69.3-65.7 100.3-94.4c31.1-28.7 57.7-53.1 79.9-73.2c22.2-20.1 48-43.2 77.6-69.5c17.9-15.9 31.5-28 40.8-36.2c5.1-2.6 9.8-4.8 13.9-6.5c4.7-2 8.4-3.4 11-4.3c-0.7 1.3-1.4 2.5-2.2 3.9c-3 4.8-5.6 8.8-7.9 11.9c-2.4 3.3-5.9 7.8-10.4 13.5c-4.6 5.8-11.8 14.3-21.7 25.8c0 0 0 0 0 0c-10 11.5-24.9 28-44.7 49.6c0 0 0 0 0 0c-19.8 21.7-35.6 38.7-47.3 51.2c-11.7 12.5-27.2 28.9-46.4 49.2c-19.2 20.3-38.7 41-58.7 62.2c-19.9 21.2-43.9 46.8-71.8 76.9c-27.9 30-55.3 59.8-82.3 89.5l-1.6 1.8c-14.4 12.2-36 30.8-64.7 56c-30.5 26.8-57.7 51.1-81.5 73.1c-23.8 21.9-49.6 46.2-77.3 73c-27.7 26.7-51.1 49.6-70.1 68.7c0 0 0 0 0 0c-18.9 19.1-35.1 35.5-48.5 49.4c-13.3 13.8-27.4 28.6-42.2 44.3c-14.9 15.8-34.1 36.7-57.8 62.8c-23.6 26.1-46.2 51.5-67.5 76.2c-21.4 24.6-53.1 62.8-95 114.4c-42 51.7-82.4 103.8-121.4 156.5c-39 52.7-73.9 101.9-104.8 147.7c-30.9 45.8-50.9 75.9-60 90.3c0 0 0 0 0 0c-9.2 14.4-18.3 29-27.4 43.7c-9.2 14.8-19.9 32.7-32.2 53.6c0 0 0 0 0 0c-12.4 20.9-28.6 49.9-48.8 87c0 0 0 0 0 0c-20.2 37.2-34.5 64.4-42.9 81.7c-8.4 17.4-15.4 32.7-21.1 45.9c-5.7 13.3-10.9 26.8-15.5 40.4c-4.9 14.2-7.7 25.3-8.6 33c0 0 0 0 0 0c-1.2 10.4-0.3 16.7 .8 18.9c2 4.2 4.1 6 4.7 6.5c1.4 1 3.1 1.7 4.8 1.9c2.2 .2 7.3-0.5 14.4-4.2c4.9-2.6 11.1-7.4 18.6-14.6c6.8-6.5 16.6-17.4 29.3-32.6c12.5-15 25.4-31.3 38.5-48.8c13.1-17.5 24.2-32.5 33.3-45.1c9-12.6 20.6-28.9 34.7-49.1c0 0 0 0 0 0c14.1-20.1 32.8-47.2 56-81c0 0 0 0 0 0c23.2-33.9 42.5-62.1 57.8-84.5c15.3-22.5 35.4-52 60.4-88.5c25-36.5 47-68.6 66-96.1c19.1-27.5 35.6-51.2 49.7-71.2c0 0 0 0 0 0c14-20 32.7-46.3 56-79c23.4-32.6 40.4-56.2 51-70.8c0 0 0 0 0 0c10.6-14.5 25.1-34.2 43.5-59c18.5-24.8 37.3-49.8 56.5-75.1c19.2-25.2 44-57.2 74.4-95.9c30.4-38.6 60.2-75.8 89.3-111.4c29.2-35.6 61.3-74.1 96.6-115.4c35.2-41.3 56.9-66.7 65.1-76c8.2-9.3 20.6-23.4 37.3-42.2c16.2-18.2 37.1-41.5 62.8-69.8l1.6-1.3c14.3-12 28.1-23.5 41.6-34.6c0 0 0 0 0 0c13.5-11 27.9-22.5 43.1-34.6c15.2-12 26.6-21 34.4-27c7.8-5.9 21.3-16 40.5-30.2c19.2-14.2 36.2-26.4 50.8-36.5c0 0 0 0 0 0c14.6-10.1 30.1-20.3 46.4-30.4c16.2-10.1 27.8-17 34.8-20.7c0 0 0 0 0 0c6.9-3.7 13-6.7 18.3-9c0 0 0 0 0 0c4.9-2.2 10.4-4 16.5-5.5c1.7-0.4 3.4-0.7 4.9-0.8c-0.2 1.3-0.5 2.5-0.9 3.7c-1.1 2.9-3.6 7.9-7.6 15.1c0 0 0 0 0 0c-4.1 7.6-8.2 14.5-12.4 20.8c-4.2 6.3-9.5 14.1-16 23.1c-6.6 9.2-13.9 19-22 29.6c-8.1 10.6-19.4 25-33.9 43.2c-14.5 18.2-34.9 43.2-60.9 74.8c-26.1 31.7-51 61.9-74.8 90.6c-23.7 28.6-41.7 50.4-53.9 65.2c-12.2 14.8-35.5 43.3-69.7 85.4c-34.3 42.2-62.4 77.2-84.4 104.9c-22 27.7-38.8 48.9-50.2 63.6c-11.5 14.7-31.4 40.7-59.8 77.8c-28.4 37.2-50.1 65.9-65.1 86c-15.1 20.2-33.3 44.9-54.7 74.2c-8.5 11.6-16.2 22.2-23.1 31.7c-2.6 3.1-5.2 6.1-7.6 9.1c-21.9 26.2-42.9 51.7-62.8 76.4c-19.9 24.8-36.4 45.5-49.4 62.3c-13 16.7-27.6 35.8-43.8 57.3c-16.3 21.5-31.4 41.8-45.3 60.8c-13.9 19-30 41.6-48.4 67.7c-18.5 26.2-29.4 41.8-32.9 46.9c0 0 0 0 0 0c-3.5 5-7.7 11.3-12.8 18.8c0 0 0 0 0 0c-5 7.4-11.8 17.7-20.5 30.6c-8.6 13-19.6 30.1-33.1 51.2c-13.5 21.2-25.9 41.2-37.3 60.2c0 0 0 0 0 0c-11.3 19-19.6 33.3-24.8 42.7c0 0 0 0 0 0c-5.3 9.5-9.2 16.9-11.8 22.2c-2.8 5.6-4.8 10.6-6.2 14.9c0 0 0 0 0 0c-1.5 4.4-2.1 7.3-2.1 8.8c-0.1 2.2 .3 3.8 .8 4.9c1 2.5 3 4.5 5.5 5.6c2.5 1 5.3 1 7.8 0c1.8-0.7 4.3-2.3 7.3-5.2c1.8-1.8 5.1-5.4 9.6-11.1c4.2-5.2 9.3-11.9 15.3-20.1c5.9-8.2 15.9-22.3 29.8-42.4c13.9-20 31.4-45.5 52.3-76.4c20.9-30.9 36.3-53.7 46.2-68.4c0 0 0 0 0 0c9.9-14.7 22.2-33 37-54.9c14.8-21.8 32-47.1 51.7-76c19.6-28.8 45.9-66.8 78.8-114c32.9-47.2 52.8-75.7 59.6-85.3c6.9-9.6 16-22.4 27.5-38.4c6.8-9.5 15.4-21.4 25.7-35.6c20.6-24.3 46.2-53.9 76.8-88.5c34.7-39.4 61.6-69.3 80.6-89.8c19.1-20.5 41.6-44.2 67.6-71.1c26-26.9 45.6-46.8 58.6-59.7c13-13 22.6-22.5 28.8-28.5c6.1-6 20.9-20.1 44.3-42.2c23.4-22.1 42.2-39.5 56.2-52.1c14-12.6 27.3-24.4 39.9-35.3c12.6-10.9 23.1-19.9 31.5-26.9c8.3-7 18.1-14.9 29.1-23.7c11.1-8.8 24.2-18.6 39.3-29.5c15.1-10.7 25.6-17.9 31.6-21.5c0 0 0 0 0 0c5.8-3.5 10.1-6 13-7.4c0 0 0 0 0 0c1.6-0.9 3.5-1.7 5.4-2.4v.2c-2.8 6.4-6.4 13.1-10.9 20.2c-4.7 7.4-14.6 21.3-29.8 41.7c-15.3 20.5-26.8 35.6-34.6 45.3c-7.8 9.8-19 23.5-33.6 41.2c-14.6 17.8-31.5 37.9-50.5 60.3c0 0 0 0 0 0c-19 22.5-37.1 43.7-54.2 63.7l-19.5 22.8c-8.1 5.5-16.6 11.6-25.6 18.4c0 0 0 0 0 0c-11.7 8.8-30 23.6-54.9 44.3c-24.9 20.7-48.5 41.1-70.8 61.3c-22.3 20.2-47.2 43.5-74.6 69.9c-27.5 26.4-51.3 50-71.6 70.6c-20.3 20.6-34.3 34.9-41.9 42.9c0 0 0 0 0 0c-7.7 8-18.6 19.7-32.8 34.9c-14.2 15.2-32.1 35-53.8 59.3c0 0 0 0 0 0c-21.7 24.3-41.6 47.1-59.5 68.3c0 0 0 0 0 0c-18 21.2-34.8 41.5-50.3 60.9c-15.6 19.3-28 35.1-37.3 47.2c-9.4 12.2-21 28.2-34.9 47.8c0 0 0 0 0 0c-14 19.8-25.2 36.8-33.8 51c-8.8 14.6-14.3 24.5-16.5 29.7c0 0 0 0 0 0c-2.7 6.2-4.2 11.2-4.6 14.9c-0.4 3.7-0.4 6.1-0.2 7.2c.3 2.2 1 3.6 1.6 4.5c0 0 0 0 0 0c.9 1.4 1.9 2.5 2.9 3.3c1.9 1.5 4.2 2.3 6.5 2.3c3.1 0 6.9-0.8 11.3-2.9c3.1-1.5 8.6-5.2 16.6-11.4c7.2-5.6 18.5-15.7 33.7-30.3c15-14.3 27.4-26.6 37.2-36.6c0 0 0 0 0 0c9.7-10.1 20.6-21.5 32.6-34.3c12-12.8 26.4-28.5 43.2-47c16.8-18.4 37.8-41.8 63-70c25.1-28.2 40.4-45.5 46-51.8c5.5-6.3 25.9-29.5 61.2-69.8c35.3-40.3 73.8-84.4 115.5-132.3c41.7-47.9 81.9-94.1 120.5-138.7c38.6-44.5 61.8-71.2 69.3-80c0 0 0 0 0 0c4-4.6 9.2-10.7 15.7-18.3c1.7-1.1 3.3-2.2 4.9-3.3c9.7-6.4 16.5-10.7 20.5-12.9c0 0 0 0 0 0c3.8-2.2 7.4-4 10.9-5.6c0 0 0 0 0 0c1.4-0.6 2.8-1.2 4.2-1.7c-1.4 4.7-3.9 10-7.2 15.9c-4.5 8.1-9.4 16-14.5 23.7c-5.2 7.8-9.5 14-12.8 18.7c-3.3 4.7-5.9 8.3-7.7 10.7c0 0 0 0 0 0c-1.8 2.5-14.8 19.3-38.9 50.4c-24.1 31.2-45.6 58.4-64.5 81.6c0 0 0 0 0 0c-19 23.3-34.6 42.4-46.9 57.3c-12.3 15-22.2 26.9-29.5 35.8c-7.4 8.9-14.2 17-20.3 24.4c0 0 0 0 0 0c-6.2 7.3-12.7 15.2-19.8 23.7c-7 8.4-29.7 35.5-68 81.4c-38.3 45.8-66.9 80-85.8 102.6c0 0 0 0 0 0c-18.8 22.5-37.3 44.6-55.5 66.3l-30.6 36.5c-11.9 13.1-23 25.5-33.4 37.2c-14 15.8-24.9 28.3-32.8 37.5c-7.9 9.2-16.6 19.5-26.1 31c0 0 0 0 0 0c-9.6 11.6-16.4 20.1-20.4 25.6c-3.9 5.3-5.9 8.2-6.3 8.8c-5.1 8.6 3.3 13.9 4.3 14.4c3.6 1.8 7.9 1.3 11-1.3c1-0.8 2.1-1.8 3-2.8c.7-0.8 1.6-1.7 2.5-2.8c1-1 2.8-3.1 5.4-6.1c2.6-3 6.6-7.6 11.9-13.8c5.3-6.2 11-12.9 17.2-20.2c0 0 0 0 0 0c6.2-7.3 13.2-15.6 21.2-25.1c7.9-9.4 14.4-17.1 19.3-22.9c5-5.9 13.3-15.8 24.9-29.6l13.7-16.4c4-4.4 8-8.8 12.1-13.4c16.5-18 34.6-37.5 54.4-58.4c19.7-20.9 34.9-36.9 45.5-47.8c0 0 0 0 0 0c10.7-11 26.9-27.4 48.7-49.3c0 0 0 0 0 0c21.9-21.9 38.9-38.8 51.1-50.7c12.2-11.8 36.2-34.5 72.1-68c35.9-33.5 63.6-58.9 83-76.1c19.4-17.2 35.6-31.4 48.6-42.6c13-11.2 35.9-30.3 68.6-57.1c0 0 0 0 0 0c32.8-26.9 60.9-49.4 84.5-67.6c23.7-18.1 38.6-29.5 44.8-34.1c0 0 0 0 0 0c6.3-4.6 12-8.8 17.2-12.5c5.1-3.8 19.1-13.5 41.9-29.1c0 0 0 0 0 0c22.7-15.6 40-27.1 51.8-34.6c0 0 0 0 0 0c11.8-7.4 25.2-15.3 40.3-23.6c0 0 0 0 0 0c14.8-8.3 28.2-15 40.1-20c0 0 0 0 0 0c11.3-4.8 19.7-7.8 25-8.9c4.3-0.9 7.6-1.4 10-1c0 0 0 0 0 0h.4v.7c-0.3 2.2-0.7 4.1-1.3 6c-0.8 2.3-3.4 7.4-7.8 15.6c0 0 0 0 0 0c-4.7 8.7-14.1 22.8-28.2 42.1c0 0 0 0 0 0c-14.4 19.8-30.1 39.8-47 60.1c-16.9 20.3-30.2 35.9-39.7 46.8c-9.5 10.9-16.2 18.6-20.3 23.1c-4 4.6-22.1 24.5-54.1 59.7c-32.1 35.2-59.5 65.1-82.3 89.7c0 0 0 0 0 0c-22.9 24.6-40.9 44-54.1 58.1c0 0 0 0 0 0c-13.2 14.2-31.6 33.9-55.4 59.3c0 0 0 0 0 0c-23.7 25.4-45.7 49-66.2 70.9c-20.5 21.9-38.8 41.6-54.8 58.9c-16.1 17.3-30.7 33.1-43.9 47.3c-13.1 14.2-26.3 28.5-39.5 42.9c0 0 0 0 0 0c-13.2 14.5-25.7 28.3-37.4 41.4c-11.8 13-21.5 24-29.2 32.9c0 0 0 0 0 0c-7.8 9-13 15.1-15.6 18.4c-2.8 3.4-4.7 5.9-5.8 7.3c-1.3 1.8-2.4 3.7-3.5 5.7c-2.9 5.4-1.4 9.4-0.6 10.9c1.4 2.9 3.8 4.9 7.3 5.6c1.4 .3 4.2 .6 7.7-1.3c0 0 0 0 0 0c1.5-0.7 6.7-4.6 15.4-11.7c0 0 0 0 0 0c7.9-6.4 16.3-13.6 25.3-21.4c9-7.8 17.6-15.3 25.8-22.5c8.3-7.2 18.6-16.3 31.1-27.3c0 0 0 0 0 0c12.6-11 23.7-20.7 33.4-29.2c9.8-8.5 19.4-16.9 28.8-25.1c9.5-8.2 26.8-23 51.9-44.5c25.1-21.4 47.4-40.4 67-56.7c0 0 0 0 0 0c19.7-16.4 35.6-29.7 47.9-39.8c12.3-10 37-29.8 74.3-59.4c0 0 0 0 0 0c37.2-29.5 65.4-51.4 84.5-65.8c19.1-14.3 38.9-28.8 59.3-43.3c20.5-14.5 35.2-24.7 44.1-30.7c0 0 0 0 0 0c9-5.9 15.8-10.3 20.5-13.3c0 0 0 0 0 0c4.7-3 14.4-8.4 29-16.3c0 0 0 0 0 0c13-7 22.6-11.6 28.7-13.5c-2.1 5.7-6 12.8-11.5 21.3c-7.2 11.2-13.6 20.5-19.2 28c-5.6 7.6-19.3 24.7-41 51.5c0 0 0 0 0 0c-21.8 26.8-40.7 49.7-56.7 68.6c-16 19-31.4 37.1-46.1 54.3c-14.7 17.2-36.1 42.3-64.3 75.4c-28.2 33.1-51.6 60.7-70.3 82.8c-18.7 22.1-38 45.2-58 69.3c-20 24.1-36.3 43.9-48.9 59.2c-12.6 15.4-30.6 37.6-54 66.7c0 0 0 0 0 0c-23.4 29.1-44.5 55.7-63.4 79.7c-18.9 24-32.8 41.8-41.9 53.5c-9 11.7-24.1 31.3-45.2 59c-21.1 27.7-37.4 49.2-48.8 64.4c-11.4 15.2-25.2 33.6-41.2 55.3c-16.1 21.6-32.5 43.9-49.3 66.8c-16.8 23-32.9 45.1-48.4 66.4c-15.5 21.3-43.3 59.7-83.3 115.4c-3.3 4.6-2.3 11 2.3 14.3c4.6 3.3 11 2.2 14.3-2.4c40-55.6 67.8-94 83.2-115.3c15.5-21.3 31.6-43.4 48.4-66.3c0 0 0 0 0 0c16.8-22.9 33.2-45.1 49.2-66.7c0 0 0 0 0 0c16-21.6 29.8-40 41.2-55.2c0 0 0 0 0 0c11.4-15.2 27.6-36.7 48.7-64.3c21-27.6 36.1-47.2 45.1-58.9c9-11.6 23-29.4 41.8-53.4c0 0 0 0 0 0c18.8-23.9 39.9-50.4 63.3-79.5c23.3-29 41.3-51.2 53.8-66.5c0 0 0 0 0 0c12.6-15.3 28.8-35 48.8-59.1c0 0 0 0 0 0c20-24.1 39.3-47.2 57.9-69.2c18.7-22.1 42.1-49.7 70.3-82.8c0 0 0 0 0 0c28.1-33 49.6-58.1 64.3-75.3c14.7-17.2 30-35.3 46.1-54.4c0 0 0 0 0 0c16.1-19 35.1-42 57-68.9c21.9-27.1 35.8-44.5 41.5-52.1c5.8-7.8 12.5-17.6 20-29.2c0 0 0 0 0 0c8.1-12.6 13.1-22.8 15.1-30.4c1.8-6.5 2.7-10.1 2.9-10.8c1.1-5.1-1.4-7.8-1.6-8.1c-1.3-1.8-3.1-3.2-5.2-3.9c-4.9-1.6-11.9-1.7-20.9 .7c0 0 0 0 0 0c-6.9 1.8-18.4 7-34.4 15.6c-15.3 8.3-25.4 13.9-30.2 17c-4.8 3-11.7 7.6-20.8 13.6c-9.1 6-24 16.3-44.7 31c0 0 0 0 0 0c-20.6 14.7-40.6 29.2-59.8 43.7c0 0 0 0 0 0c-19.2 14.4-47.5 36.5-84.9 66.1c-37.4 29.6-62.3 49.5-74.6 59.6c0 0 0 0 0 0c-12.3 10.2-28.3 23.4-48 39.9c-19.7 16.4-42.1 35.4-67.2 56.9c0 0 0 0 0 0c-25.2 21.5-42.5 36.3-52 44.5c0 0 0 0 0 0c-9.4 8.3-19.1 16.6-28.8 25.2c0 0 0 0 0 0c-9.7 8.4-20.8 18.1-33.2 29l7.8-8.5c13.2-14.5 26.4-28.8 39.4-43c13.2-14.1 27.7-29.9 43.8-47.2c16.1-17.3 34.4-36.9 54.8-58.8c0 0 0 0 0 0c20.5-21.9 42.6-45.6 66.3-71c23.7-25.3 42.1-45.1 55.4-59.2c13.2-14.2 31.2-33.5 54.1-58.2c22.8-24.6 50.3-54.6 82.4-89.8c0 0 0 0 0 0c32.1-35.4 50.2-55.3 54.3-59.9c0 0 0 0 0 0c4.1-4.6 10.9-12.3 20.4-23.2c9.6-11 22.9-26.7 40-47.2c0 0 0 0 0 0c17.2-20.7 33.2-41 47.8-61.1c14.9-20.5 24.8-35.3 29.7-44.5c5.2-9.8 8.2-16 9.1-18.7c0 0 0 0 0 0c1.1-3.2 1.8-6.5 2.3-10.1c.5-4.4 .3-7.6 0-9.5c-0.6-2.7-1.5-4.8-2.5-6.3c-0.7-1.1-1.6-2.1-2.7-2.9c-3.6-2.5-7.8-4.1-12.7-4.8c-4-0.5-9.6-0.3-16.9 1.2c-6.2 1.3-15.8 4.6-28.9 10.2c-12.5 5.2-26.5 12.2-42.1 20.9c-15.4 8.6-29.1 16.6-41.2 24.2c-12 7.5-29.5 19.2-52.5 35c-23 15.8-37.1 25.6-42.4 29.4c0 0 0 0 0 0c-5.2 3.8-10.9 8-17.2 12.6c-6.3 4.7-21.3 16.1-45.1 34.4c-23.8 18.3-52.1 40.9-85.1 68c-32.9 27-55.9 46.1-68.9 57.4c0 0 0 0 0 0c-13.1 11.2-29.4 25.5-48.9 42.8c-19.5 17.3-47.3 42.8-83.3 76.4c-36.1 33.7-60.2 56.5-72.5 68.4c0 0 0 0 0 0c-2.7 2.6-5.6 5.4-8.7 8.5l51.4-61.5c0 0 0 0 0 0c7.1-8.5 13.7-16.4 19.8-23.7c6.1-7.4 12.9-15.6 20.3-24.5c0 0 0 0 0 0c7.4-8.9 17.3-20.8 29.6-35.8c0 0 0 0 0 0c12.3-14.9 28-34 46.9-57.4c19-23.3 40.6-50.7 64.9-82c0 0 0 0 0 0c24.3-31.3 37.3-48.3 39.2-50.8c1.8-2.5 4.5-6.2 7.9-11c0 0 0 0 0 0c3.4-4.8 7.8-11.2 13.1-19.2c0 0 0 0 0 0c5.4-8.1 10.5-16.4 15.4-25c5.2-9.4 8.6-17.6 10.2-24.6c1.7-7.5 2.1-11.8 2-13c-0.2-2.3-0.9-3.7-1.5-4.7c-1.2-1.9-3-3.4-5.2-4.2c-4.1-1.5-9.2-2-15.2-0.7c0 0 0 0 0 0c-1.3 .2-2.5 .5-3.7 .8c12.1-14.2 24.8-29.1 37.8-44.6c19.1-22.5 36-42.7 50.7-60.5c14.7-17.8 25.9-31.6 33.8-41.4c0 0 0 0 0 0c7.9-9.8 19.5-25.1 35-45.9c0 0 0 0 0 0c15.6-21 25.9-35.3 30.7-43c5.1-8 9.2-15.7 12.4-23.1c3.9-9.2 5.2-15.1 5.1-17.3c-0.2-3.8-1-6-1.3-6.6c-0.6-1.3-1.5-2.5-2.7-3.5c-1.6-1.3-3.4-2.3-5.4-3c-1.5-0.5-3.7-0.9-6.6-0.8c0 0 0 0 0 0c-2 0-5.6 .7-10.9 2.4c0 0 0 0 0 0c-4.3 1.4-8.2 3-11.6 4.7c-3.1 1.5-7.9 4.3-14.3 8.1c-6.3 3.8-17.3 11.3-33 22.5c0 0 0 0 0 0c-15.5 11.1-28.9 21.2-40.1 30.1c0 0 0 0 0 0c-11.2 8.9-21.1 16.9-29.5 24c-8.5 7.1-19.1 16.1-31.8 27.1c-12.7 11-26.1 22.9-40.2 35.6c-14.1 12.7-32.9 30.2-56.5 52.4c-23.6 22.3-38.4 36.4-44.6 42.5c0 0 0 0 0 0c-6.2 6-15.9 15.5-29 28.6c-13 13-32.6 33-58.8 60c0 0 0 0 0 0c-24.3 25.1-45.6 47.5-63.9 67.1c26.6-34.7 45.3-59.1 56.3-73.2c11.4-14.6 28.1-35.8 50.1-63.5c0 0 0 0 0 0c21.9-27.6 50-62.5 84.2-104.7c34.2-42.1 57.5-70.5 69.6-85.3c12.2-14.8 30.2-36.5 54-65.2c23.7-28.7 48.7-58.9 74.8-90.6c26.1-31.7 46.5-56.8 61.1-75c14.6-18.4 26-32.9 34.2-43.6c0 0 0 0 0 0c8.2-10.7 15.6-20.7 22.3-30c6.7-9.4 12.2-17.3 16.5-23.9c0 0 0 0 0 0c4.4-6.7 8.8-14.1 13.3-22.2c4.6-8.4 7.5-14.4 8.8-17.8c0 0 0 0 0 0c1.5-4.2 2.4-8.8 2.5-13.7c0-4.4-0.3-7.4-0.7-8.8c-0.6-2-1.5-3.3-2.3-4.2c-1.3-1.5-3-2.7-4.9-3.2c-6.3-1.9-13.8-2-22.6 0c0 0 0 0 0 0c-7.3 1.8-14 4-20 6.7c-5.6 2.5-12.2 5.7-19.6 9.6c-7.3 3.9-19.3 11-36 21.4c-16.6 10.4-32.3 20.7-47.2 30.9c-14.8 10.3-31.9 22.6-51.3 36.9c-19.4 14.3-33 24.5-40.8 30.5c0 0 0 0 0 0c-3.5 2.7-7.7 6-12.6 9.8c23.2-25 43.4-46.6 60.7-65c0 0 0 0 0 0c20-21.2 39.5-41.9 58.7-62.2c19.2-20.3 34.7-36.7 46.4-49.2c0 0 0 0 0 0c11.7-12.5 27.6-29.6 47.5-51.4c20-21.7 35-38.4 45.1-50c10.1-11.8 17.5-20.6 22.2-26.5c4.7-5.9 8.3-10.6 10.9-14c0 0 0 0 0 0c2.6-3.6 5.5-8 8.8-13.4c3.8-6.3 6.2-11.8 7.3-16.5c1.2-5.2 1.4-8.3 1.3-9.1c-0.1-2.1-0.8-3.5-1.3-4.4c-1-1.9-2.6-3.4-4.6-4.3c-1.8-0.8-3.9-1.4-6.2-1.8c10.2-9 21.9-19.2 35-30.7c0 0 0 0 0 0c13.1-11.5 30-26.4 50.9-44.8c0 0 0 0 0 0c20.9-18.5 39.3-34.9 55.2-49.3c0 0 0 0 0 0c16-14.4 29.4-26.9 40.4-37.3c11-10.6 19.6-19.2 25.5-25.6c6.3-6.9 10.5-11.8 12.8-15c3-4.2 4.6-7.5 5.3-9.7c0 0 0 0 0 0c1.3-4.4 .9-7.1 .8-7.7c-0.7-3.3-3.1-6.1-6.2-7.3c-2.7-1.1-7-1.7-12.9-0.6c0 0 0 0 0 0c-3.7 .7-10.3 3-19.8 7c0 0 0 0 0 0c-8.8 3.8-15.4 6.9-20 9.2c-4.4 2.3-10.1 5.4-17 9.2c0 0 0 0 0 0c-6.8 3.7-14.9 8.3-24.3 13.8c-9.3 5.4-17.2 10.1-23.7 14c-6.4 3.9-15 9.2-25.6 15.8c-10.6 6.6-21.5 13.5-32.7 20.7c-11.3 7.2-27.9 18.1-50 32.8c-22 14.6-45.7 30.8-71 48.3c-25.4 17.6-54.1 38.1-86.4 61.5c-32.2 23.3-60.2 44.1-84.2 62.1c-23.9 18.1-47.6 36.3-71 54.7c-23.5 18.3-42.2 33.1-56.1 44.4c-9 7.2-20.7 16.8-35.2 28.7c7.1-7.3 14.6-14.9 22.4-23c35-35.8 65.5-66.8 91.5-92.9c0 0 0 0 0 0c26.1-26.1 46.5-46.5 61.2-61.1c14.7-14.6 30.3-30.1 46.9-46.5c16.6-16.5 32.3-32 47.1-46.7c14.8-14.8 30-29.9 45.5-45.5c0 0 0 0 0 0c15.5-15.6 30.7-31.2 45.7-46.7c15-15.6 26.9-28.2 35.8-37.9c9-9.8 18-20.4 27.3-31.8c0 0 0 0 0 0c9.8-12.2 16.4-22.5 20.2-31c3.6-8.4 5.4-13.2 5.6-14.4c.6-3.3-0.4-5.5-0.9-6.5c-0.6-1.3-1.6-2.5-2.7-3.4c-1.6-1.4-3.5-2.4-5.7-3.2c0 0 0 0 0 0c-1.7-0.5-4.5-1-8.4-0.9c0 0 0 0 0 0c-2.8 .1-6.8 .7-11.9 2c-4.3 1.2-10.8 3.5-19.2 7c-8.1 3.4-19.2 8.8-33.6 16.3c0 0 0 0 0 0c-14.1 7.5-23.9 12.7-29.3 15.9c0 0 0 0 0 0c-5.4 3.1-11.6 6.7-18.5 10.9c0 0 0 0 0 0c-6.9 4.1-16.1 9.8-27.6 17c-11.5 7.2-28.5 18.2-50.9 33c-22.3 14.8-56 38.3-101.1 70.6c-45.1 32.2-75.4 54.2-91 66c0 0 0 0 0 0c-9.3 7.1-21.2 16.3-35.7 27.5c14.6-13.9 26.1-24.7 34.4-32.6c12.6-11.8 28.9-27 48.8-45.5c19.8-18.5 36-33.4 48.4-44.9c12.4-11.4 27.5-25.3 45.4-41.7c17.8-16.4 34.2-31.5 49-45.3c14.9-13.7 26.4-24.4 34.3-31.9c8-7.5 15.9-15 23.8-22.6c0 0 0 0 0 0c7.9-7.7 16.3-16.4 25.2-26c9.4-10.3 14.6-16.4 15.7-18.1c1.9-3.1 2.7-5.4 2.9-6.6c0 0 0 0 0 0c.6-2.8 .4-4.5 .3-4.9c-0.8-4.2-4-7.5-8.2-8.3c-2.5-0.5-6.5-0.3-12 1.4c-3.5 1.1-10.1 4.1-19.8 9.3c-9 4.8-15 8.2-18 10c-3 1.8-7.7 4.7-14.1 8.7c-6.3 4-16.6 10.7-30.9 20.1c-14.2 9.4-29.6 19.9-46.3 31.5c-16.7 11.6-34 23.9-52 36.9c0 0 0 0 0 0c-18 13-32.9 23.9-44.8 32.7c-11.9 8.8-30.2 22.7-55 41.6c-24.8 18.9-46.5 35.7-65.2 50.4c-18.7 14.7-40.1 31.8-64.1 51.2c0 0 0 0 0 0c-23.9 19.4-47.9 39.1-71.8 59.1c0 0 0 0 0 0c-24 20-44.8 37.6-62.6 52.9c0 0 0 0 0 0c-17.8 15.3-45.5 39.8-83.3 73.4c-37.7 33.7-76.6 69.5-116.7 107.2c-40.1 37.8-66.8 63.1-80 76c0 0 0 0 0 0c-13.2 12.9-24.7 24.3-34.5 34c-9.9 9.8-21.4 21.4-34.7 34.8c-13.4 13.4-26.5 26.8-39.6 40.2c-13.1 13.4-26.8 27.6-41.1 42.6c-14.4 15-32 33.7-53 56.2c-21 22.4-51.9 56.4-92.8 101.9c-40.8 45.5-77.8 87.5-110.8 126c-33.1 38.5-66 77.3-98.7 116.6c-32.7 39.3-54.1 65.1-64.2 77.5c0 0 0 0 0 0c-10.1 12.4-24.7 30.2-43.6 53.4c-18.9 23.1-36.7 44.9-53.3 65.3c-16.6 20.4-31.2 38.1-43.7 53.2c-11.8 14.2-22.9 27.2-33.2 39c2.4-4.3 5.1-9 8-14.1c12.6-21.8 24.4-41.6 35.5-59.2c11.1-17.7 20.2-32 27.3-42.9c7.1-10.9 14.1-21.7 21.2-32.4c7.1-10.7 18.3-27.3 33.8-50c15.4-22.8 34.2-49.8 56.3-81c0 0 0 0 0 0c22.1-31.3 47.6-66.4 76.4-105.4c28.9-39 49.1-66 60.6-81c11.5-15.1 23.4-30.5 35.7-46.2c12.2-15.7 32.8-41.5 61.8-77.4c28.9-35.9 70.4-85.4 124.5-148.4c54.1-63 86.8-100.8 98.1-113.3c11.2-12.4 24.1-26.6 38.7-42.5c0 0 0 0 0 0c14.6-16 33.7-36.6 57.5-61.9c23.9-25.4 59.9-62.6 108.2-111.7c48.2-49.1 87.8-88.6 118.6-118.6c30.8-30 66.8-64.4 108.1-103.3c41.2-38.8 67.6-63.5 79.1-74.1c11.4-10.6 23.7-21.9 36.9-34c13.1-12 31.7-29 55.8-50.8c24-21.9 48.2-43.9 72.4-65.9c24.3-22.1 48.2-44 71.8-65.6c23.5-21.7 41.4-38.3 53.6-49.9c12.2-11.6 20.9-20 26.3-25.3c5.3-5.2 12.1-12.1 20.4-20.7c0 0 0 0 0 0c8.4-8.6 16.7-18 25.1-28.1c0 0 0 0 0 0c9.1-11 14.6-19.6 16.9-25.4c0 0 0 0 0 0c2.3-6 3.3-9.6 3.4-10.5c.3-2.7-0.4-4.5-0.8-5.4c-0.8-2-2.3-3.6-4.1-4.7c-3.1-1.9-7.4-3.2-13.2-3.1c-4.1 0-9.5 .9-16 2.8c-5.8 1.6-12.8 4.1-21 7.5c-8 3.2-16.9 7.2-26.8 12c0 0 0 0 0 0c-9.8 4.7-23.8 12-42.1 21.9c0 0 0 0 0 0c-18.1 9.8-42.4 23.8-72.7 41.9c0 0 0 0 0 0c-30.3 18.1-50.9 30.6-62 37.5c0 0 0 0 0 0c-11 7-26.2 16.8-45.7 29.4c0 0 0 0 0 0c-19.4 12.6-46.6 30.8-81.4 54.6c0 0 0 0 0 0c-34.8 23.7-61.4 42.1-79.8 55.2c0 0 0 0 0 0c-18.4 13.1-42.6 30.6-72.5 52.7c0 0 0 0 0 0c-29.9 22.1-60.8 45.3-92.6 69.8c0 0 0 0 0 0c-31.8 24.5-58.4 45.4-80 62.7c-21.6 17.3-44.8 36.2-69.6 56.8c0 0 0 0 0 0c-24.9 20.7-60.7 51.4-107.4 92.3l-15.3 13.5c21-20.8 41.8-41.3 62.5-61.3c29.6-28.7 58.7-56.6 87.3-83.8c28.7-27.2 61.1-57.7 97.2-91.4c36.2-33.7 67.6-62.9 94.4-87.6c0 0 0 0 0 0c26.8-24.7 52.9-48.9 78.5-72.6c0 0 0 0 0 0c25.5-23.7 45.3-42.2 59.2-55.3c13.9-13.2 31.8-30.5 53.6-51.9c21.9-21.5 38.2-38.1 49-49.7c11-11.9 20.1-22.6 27.3-32.1c0 0 0 0 0 0c8-10.7 12.6-18.9 14.2-24.2c1.9-6.2 2.3-10 2.2-11.1c-0.2-2.1-0.9-3.5-1.5-4.5c-1-1.8-2.6-3.2-4.4-4.1c-4.3-2-8.8-2.9-13.7-2.6c-3.7 .2-10.1 1.6-19.3 4.6c0 0 0 0 0 0c-8.3 2.7-16 5.6-23.2 8.8c-6.9 3.1-19.1 9.3-36.4 18.4c-17.2 9.1-36.4 20-57.7 32.6c-21.2 12.7-42.6 25.9-64.4 39.9c-21.7 13.9-45 29.3-70 46.3c-25 16.9-51.2 35.1-78.4 54.5c-27.3 19.5-52.4 37.8-75.5 54.9c-23.1 17.2-49.8 37.5-80.1 61c-30.3 23.5-54.2 42.3-71.7 56.4c-17.5 14.1-37.2 30.3-59.2 48.5c0 0 0 0 0 0c-22.1 18.3-42.9 35.8-62.4 52.5c0 0 0 0 0 0c-19.5 16.7-44.8 38.9-75.9 66.5c-31.1 27.7-59 53-83.7 76c0 0 0 0 0 0c-24.7 22.9-43.9 40.9-57.5 53.9c-13.6 13-30.5 29.5-50.9 49.5c-20.3 19.9-49.8 49.9-88.6 89.8c-38.7 39.9-68.7 71.2-89.7 93.9c-21.1 22.7-39.4 42.7-55 60c-15.6 17.3-33.6 37.6-54.1 60.9c-20.5 23.3-45.8 52.8-76.1 88.5c0 0 0 0 0 0c-30.2 35.8-53.7 63.9-70.4 84.3c-16.8 20.4-32.5 39.8-47.3 58.2c-14.7 18.4-32.1 40.3-52.2 65.7c-20.1 25.5-39.9 50.8-59.4 76.1c-19.6 25.3-39.5 51.2-59.8 77.8c-20.2 26.6-36.6 48.2-49.2 64.8c0 0 0 0 0 0c-12.6 16.6-27.1 35.8-43.5 57.5c0 0 0 0 0 0c-16.4 21.8-27.9 36.9-34.3 45.4c-6.5 8.5-15.1 19.9-26 34c-10.8 14.1-25.1 32.3-43 54.7c-10.4 13-19.5 23.9-27.5 32.9c2.4-4.8 5.4-10.4 8.8-16.7c7.6-14.2 15.1-27.6 22.5-40.4c0 0 0 0 0 0c7.5-12.8 17.2-28.9 29.1-48.4c12-19.5 29.1-46.2 51.3-80.2c0 0 0 0 0 0c22.1-34 47.6-71.7 76.4-113.2c0 0 0 0 0 0c28.8-41.5 48.5-69.6 59.2-84.4c0 0 0 0 0 0c10.7-14.7 22-30.3 34.1-46.5c12-16.3 30-40.2 53.9-71.6c0 0 0 0 0 0c23.9-31.4 47-61.1 69.2-89.2c22.2-28.1 54.3-67.2 96-117.3c41.8-50.2 86.1-101.5 132.8-154c46.8-52.5 81.1-90.5 103-114c21.9-23.5 45.8-48.8 71.9-75.9c26.1-27.2 54.1-55.8 84.1-86c30-30.1 54-54 72-71.6c0 0 0 0 0 0c18-17.7 35.4-34.5 52.2-50.7c0 0 0 0 0 0c16.8-16.1 41.5-39.6 74.3-70.4c0 0 0 0 0 0c32.8-30.8 62.3-58.2 88.3-82c0 0 0 0 0 0c26-23.9 46.5-42.5 61.3-55.9c0 0 0 0 0 0c14.8-13.4 31.4-28.3 49.9-44.9c18.5-16.6 35.6-31.8 51.3-45.8c15.7-14 31.1-27.6 46-40.9c0 0 0 0 0 0c15-13.2 35-30.9 59.9-53c25-22.1 46.5-41.2 64.5-57.4c18.1-16.1 32.1-28.8 42.1-37.9c10-9.2 22-20.4 35.9-33.6c13.9-13.3 23.7-22.8 29.2-28.4c0 0 0 0 0 0c5.6-5.9 11.1-11.9 16.4-18.3c6-7.1 9.8-12.7 11.6-16.7c0 0 0 0 0 0c1.7-3.8 2.6-6.3 2.8-7.4c.5-2.6 .1-4.5-0.2-5.5c-1.2-3.9-4.5-6.6-8.5-7.1c-6-0.8-10.2-0.6-12.5 0c-1.9 .4-4.4 1.2-7.5 2.2c-2.7 1-7.1 2.8-12.9 5.4c-5.7 2.5-13.5 6.4-23.6 11.7c0 0 0 0 0 0c-9.9 5.3-20.1 11-30.6 17.1c-10.4 6-20.8 12.2-31.2 18.6c0 0 0 0 0 0c-10.4 6.4-20.5 12.7-30.3 19c0 0 0 0 0 0c-9.8 6.2-24.4 15.7-43.6 28.4c0 0 0 0 0 0c-19.3 12.8-35.2 23.5-47.9 32.1c-12.7 8.7-29.3 20.3-50.1 34.9c-20.7 14.6-47.4 34-80.3 58.1c0 0 0 0 0 0c-32.8 24-62.5 46.3-89.1 66.6c0 0 0 0 0 0c-26.6 20.4-53.4 41.3-80.5 62.8c-27.1 21.5-52.8 42.3-77.1 62.3c0 0 0 0 0 0c-24.3 20-45.3 37.5-63 52.4c0 0 0 0 0 0c-17.6 15-43.9 37.8-78.9 68.5c0 0 0 0 0 0c-34.9 30.6-70.1 62.4-105.6 95.1c-35.5 32.8-78.6 74.2-129.4 124.1c-50.7 50-84.1 83.3-100 99.8c0 0 0 0 0 0c-16 16.6-27.9 29-35.7 37.2c-7.9 8.3-16.7 17.7-26.5 28.2c-9.8 10.5-24.4 26.4-43.8 47.5c-19.3 21.2-40.5 44.9-63.7 71.1c-23.1 26.2-40.7 46.3-52.7 60.3c-12 14-29.1 34.2-51.2 60.7c-22.2 26.5-50.2 60.8-84 103c-33.9 42.3-69.1 87.3-105.6 135.2c-36.6 47.9-68 89.8-94.5 125.9c0 0 0 0 0 0c-26.4 36.1-46.7 63.9-60.8 83.6c-14.1 19.7-28.8 40.4-44 62c-15.3 21.6-29.3 41.5-42.1 59.8c-12.9 18.3-30.4 43.5-52.6 75.5c-22.2 32-39.9 57.5-53.1 76.6c-13.2 19.1-27.1 39-41.7 59.7c0 0 0 0 0 0c-11.3 16.2-20.7 29.5-28.3 40.1c4.9-8.9 10.6-19 16.9-30.1c0 0 0 0 0 0c15.7-27.6 27-47.1 33.7-58.5c0 0 0 0 0 0c6.8-11.3 14.5-24.1 23.2-38.2c0 0 0 0 0-0.1c8.6-14.1 21.9-35.5 39.9-64c17.9-28.6 30-47.7 36.3-57.3c0 0 0 0 0 0c6.2-9.6 13.1-20.2 20.6-31.7c7.5-11.6 18.6-28.3 33.2-50.1c14.5-21.8 28.8-42.9 42.7-63.4c14-20.4 28.1-40.8 42.4-61.2c14.3-20.4 33.8-47.8 58.5-82.1c24.8-34.3 49.3-67.8 73.7-100.4c24.4-32.6 43.3-57.5 56.5-74.7c0 0 0 0 0 0c13.3-17.2 29.8-38.3 49.5-63.3c19.7-25 45.3-56.7 76.6-95c31.3-38.3 59.8-72.5 85.3-102.5c25.6-30 44.1-51.5 55.5-64.6c0 0 0 0 0 0c11.4-13.1 27.1-30.7 46.9-53c19.9-22.3 48.4-53.5 85.5-93.7c37.1-40.1 79.2-84.4 126.3-132.7c47.1-48.4 96.6-97.9 148.6-148.4c52-50.5 80.2-77.9 84.8-82.3c4.6-4.3 11-10.3 19.2-18c8.3-7.7 20.7-19.3 37.3-34.7c16.6-15.4 37.1-34.1 61.4-56.2c24.3-22 48.8-44.1 73.6-66.1c24.7-22 47.3-41.9 67.8-59.8c0 0 0 0 0 0c20.5-17.9 34.9-30.3 43.1-37.4c8.2-7.1 20.2-17.3 35.9-30.7c15.6-13.5 29.7-25.4 42.1-35.9c0 0 0 0 0 0c12.4-10.6 27.1-23 44-37.2c17-14.3 29.7-25.1 38.3-32.4c0 0 0 0 0 0c8.6-7.2 16.1-13.7 22.6-19.3c0 0 0 0 0 0c6.8-5.9 10.7-9.4 11.8-10.5c.3-0.3 .5-0.6 .7-0.8c2.8-2.2 4.3-5.8 3.8-9.5c-0.2-1.2-7-13.8-16.1-6.9c-2.5 1.5-7 4.5-13.7 9c0 0 0 0 0 0c-8.4 5.6-20 13.9-34.9 24.8c-14.8 10.8-25.4 18.6-31.9 23.5c0 0 0 0 0 0c-6.5 4.8-16.3 12.2-29.4 22.1c0 0 0 0 0 0c-13.1 9.8-26.9 20.4-41.5 31.5c0 0 0 0 0 0c-14.6 11.1-28.8 22-42.7 32.7c-13.8 10.7-28.8 22.4-44.9 35c-16.2 12.6-32.4 25.3-48.7 38.2c-16.3 12.9-36.5 29.1-60.6 48.4c0 0 0 0 0 0c-24.1 19.4-59.4 48.2-105.9 86.6c-46.4 38.4-76.6 63.5-90.5 75.3c0 0 0 0 0 0c-13.8 11.7-32 27.3-54.4 46.6c-22.4 19.3-46.9 40.8-73.7 64.5c-26.8 23.7-54.4 48.4-82.8 74.3c-28.4 25.9-49.9 45.6-64.3 59c-14.4 13.5-34.8 32.8-61.1 57.9c-26.3 25.1-61.6 59.7-105.8 103.7c-44.3 44-72.5 72.4-84.7 84.9c-12.2 12.6-22.8 23.6-31.6 32.8c-8.9 9.2-20 21-33.6 35.3c-13.5 14.3-29 30.9-46.5 49.8c-17.5 18.9-41 44.7-70.4 77.4c-29.5 32.8-53.9 60.2-73.3 82.4c-19.3 22.2-39.1 45.2-59.3 68.9c-20.2 23.6-44.6 52.9-73.4 87.6c-28.7 34.7-63.7 77.9-105 129.7c-41.2 51.8-72.9 92.1-95 120.8c-7.2 9.4-14.4 18.7-21.4 27.9l8.3-11.8c0 0 0 0 0 0c11.7-16.4 24.4-34.2 38.2-53.4c13.8-19.2 27.7-38.3 41.6-57.4c14-19.1 35-47.5 63.1-85.2c28.1-37.7 46-61.6 53.7-71.7c7.8-10.2 17-22.3 27.8-36.3c0 0 0 0 0 0c10.8-14 26.3-34 46.4-59.8c0 0 0 0 0 0c20.2-25.8 46.7-59.1 79.4-99.7c32.7-40.6 65.6-80.8 98.8-120.5c33.2-39.7 61.3-72.8 84.2-99.3c0 0 0 0 0 0c22.8-26.6 52-59.7 87.5-99.5c35.4-39.8 63.4-70.8 83.8-93c20.4-22.3 48.9-52.7 85.3-91.2c36.4-38.6 71.8-75.3 105.9-110.3c0 0 0 0 0 0c34.2-35 57.8-59.1 70.8-72.1c0 0 0 0 0 0c13-13 35.3-35.2 67-66.6c0 0 0 0 0 0c31.7-31.4 62.3-61.5 91.9-90.3c29.5-28.7 60.5-58.8 92.9-90.2c0 0 0 0 0 0c32.4-31.4 57.6-55.9 75.6-73.5c18.1-17.7 32.2-31.6 42.3-41.7c10.2-10.1 22.5-22.6 36.9-37.4c14.5-15 24.2-25.2 29.2-30.6c0 0 0 0 0 0c5-5.5 11.3-12.7 18.8-21.6c7.8-9.4 13.8-18 18.1-25.8c4.2-7.7 6.4-12.3 6.7-13.6c.6-1.8 .5-3.2 .4-4c-0.1-2-0.6-3.5-1-4.4c-1.2-2.6-3.2-4.5-5.8-5.5c-3.9-1.4-9-1.9-15.3-0.8c-4.7 .8-9.8 2.3-15.2 4.5c-5 1.9-9.7 4-14.2 6.2c-4.4 2.1-10.2 5.1-17.4 8.9c-7.1 3.9-19.5 11.1-37.1 21.8c0 0 0 0 0 0c-17.6 10.6-36 22.3-55.4 35.1c-19.3 12.8-40.2 27.1-62.7 42.9c-22.4 15.7-50.2 35.9-83.1 60.4c0 0 0 0 0 0c-32.9 24.5-58.2 43.5-75.7 57.1c-17.5 13.6-43.8 34.6-79.1 63.2c-35.2 28.5-63.1 51.5-83.8 68.9c-20.6 17.5-46.6 39.9-77.8 67.3c-31.2 27.4-52.5 46.4-64.1 56.8c-11.6 10.5-30.7 28.2-57.4 53.1c-26.7 24.9-60.3 57.2-100.7 96.9c-40.5 39.7-64.8 63.7-73.1 72.2c-8.3 8.4-19.4 19.8-33.3 34.1c0 0 0 0 0 0c-13.8 14.4-25.6 26.7-35.3 36.8c-9.7 10.2-25.1 26.7-46.3 49.5c-21.1 22.8-42.1 45.7-62.8 68.7c0 0 0 0 0 0c-10 11.1-21.9 24.6-35.9 40.5Zm1716.4 418.5c-7.1 6.5-14 12.7-20.6 18.8c0 0 0 0 0 0c-23.7 21.9-49.4 46.1-77 72.7c0 0 0 0 0 0c-27.6 26.6-50.8 49.4-69.8 68.4c-18.9 19-35 35.4-48.2 49.2c-13.3 13.7-27.4 28.5-42.1 44.2c-14.8 15.7-34 36.5-57.5 62.5c-23.6 25.9-46 51.2-67.3 75.8c0 0 0 0 0 0c-21.3 24.5-52.8 62.5-94.6 113.9c-41.7 51.4-82 103.3-120.8 155.8c-38.7 52.4-73.5 101.4-104.2 147c-30.8 45.5-50.7 75.5-59.8 89.8c-9.1 14.3-18.1 28.8-27.2 43.5c-9.1 14.7-19.8 32.4-32 53.2c-12.3 20.7-28.4 49.5-48.4 86.4c-20 36.8-34.1 63.7-42.4 80.8c0 0 0 0 0 0c-8.3 17.1-15.2 32.1-20.8 45.1c0 0 0 0 0 0c-5.5 12.8-10.5 25.8-15 38.9c0 0 0 0 0 0c-4 11.9-6.6 21.2-7.5 27.9c2.6-2 5.5-4.6 8.8-7.7c0 0 0 0 0 0c6.4-6.2 15.6-16.5 27.7-31c0 0 0 0 0 0c12.3-14.8 24.9-30.8 37.9-48c13-17.4 24-32.3 33-44.7c9-12.5 20.5-28.8 34.6-48.9c14.1-20.1 32.7-47.1 55.9-80.9c23.2-33.8 42.4-62 57.7-84.4c0 0 0 0 0 0c15.3-22.5 35.5-52 60.4-88.5c0 0 0 0 0 0c25-36.6 47-68.7 66.1-96.2c19.1-27.6 35.7-51.4 49.7-71.4c14.1-20 32.8-46.3 56.2-79.1c0 0 0 0 0 0c23.4-32.7 40.4-56.3 51.1-70.9c10.6-14.6 25.2-34.3 43.6-59.2c18.5-24.8 37.4-49.9 56.6-75.2c19.3-25.4 44.2-57.4 74.6-96.2c30.5-38.8 60.4-76 89.6-111.7c29.2-35.7 61.5-74.3 96.8-115.8c25.2-29.5 43.5-50.9 54.9-64.1Zm-473.7 897.5c-16.8 23.9-26.9 38.2-30.2 43c-3.5 5.1-7.7 11.3-12.7 18.8c-5.1 7.4-11.9 17.5-20.4 30.5c0 0 0 0 0 0c-7.1 10.5-15.7 23.9-26 39.9l5.1-7.4c20.9-30.9 36.3-53.7 46.1-68.4c9.9-14.8 22.3-33.1 37.1-54.9l1-1.5Zm559.8-539.8c-24.1 20-46.9 39.8-68.6 59.4c0 0 0 0 0 0c-22.1 20-46.8 43.2-74.1 69.4c0 0 0 0 0 0c-27.3 26.3-51.1 49.7-71.2 70.2c-20.2 20.5-34.1 34.8-41.7 42.7c-7.6 8-18.5 19.6-32.6 34.7c-14.1 15.2-32 34.8-53.6 59c-21.5 24.2-41.3 46.8-59.1 67.9c-17.9 21.1-34.6 41.3-50 60.5c-15.4 19.2-27.8 34.8-37 46.9c-9.2 12-20.6 27.7-34.4 47.1c-13.6 19.3-24.6 35.9-33 49.7c-5.1 8.6-9.1 15.4-11.8 20.5c6.9-5.5 17.4-15 31.5-28.5c14.8-14.1 27-26.1 36.6-36c9.6-10 20.4-21.3 32.3-34.1c12-12.7 26.3-28.3 43.1-46.7c0 0 0 0 0 0c16.8-18.5 37.7-41.8 62.8-69.9c0 0 0 0 0 0c25.1-28.2 40.4-45.4 45.9-51.7c0 0 0 0 0 0c5.6-6.3 26-29.5 61.2-69.8c35.3-40.3 73.8-84.4 115.5-132.2c0 0 0 0 0 0c41.7-47.9 81.8-94.1 120.4-138.7l17.8-20.4Zm-326.9-634.6l-6.3 6c-23.2 22-53.8 52.1-91.8 90.1c-37.9 38-62.5 62.9-73.7 74.7c-11.2 11.8-27.4 29.1-48.5 51.9c-21.2 22.8-41.2 44.8-60.3 66.2c0 0 0 0 0 0c-19 21.3-46.2 52.8-81.4 94.4c-35.3 41.7-60.1 71.4-74.6 89.4c-14.4 17.9-29.2 36.5-44.3 55.9c0 0 0 0 0 0c-15.1 19.3-36.8 47.9-65.1 85.7c-28.3 37.8-55.2 74.8-80.7 110.9c-25.5 36.1-45.7 65.3-60.8 87.5c0 0 0 0 0 0c-15 22.3-30 44.8-44.8 67.5c0 0 0 0 0 0c-14.8 22.7-30 46.5-45.6 71.3c-15.6 24.8-31.1 50-46.5 75.6c-15.4 25.6-31.3 52.8-47.8 81.6c-16.4 28.8-28.2 49.9-35.5 63.3c-7.2 13.4-16.4 31.3-27.6 53.9c-5.3 10.7-9.9 20.5-13.7 29.3c3.4-4.6 7.2-9.8 11.6-15.7c16.7-22.7 37.9-52.9 63.6-90.6c0 0 0 0 0 0c25.8-37.7 57.2-84 94.2-138.9c37.1-54.9 72.5-107 106.5-156.2c33.9-49.3 61-88.3 81.4-117.2c20.4-28.8 44.5-62.4 72.2-100.6c27.8-38.2 53.7-73.3 77.5-105.1c0 0 0 0 0 0c23.9-31.8 52.3-68.7 85.1-110.6c32.8-42 58.3-74.2 76.6-96.8c0 0 0 0 0 0c18.3-22.5 36.8-45 55.4-67.3c18.6-22.4 39.4-46.9 62.4-73.8c23-26.8 48.5-56 76.5-87.6c26.9-30.3 55.6-61.9 86-94.8Zm625.3-213.9c-12.5 8.5-27.4 18.8-44.9 31c-31.8 22.2-51 35.8-57.7 40.7c-6.7 5-15.2 11.3-25.4 18.9c-10.3 7.7-21.1 15.9-32.6 24.6c-11.4 8.8-29.1 22.6-53.2 41.6c-24 18.9-53.5 43-88.4 72c-35 29.1-71.5 60.4-109.3 93.9c-37.9 33.5-68.6 61.2-92 83.1c0 0 0 0 0 0c-23.4 21.9-47.5 44.9-72.3 69c0 0 0 0 0 0c-24.8 24.2-60.5 60.5-107.1 109c-46.5 48.6-91.3 97.3-134.2 146.3c-33.3 37.9-64.7 74.8-94 110.6c-22.9 29.7-43.8 57.1-62.7 82.2c-33.5 44.5-54.4 72.3-62.6 83.4c0 0 0 0 0 0c-8.3 11-19.6 26.3-34.2 45.8c0 0 0 0 0 0c-14.5 19.6-30.3 40.9-47.5 64l-0.3 .4c-4.6 6.8-8.9 13.1-12.7 18.9c0 0 0 0 0 0c-8.2 12.3-17.6 26.7-28.3 43.4c-10.6 16.6-20.5 32.3-29.4 46.9c0 0 0 0 0 0c-9 14.7-17.2 28.4-24.7 41.4c0 0 0 0 0 0c-7.4 12.9-16.3 29-26.6 48.4c-10.3 19.3-18.4 35.8-24.4 49.4c-5.9 13.2-10 24.2-12.5 33c-0.7 2.3-1.2 4.4-1.7 6.2c.6-0.4 1.2-0.8 1.6-1.1c1.5-1.2 3.7-3.1 6.7-5.7c3.2-2.8 16.4-17 39.8-42.7c23.7-26 42.9-47.9 57.4-65.5c14.6-17.6 29.5-36 44.8-55c15.4-19.1 33.5-41.7 54.3-68c20.9-26.2 47.9-60.2 81-101.9c33.2-41.7 65.5-81.9 96.9-120.6c31.4-38.8 61.2-75.1 89.3-108.8c0 0 0 0 0 0c28.1-33.8 53.8-64.3 77-91.4c23.2-27.2 41.6-48.5 55.2-64.1c0 0 0 0 0 0c13.6-15.5 32.4-36.7 56.3-63.5c24-26.9 42.8-47.7 56.4-62.6c13.6-14.9 32-34.8 55.3-59.7c23.2-24.8 53.8-56.8 91.7-95.9c37.9-39.1 61.7-63.5 71.5-73.3c0 0 0 0 0 0c9.7-9.8 24.6-24.5 44.5-44.1c0 0 0 0 0 0c19.8-19.6 47.7-46.6 83.6-80.9c0 0 0 0 0 0c35.9-34.3 69.4-65.8 100.5-94.6c0 0 0 0 0 0c31.1-28.8 57.8-53.2 80.1-73.3c0 0 0 0 0 0c10.7-9.8 22.3-20.2 34.8-31.4Zm-580 401.8c-36.1 35.2-71.3 70.6-105.5 106.2c-35 36.3-67.4 71-97.3 104.1c0 0 0 0 0 0c-29.8 33-51 56.7-63.4 71c0 0 0 0 0 0c-12.4 14.3-27.7 32.2-45.8 53.8c0 0 0 0 0 0c-18.1 21.6-37.3 45.1-57.7 70.5c0 0 0 0 0 0c-20.5 25.3-36.5 45.5-48.1 60.6c-11.7 15-25.3 32.9-40.9 53.8c-15.7 20.8-36.9 50.1-63.6 87.8c-26.7 37.7-47.6 67.8-62.5 90.3c-14.9 22.5-26.9 40.9-35.9 55.2c-9 14.2-18.2 29.3-27.8 45.2c0 0 0 0 0 0c-9.4 15.8-17.5 29.7-24.1 41.6c-6.5 11.8-13.2 25.1-20.1 40l-0.1 .3c1-1.2 2.1-2.4 3.2-3.7c0 0 0 0 0 0c8.7-9.9 22.6-27.2 41.9-51.8c0 0 0 0 0 0c19.4-24.8 35.4-45.6 48.2-62.6c0 0 0 0 0 0c12.7-16.9 27.5-36.7 44.4-59.4c5.1-7.5 10.6-15.6 16.6-24.2c0 0 0 0 0 0c11.6-16.8 33.1-46.6 64.6-89.4c31.4-42.8 65.4-87 101.9-132.5c0 0 0 0 0 0c8.2-10.1 16.4-20.4 24.9-30.7c17.9-23.2 37-47.8 57.3-73.9c46.7-59.8 80.1-102 100.2-126.9c20.2-24.8 37.1-45.5 50.9-62.2c13.7-16.6 29.6-35.7 47.8-57.2c0 0 0 0 0-0.1c18.1-21.5 35.9-42.4 53.3-62.6c11.3-13.1 23.8-27.5 37.6-43.2Zm904.7-693.6c-6.1 2.7-10.9 4.9-14.4 6.7c-4.3 2.3-9.8 5.2-16.5 8.9c-6.7 3.7-14.7 8.2-23.9 13.5c-9.2 5.4-17 10-23.4 13.9c0 0 0 0 0 0c-6.4 3.9-14.9 9.1-25.4 15.6c0 0 0 0 0 0c-10.5 6.6-21.3 13.4-32.5 20.6c0 0 0 0 0 0c-11.2 7.2-27.7 18-49.6 32.6c0 0 0 0 0 0c-22 14.6-45.6 30.6-70.8 48.1c0 0 0 0 0 0c-25.2 17.6-53.9 38-85.9 61.2c0 0 0 0 0 0c-32.1 23.3-60.1 44-83.9 62c-23.9 18-47.5 36.1-70.8 54.4c0 0 0 0 0 0c-23.3 18.3-42 33-55.9 44.2c-13.9 11.2-34.5 28.1-61.8 50.8c0 0 0 0 0 0c-27.3 22.7-46.4 38.7-57.4 48.1c0 0 0 0 0 0c-11 9.3-27.6 23.8-49.9 43.5c0 0 0 0 0 0c-3.7 3.2-7.5 6.5-11.4 10c-22.5 24.2-43.9 47.6-64.2 70c0 0 0 0 0 0c-22.5 24.9-45.4 50.4-68.4 76.6c0 0 0 0 0 0c-23.1 26.2-43.3 49.3-60.7 69.5c-17.3 20.1-35.1 40.9-53.2 62.4c-11.2 13.4-21.7 25.9-31.2 37.4c41.4-43.1 73.5-75.7 96.4-98c24.9-24.3 49.1-47.4 72.6-69.3c23.6-22 54.4-49.8 92.4-83.5c38.1-33.6 74.7-65.1 109.8-94.3c35.1-29.2 64.8-53.3 88.9-72.4c24.1-19 41.9-33 53.4-41.7c0 0 0 0 0 0c11.5-8.8 22.4-17.1 32.7-24.8c0 0 0 0 0 0c10.3-7.6 18.8-14 25.6-18.9c0 0 0 0 0 0c6.7-5 26.1-18.7 58.1-41.1c0 0 0 0 0 0c32.1-22.4 55.8-38.6 71.3-48.5c0 0 0 0 0 0c15.5-9.9 29.1-18.3 40.7-25.1c0 0 0 0 0 0c11.8-6.9 21.3-12.2 28.4-15.9l1.9-0.9c4.9-4.4 8.5-7.5 10.5-9.4c6-5.2 14.1-12.3 24.2-21.3c10.2-8.9 21.9-19.2 35-30.7c13.1-11.4 30-26.4 50.9-44.8c20.8-18.3 39.1-34.7 55-49c15.8-14.3 29.1-26.7 39.9-37c10-9.5 17.8-17.3 23.5-23.4Z" fill="#fff"/></g><g transform="translate(1695.2,2486.4) scale(.991458,.968657) translate(-1607.5,-2516.4)"><path d="M392.9 2153c.2 1.8 .5 3.5 .9 5.3c-1.2 3.6-2.1 7.4-2.4 11.4l-0.2 2.3c-0.7 5.3-0.5 11.3 1.3 17.8c3.3 14.3 11.3 22.4 15.4 25.9c4.7 5.4 11.1 12.4 19.5 20.9c16.2 16.4 43.6 37.4 82.7 62.3c34.8 22.1 61.5 39.1 80 51c0 0 0 0 0 0c9.8 6.2 18.1 11.6 25 16.2c-19.2 4.2-36.4 8.3-51.4 12.4c-14 3.9-30.3 6.4-48.9 7.8c0 0 0 0 0 0c-20.7 1.6-37.1 2.8-49.2 3.5c0 0 0 0 0 0c-13 .9-38.1 5.1-75.2 13.1c-10.2-4.6-16.6-4.3-17.5-4.3c-7.2-0.1-62.3 60.5-62.8 62.8c-0.4 1.9-0.8 4-1 6.2c-0.4 3.9 8 56.1 14.8 76.2c5.7 16.7 10.6 31.7 14.5 45c4.4 15.1 12.1 34.9 23.2 59.1c0 0 0 0 0 0c10.6 23.1 20.1 42.2 28.4 57.3c7.4 13.5 16.9 34.1 28.4 61.8c12.1 28.8 21.9 53.5 29.6 74.1c0 0 0 0 0 0c7.9 21 13.8 36.9 17.9 47.7c3.8 10.2 6.7 18.1 8.6 23.8c0 0 0 0 0 0c2.2 6.4 3.9 11.3 5.1 14.7c0 0 0 0 0 0c1.3 3.6 2.2 6.1 2.8 7.6c.4 1.2 2.1 6 5.1 14.5c3 8.3 6.4 20 10.4 34.9c3.9 14.3 6.5 25.1 7.7 32.6c1.5 9.4 6.2 27.3 14.4 53.5c0 0 0 0 0 0c7.7 24.4 13.9 43 18.8 55.9c0 0 0 0 0 0c4.1 11.1 7 19.4 8.5 24.9c0 0 0 0 0 0c2 7.3 5.7 17.6 11.2 30.9c0 0 0 0 0 0c5 12.1 8.8 20.8 11.2 26.1c0 0 0 0 0 0c4 8.6 9 16.1 14.7 22.6c0 0 0 0 0 0c5.4 6 10.7 10.7 15.8 14.3c3.1 7.9 5.6 13.3 7.2 16.3c8.5 15.6 25.9 23.2 42.4 20.1c1.4 .8 2.9 1.5 4.4 2.1c2.1 2.8 4.6 5.4 7.3 7.7l1.7 1.3c3.6 3.2 8.2 6.2 14 8.2c12.4 4.9 22.5 3 27.3 1.8c6.4-0.7 15-1.9 25.6-3.8c0 0 0 0 0 0c20.7-3.7 50.5-13.4 89.2-29.9c0 0 0 0 0 0c34.5-14.6 60.9-25.8 79.4-33.6c17.7-7.4 30.9-12.8 39.4-16c8.8-3.4 15.4-5.8 19.7-7.5c0 0 .1 0 .1 0c4.3-1.6 10.3-3.8 18-6.7c0 0 0 0 0 0c7.3-2.7 22.8-7.6 46.2-14.7c0 0 0 0 0 0c23.8-7.3 44.5-13.1 62.1-17.5c0 0 0 0 0 0c15.1-3.8 27.2-6.1 36.4-6.8c12-1 32-3.9 60-9.1c0 0 0 0 0 0c26.7-4.9 55.1-11.4 85.2-19.4c0 0 0 0 0 0c29.3-7.8 51.4-13.9 66.2-18.1c0 0 0 0 0 0c13.2-3.8 32.1-7.5 56.5-11.1c26.6-4 47.6-7 62.9-9c1.6-0.2 3.3-0.4 5-0.6c6.4 4.7 12.9 9.6 19.6 14.6c0 0 0 0 0 0c28.6 21.7 51.1 39.4 67.3 53.2c16.5 14 34.2 29.5 53.2 46.3c0 0 0 0 0 0c18.3 16.2 36.1 33.5 53.5 51.9c19.3 20.3 39.8 40.6 61.5 60.7c21.4 19.7 37.7 34.5 49 44.4c0 0 0 0 0 0c11 9.6 41.8 37.1 92.5 82.7c50.8 45.8 91.7 82.8 122.8 111.1c30.5 27.8 53.4 49.2 68.8 64.2c0 0 0 0 0 0c16.7 16.3 30.9 29.4 42.4 39.2c0 0 0 0 0 0c12.2 10.3 21.5 17.8 28 22.5c6 4.4 14.7 10.6 26.1 18.6l9 6.3c6.8 12.6 18.9 22.3 34 25.5c1.7 .4 3.8 .9 6.3 1.7c5 2.9 11.3 6.3 19 10c15.1 7.4 32.4 6.7 46.5-1c22.6 17 44.7 34.9 66.2 53.7c2.8 3.1 5.7 5.2 7.8 6.6c8.1 5.4 18.4 8.6 31.5 4c3-1.1 9.5-3.5 16-11.5c1.6-2 7.4-11.5 16.6-28.9c0 0 0 0 0 0c8.5-16.2 24.7-39.7 48.2-70.7c24.8-32.5 45.7-59.1 62.8-79.7c17.7-21.2 31.1-37.7 40.3-49.5c0 0 0 0 0 0c8.9-11.4 20.2-25.4 33.7-41.9c14.3-17.5 29.6-38.2 46-62.2c0 0 0 0 0 0c15.8-23.2 31.1-46.1 46-68.6c0 0 0 0 0 0c15-22.7 29.1-44.7 42.3-66c13.1-21.1 24.8-40.3 35.2-57.5c0 0 0 0 0 0c10.6-17.5 18.6-31.1 24.1-40.7c0 0 0 0 0 0c6.6-11.5 12.6-25.8 17.8-43.3c0 0 0 0 0 0c3.8-12.8 7.8-24 12.1-33.5c0 0 0 0 0 0c3.4-7.8 6.1-13.4 8.3-16.6c4.9-6.8 8-12.2 9.8-16c1.7-3.7 3-6.9 3.9-9.7c.6-1.5 3-8.4 3.5-10.2c2.5-5.9 3.6-13.6 1.2-23.4c-0.1-0.5-0.3-1.7-0.7-3.6c0 0 0 0 0 0c-2.5-12.5-7.3-18-7.8-18.7c-2.5-3.2-5.2-5.7-7.9-7.5c-1.5-1.3-3.3-2.6-5.4-4c-1.2-0.8-9.9-7-11.5-8.2c-1.9-1.4-3.7-2.6-5.2-3.5l.8 .3c0 0-1.6-1.1-3.2-2.3c0 0 0 0 0 0c-2.4-1.7-4.7-3.5-7-5.4c-2.7-2.3-4.7-4-6.1-5.1c0 0 0 0 0 0c-1.2-1.1-6.1-5.5-14.7-13.3c0 0 0 0 0 0c-9.2-8.4-20.1-18.3-32.8-29.6c0 0 0 0 0 0c-12.9-11.6-27.5-24-43.8-37.3c0 0 0 0 0 0c-15.2-12.4-37.8-33.9-67.8-64.5c-26.3-26.8-47.5-48.9-63.6-66.3c21.1-4.8 38.2-8.5 51.2-11.1c0 0 0 0 0 0c20.8-4.1 37.8-7.9 51.2-11.5c0 0 0 0 0 0c13.9-3.8 24.3-7 31.2-9.4c0 0 0 0 0 0c6.3-2.2 15.5-5.5 27.4-9.9l9.3-3.5c12.9 1.4 26.4-2.7 36.6-12.3c1.1-1.1 2.6-2.4 4.5-3.9c4.7-2.2 10.5-5.2 17.3-9c13.2-7.5 21.6-20.8 23.1-35.3c24.4-8.2 49.2-15.5 74.3-22c3.8-0.4 6.8-1.5 8.9-2.3c8.3-3.3 16-9.4 19.2-21.5c.8-2.8 2.4-9-0.3-17.9c-0.7-2.2-4.8-11.5-13.1-27.4c0 0 0 0 0 0c-7.7-14.7-16.9-38.9-28-72.4c-11.6-35.3-20.8-64.6-27.3-88c0 0 0 0 0 0c-6.8-24.2-12.3-42.7-16.3-55.7c0 0 0 0 0 0c-4-12.5-8.6-28.1-14-46.8c-5.8-19.6-13.4-41.8-22.9-66.4c0 0 0 0 0 0c-9.2-23.8-18.4-47-27.6-69.7c0 0 0 0 0 0c-9.3-22.9-18.5-44.8-27.6-65.6c-9.1-20.7-17.4-39.4-24.9-56c-7.7-16.9-13.7-29.9-18.1-39c-5.2-10.8-12.9-22.7-23.2-35.5c-7.6-9.5-13.9-18.3-18.9-26.4c0 0 0 0 0 0c-4-6.6-6.9-11.4-8.1-14.8c-2.6-7.1-5-12.2-6.9-15.5c0 0 0 0 0 0c-1.9-3.2-7-10.4-7.9-11.7c0 0 0 0 0 0c-1.1-1.5-2.1-2.8-3.2-4.1c-3.1-5-8.4-9.7-16.9-13c0 0 0 0 0 0c-0.4-0.2-1.5-0.6-3.1-1.3c0 0 0 0 0 0c-10.6-4.6-17.2-3.8-17.9-3.8c-3.7 .3-6.9 1-9.7 2c-1.7 .5-3.6 1.2-5.8 2.1c0 0 0 0 0 0c-1.2 .5-3.1 1.2-5.4 2c0 0 0 0 0 0c-2.8 1-5 1.8-6.7 2.4c-2 .6-3.8 1.3-5.2 2c.3-0.2 .6-0.4 .6-0.4c0 0-1.7 .6-3.4 1.2c-2.5 .9-5 1.7-7.6 2.4c-3.2 .9-5.5 1.5-7 1.9c0 0 0 .1 0 .1c-1.4 .3-7.3 1.7-17.5 4.1c0 0 0 0 0 0c-11.1 2.6-24.1 5.7-39.1 9.3c-15.3 3.7-32.1 8.2-50.4 13.6c0 0 0 0 0 0c-17.1 5-44.8 10.8-83.2 17.5c-39.4 6.9-70.3 11.9-92.8 14.9c-22.9 3.1-39.4 5.3-49.4 6.8c0 0 0 0 0 0c-10.1 1.4-19.9 2.9-29.2 4.3c-9.6 1.5-32.7 6.5-69.4 15.1c-35.8 8.4-63 15.1-81.6 20c-17.6 4.6-37.7 8.9-60.2 12.8c-23.5 4.2-41.2 7.2-53 9.2c-11.3 1.9-25.9 3.8-44 5.6c0 0 0 0 0 0c-13.8 1.4-31.7 4-53.6 7.7c-3.3-3.2-7.1-6.9-11.5-11.1c0 0 0 0 0 0c-7.6-7.4-14.8-14.2-21.4-20.5c-5.9-5.5-15.7-16.8-29.5-33.5c-10-12-18.6-22.6-26-31.5c3.9-6.2 5.9-13.7 5.2-21.6c-0.4-5.4-2.2-13.4-9.4-22.1c-4.4-5.2-16.4-15.1-37.1-28.1c0 0 0 0 0 0c-20.9-13.1-37-22.6-48.2-28.4c0 0 0 0 0 0c-8.8-4.6-16.6-9.5-23.3-14.6c0 0 0 0 0 0c-8.2-6.3-15.7-12-22.4-17.1c0 0 0 0 0 0c-6.4-4.9-13.6-10.7-21.6-17.3c-8.3-7-19.4-16.3-33.2-28c-14.5-12.1-30.6-24.9-48.6-38.4c-17.5-13.1-39.3-28.9-65.2-47.4c-25.2-18-51.2-37.7-78.1-59.1c0 0 0 0 0 0c-26.5-21.1-50.6-41.8-72.2-62.1c-22.3-20.9-41.8-39.3-58.7-55.2c-17.4-16.5-33.2-30.7-47.4-42.7c0 0 0 0 0 0c-12.3-10.3-24.8-23.6-37.7-39.5c-14.3-17.8-25.6-32-33.9-42.5c-8.8-11.3-28.3-31.4-58.7-60c-1.7-9.3-4.6-14.8-6.1-17.2c-45.2-159.2-114.5-195.3-90.5-21.2c-2.4 .5-4.6 1.2-6.6 2.1h-0.1c-2 .8-4 1.7-6.2 2.9c-3.7 2.1-11.7 7.8-23.1 18.4c0 0 0 0 0 0c-10.4 9.7-22.7 23.8-36.7 42.6c-11.6 15.6-22.2 29.4-31.8 41.2c0 0 0 0 0 0c-11 13.5-24.1 32.8-39.1 58c0 0 0 0 0 0c-14.4 24-25.8 44.5-34.3 61.5c-7.6 15.2-20.4 36.6-38.3 64.3c0 0 0 0 0 0c-18.6 28.9-34.8 53.3-48.7 73.1c0 0 0 0 0 0c-14.2 20.3-24.9 35.6-32.1 46c0 0 0 0 0 0c-6.9 9.9-12.3 17.4-16.3 22.7c-4.5 6-7.9 10.6-10.2 13.8c-2.4 3.4-4.1 5.8-5.1 7.2c-0.8 1.2-4.1 5.7-9.9 13.7c0 0 0 0 0 0c-5.8 7.9-14.2 18.3-25.1 31.3c-10.6 12.4-18.9 21.5-24.9 27.3c0 0 0 0 0 0c-7.6 7.2-20.9 22.6-39.5 46.5c0 0 0 0 0 0c-17.3 22.1-30.3 39.4-39 51.9c0 0 0 0 0 0c-7.5 10.6-13.3 18.4-17.3 23.3c-5.3 6.4-12.4 16.1-21 29.4c0 0 0 0 0 0c-7.8 12.1-13.4 20.9-16.7 26.4c-5.2 9-9 18.2-11.3 27.5c-2.1 8.6-3.1 16.4-3.1 23.2c-5.3 7.8-8.6 13.4-10.3 16.7c-8.8 17.4-5 38 8.2 51.1Zm610.4-708.5c.8 .3 1.5 .5 2.2 .8c-0.5-0.5-1-1-1.5-1.5l-0.7 .7Zm-70.7-113.8l-1.2 .2v.2l-1.6 .6l-2.2 .8l-2.8 .5c-11.6 4.8-16.6 14.1-18.6 17.3c0 0 0 0 0-0.1c1.7-2.7 7.1-11.8 21.4-17.7l4-0.6l-0.2-0.8l1.5-0.5l-0.3 .1Z" fill="#ffdc00" style="animation: 30s linear infinite both urwpjhy27lcoeajkmlp2ae6s_f;"/></g><g transform="translate(1183.3,2967.7) scale(.991458,.968657) translate(-1091.3,-3013.2)"><path d="M814.7 2636.6c-14.9 17.7-24.3 29.2-28.4 34.3c-4.8 6.1-11.3 14.6-19.5 25.6c-8.3 10.9-20 27.2-35.3 48.8c0 0 0 0 0 0c-15.3 21.6-28.6 41.2-40 58.6c0 0 0 0 0 0c-11.3 17.4-25.4 40.3-42.2 68.7c-16.8 28.4-28.3 48.3-34.6 59.9c0 0 0 0 0 0c-6.2 11.5-11.1 20.8-14.8 27.7c0 0 0 0 0 0c-3.6 7.1-8.8 17.5-15.6 31.3c0 0 0 0 0 0c-6.8 13.9-14.7 31.4-23.8 52.5c-9.2 21.2-16.1 38.2-20.7 51.1c-4.7 12.9-8.1 23.2-10.4 30.8c0 0 0 0 0 0c-2.2 7.7-3.9 13.8-5 18.3c-1.1 4.6-1.9 8.4-2.4 11.4c-0.6 3.1-1.2 7.1-1.7 11.9c0 0 0 0 0 0c-0.5 5.5-0.4 11.3 .5 17.3c0 0 0 0 0 0c1.3 9.3 4.2 14.6 5.9 16.5c3.5 4.1 7 5.9 9.6 6.7c0 0 0 0 0 0c2.2 .7 4 .9 5.4 1c0 0 0 0 0 0c1.1 0 2.7 0 5-0.4c0 0 0 0 0 0c1.7-0.2 3.9-0.8 6.8-2c2.1-0.9 5.2-2.5 9-5.2c0 0 0 0 0 0c3.2-2.2 5.8-4.3 7.8-6c1.7-1.6 4.6-4.5 8.5-8.6c0 0 0 0 0 0c3.7-3.9 10.2-11.8 19.4-23.9c0 0 0 0 0 0c8.9-11.7 19.6-27.3 32-46.8c12.3-19.3 21.7-34.5 28.1-45.7c6.4-11.1 16.1-28.9 29.1-53.4c0 0 0 0 0 0c13-24.4 23.8-45.4 32.4-62.9c0 0 0 0 0 0c8.6-17.5 20.4-42.9 35.5-76.2c15-33.2 23.8-52.9 26.4-59c2.6-6.1 6.6-15.9 12-29.3c0 0 0 0 0 0c5.5-13.3 13.7-34.8 24.6-64.2c0 0 0 0 0 0c7.8-21 16-45.5 24.6-73.4l4.4-5.2c19.3-23 35.9-41.9 49.5-56.6c0 0 0 0 0 0c13.7-14.7 24.4-26 32.2-33.8c7.8-7.9 17.5-17.3 29.2-28.2c0 0 0 0 0 0c11.6-10.9 21.8-20.2 30.7-27.9c8.8-7.7 20-16.9 33.3-27.4c13.3-10.5 28.5-21.5 45.7-33c17-11.4 33.3-21 48.8-29c15.3-7.8 28.2-13.6 38.7-17.3c10.3-3.5 18.5-6 24.9-7.3c6-1.3 12.3-2.1 18.8-2.4c0 0 0 0 0 0c6.2-0.4 11.6-0.2 16.4 .4c0 0 0 0 0 0c4.6 .7 8.5 1.5 11.8 2.7c0 0 0 0 0 0c3.1 1.1 5.7 2.2 7.9 3.5c2.1 1.1 3.8 2.2 5.1 3.3c0 0 0 0 0 0c1.4 1.1 2.7 2.3 3.8 3.4c0 0 0 0 0 0c1.1 1.2 2.2 2.5 3.4 4c1.1 1.6 2.5 4.2 4.2 7.7c2 3.9 3.4 7.3 4.3 10.2c0 0 0 0 0 0c1 3.1 1.8 6.7 2.5 10.9c.1 0 .1 0 .1 0c.7 4.4 1.3 8.2 1.6 11.5c0 0 0 0 0 0c.2 3.4 .4 6.2 .5 8.5c0 0 0 0 0 0c.1 2.2-0.7 11.1-2.2 26.8c-1.5 16-4 31.4-7.6 46.3c-3.4 14.4-6.5 26-9.1 34.6c-5 3.3-10.8 7.4-17.7 12.3c-8 5.7-18.9 13.9-32.5 24.6c0 0 0 0 0 0c-13.5 10.6-28 22.6-43.3 36.1c0 0 0 0 0 0c-15.4 13.5-31 28.1-46.8 43.8c-15.9 15.7-29.8 30-41.7 43.1c-11.9 13.1-23 25.7-33.4 38c0 0 0 0 0 0c-10.3 12.4-24.2 30.1-41.5 53.3c0 0 0 0 0 0c-17.4 23.3-28.8 39-34.3 47.2c-5.5 8.3-11.4 17.4-17.6 27.3c-6.2 10-12 19.6-17.3 28.8c-5.2 9.2-11 20-17.3 32.4c-6.4 12.4-11.6 23.3-15.6 32.6c-4.1 9.4-8.6 21.4-13.3 36c-4.8 15.2-7.8 27.8-8.8 37.6c0 0 0 0 0 0c-1.3 11.3-1 20 .4 26.1c1.9 7.9 4.3 12.9 6.2 15.5c2.5 3.4 4.7 5.4 6.1 6.4c1.4 1 3.2 2.1 5.2 3c1.9 .7 3.9 1.4 6.2 1.9c2.1 .4 4.6 .7 7.6 .6c2.6 0 5.7-0.4 9.5-1.2c0 0 0 0 0 0c3.2-0.8 7.7-2.3 13.4-4.8c5.1-2.3 10.6-5.3 16.5-9.1c5.5-3.6 10.9-7.4 16.1-11.5c0 0 0 0 0 0c5-3.9 11.6-9.7 19.9-17.2c8.1-7.5 20.5-20.4 37.2-38.8c16.6-18.3 33.2-38.1 49.7-59.4c16.4-21.3 38.8-53.6 67.1-97.1c28.3-43.4 50.7-80.4 67.3-111.1c16.6-30.7 27.7-51.8 33.2-63.3c5.5-11.5 11.9-25.8 19.2-42.8c0 0 0 0 0 0c7.3-17.1 13.4-32.4 18.3-45.8c0 0 0 0 0 0c3.4-9 6.2-17 8.6-24.1c6.5-4 16.4-9.8 29.7-17.5c18.8-10.9 37.3-20.2 55.4-27.9c17.9-7.6 32.5-13 43.9-16.2c11.3-3.1 19.5-5.2 24.7-6.1c0 0 0 0 0 0c5.1-0.9 11.6-1.7 19.7-2.3c0 0 0 0 0 0c7.9-0.7 15.5-0.7 23-0.1c7.3 .5 13.1 1.3 17.3 2.2c0 0 0 0 0 0c4.1 .9 8.4 2.3 12.9 4.1c4.5 1.8 8.1 3.4 10.8 5.1c2.7 1.5 4.8 2.9 6.3 4c1.6 1.2 3.4 2.7 5.3 4.5c0 0 0 0 0 0c2 1.7 4 3.8 6 6.3c2.2 2.7 4.2 5.4 6.1 8.4c0 0 0 0 0 0c1.8 2.9 3.7 6.7 5.7 11.4c2 4.9 3.9 10.8 5.5 17.8c0 0 0 0 0 0c1.6 7.3 2.5 17.8 2.9 31.7c0 0 0 0 0 0c.3 14.2-0.2 26.3-1.5 36.1c-0.3 1.7-0.5 3.5-0.9 5.4c-6.4 4.7-14.6 11-24.7 18.6c-17.6 13.4-34.2 26.8-50 40.1c0 0 0 0 0 0c-15.7 13.4-29.8 25.9-42.3 37.5c-12.4 11.6-24.3 23.1-35.8 34.7c-11.4 11.5-26 27.2-43.7 47c-17.6 19.9-30.2 34.5-37.7 43.9c-7.5 9.4-14.7 18.7-21.6 28c-6.9 9.3-14 19.3-21.3 30c-7.3 10.8-13.8 20.8-19.3 29.8c0 0 0 0 0 0c-5.5 9.2-12.3 21.7-20.3 37.5c0 0 0 0 0 0c-8.3 16.5-14.9 34.4-19.9 53.7c-5.5 21.8-6.9 35.8-5.7 41.7c1.5 7.9 3.8 13 5.7 15.8c2.4 3.5 4.4 5.5 5.4 6.3c1.1 .9 2.3 1.8 3.7 2.7c1.5 .8 3.1 1.6 4.8 2.2c1.3 .5 3.2 1.1 5.7 1.6c0 0 0 0 0 0c2.4 .5 5.8 .8 10.1 .7c3.6-0.2 7.9-0.8 12.8-2c4.5-1.2 8.6-2.5 12.4-4.1c0 0 0 0 0 0c3.5-1.4 6.9-3 10.1-4.6c0 0 0 0 0 0c3.2-1.6 8-4.5 14.6-8.6c0 0 0 0 0 0c6.3-3.9 16.4-11.4 30.1-22.6c0 0 0 0 0 0c13.5-10.9 24.4-20.5 32.9-28.8c8.4-8.2 19.2-19.5 32.2-34c13.1-14.5 23.9-27.2 32.6-38.1c8.7-10.9 18.4-23.9 29.3-39c10.8-15.1 25.4-37.9 43.6-68.4c18.3-30.6 30.8-53 37.7-67.3c0 0 0 0 0 0c6.8-14.2 11.8-25 14.9-32.2c0 0 0 0 0 0c3.1-7.3 6.9-17.1 11.4-29.4c0 0 0 0 0 0c4.6-12.3 9.4-28.3 14.5-47.8c0 0 0 0 0 0c2.6-10.1 4.8-19 6.4-26.7l.9-0.7c6.3-4.4 20.6-13.7 43-27.9c22.3-14.1 44-26.7 65-37.8c21-11.1 40.6-20.5 58.7-28.3c18-7.8 36.2-14.7 54.5-20.7c0 0 0 0 0 0c18.3-6 32-10.2 41.2-12.4c0 0 0 0 0 0c9.1-2.3 19-4.3 29.7-6.2c0 0 0 0 0 0c10.7-1.9 19.4-3.2 26.2-3.9c0 0 0 0 0 0c6.7-0.7 14.7-1.2 24-1.5c9.3-0.3 19.4 .1 30.4 1c10.8 1 19.6 2.1 26.2 3.5c6.5 1.4 13.9 3.7 22.1 6.8c8.2 3.1 14.3 5.6 18.1 7.8c3.8 2.1 7.3 4.2 10.5 6.4c3.1 2.2 6 4.4 8.5 6.6c2.5 2.2 4.8 4.3 6.7 6.3c0 0 0 0 0 0c2 2.1 4 4.4 6.2 7.2c2.2 2.7 4.3 5.8 6.5 9.4c2.2 3.6 4.3 7.5 6.1 11.6c1.9 4.1 3.5 8.5 5 13c1.5 4.7 2.8 10.5 4 17.4c0 0 0 0 0 0c1.2 7 2 14.9 2.3 23.7c.3 8.9-1 22.7-3.7 41.5c-2.7 19.1-6.4 36.1-11 51.2c-4.6 15.3-9 28.2-13.2 38.6c-4.2 10.6-11.7 26.7-22.6 48.5c0 0 0 0 0 0c-10.9 22-21.7 41.9-32.3 59.6c0 0 0 0 0 0c-10.7 17.9-23.8 38-39.3 60.5c-15.6 22.6-27.6 39.5-36 50.8c0 0 0 0 0 0c-8.5 11.3-22.5 28.9-42 52.8c-19.5 24.1-34.8 42.5-45.9 55.2c0 0 0 0 0 0c-11.1 12.8-24.8 28.1-41.1 46c-16.3 17.9-38 40.9-65 69.1c-27 28.1-54.7 56.2-82.9 84.1c0 0 0 0 0 0c-28.2 28-59.5 58.5-93.8 91.5c-34.3 33-63.6 61-87.8 83.9c-24.2 23-46.9 44.4-68 64.4c-21.2 20-41.1 38.9-59.9 56.6c0 0 0 0 0 0c-18.8 17.8-36.9 34.9-54.3 51.5c0 0 0 0 0 0c-17.5 16.6-34 32.3-49.7 47.2c-6.3 5.9-6.6 15.9-0.6 22.3c6 6.3 16 6.6 22.3 .6c15.7-14.9 32.3-30.6 49.7-47.2c17.4-16.6 35.5-33.7 54.3-51.5c18.7-17.7 38.7-36.6 59.8-56.6c21.2-19.9 43.9-41.4 68.1-64.4c24.3-22.9 53.6-51 88-84.1c0 0 0 0 0 0c34.4-33.1 65.8-63.7 94.1-91.8c28.4-28.1 56.2-56.3 83.5-84.7c0 0 0 0 0 0c27.2-28.3 49.1-51.6 65.5-69.6c16.5-18.1 30.4-33.7 41.6-46.6c11.2-12.9 26.8-31.6 46.6-55.9c0 0 0 0 0 0c19.8-24.4 34-42.4 42.7-53.9c8.6-11.5 20.9-28.7 36.8-51.8c0 0 0 0 0 0c15.9-23.1 29.4-43.8 40.3-62.2c11-18.4 22.2-38.9 33.6-61.7c11.4-22.9 19.2-39.9 23.6-50.9c0 0 0 0 0 0c4.4-11.1 9.1-24.8 14.1-41.1c0 0 0 0 0 0c5-16.4 9.1-35.1 12.1-55.9c0 0 0 0 0 0c3-21.3 4.3-37 3.9-47.1c-0.3-10.4-1.2-19.7-2.7-28.1c-1.5-8.5-3.2-15.6-5-21.4c-1.9-5.8-4-11.3-6.3-16.5c0 0 0-0.1 0-0.1c-2.4-5.2-5.1-10.3-8-15c-2.9-4.8-5.8-9-8.7-12.6c0 0 0 0 0 0c-2.8-3.6-5.5-6.7-8.1-9.3c-2.6-2.7-5.5-5.5-8.8-8.3c-3.3-2.9-7-5.8-11.1-8.7c0 0 0 0 0 0c-4.1-2.8-8.5-5.5-13.4-8.2c0 0 0 0 0 0c-4.7-2.6-12.1-5.9-22.2-9.6c0 0 0 0 0 0c-9.9-3.8-18.8-6.4-26.6-8.1c-7.6-1.6-17.6-3-30.1-4.1c0 0 0 0 0 0c-12.3-1.1-23.6-1.5-34-1.1c0 0 0 0 0 0c-10.3 .3-19.2 .8-26.5 1.6c-7.3 .8-16.7 2.2-28.2 4.2c-11.5 2-22.1 4.2-31.9 6.6c-9.6 2.4-24.2 6.8-43.4 13.1c-19.3 6.3-38.3 13.6-57.2 21.7c-18.8 8.1-39.1 17.9-60.9 29.4c0 0 0 0 0 0c-21.8 11.4-44.2 24.5-67.2 39.1c-8.4 5.3-15.6 9.9-21.8 13.8c.2-5.9 .3-12.2 .1-19c-0.4-16.7-1.7-29.4-3.7-38.1c-2.1-9-4.5-16.7-7.2-23c0 0 0 0 0 0c-2.7-6.5-5.4-11.8-8-15.9c-2.6-4.1-5.4-8-8.4-11.7c-3.2-3.8-6.3-7-9.2-9.7c-2.9-2.6-5.5-4.7-7.7-6.4c-2.2-1.6-5.3-3.6-9.1-5.9c0 0 0 0 0 0c-3.8-2.2-8.9-4.6-15.2-7.1c0 0 0 0 0 0c-6.1-2.4-12-4.3-17.5-5.5c-5.3-1.3-12.6-2.3-21.9-3c0 0 0 0 0 0c-9.1-0.7-18.4-0.6-27.9 .1c-9.3 .8-16.9 1.7-22.7 2.7c-5.8 1-15.1 3.3-27.7 6.8c-12.4 3.5-28.3 9.3-47.8 17.6c0 0 0 0 0 0c-19.2 8.2-38.8 18-58.7 29.5l-1.7 1l.9-3.8c3.9-16.3 6.7-33.1 8.3-50.7c1.7-17.8 2.4-28.1 2.3-30.7c0-2.6-0.2-6-0.6-10.1c-0.3-4.2-1-9-2-14.5c-1-5.7-2.2-10.6-3.5-14.7c-1.3-4.2-3.3-9.1-6-14.7c-2.9-5.9-5.5-10.2-7.4-12.7c0 0 0 0 0 0c-2-2.7-4-5-5.9-7c-2-2.1-4.2-4.1-6.6-6.1c-2.5-1.9-5.6-4-9.4-6.2c-3.6-2-7.9-4-13-5.8c-5-1.7-10.9-3.1-17.8-4.1c-6.7-0.9-14.2-1.2-22.6-0.7c-8.1 .4-15.9 1.4-23.5 3c0 0 0 0 0 0c-7.4 1.5-17 4.3-28.9 8.5c-11.6 4-25.8 10.3-42.6 18.9c-16.6 8.5-33.9 18.8-52 30.9c0 0 0 0 0 0c-18 12-33.9 23.5-47.7 34.4c-13.9 10.9-25.3 20.4-34.5 28.3c-9.2 8-19.7 17.6-31.6 28.8c-12 11.2-21.9 20.8-30 28.9c-8 8-18.9 19.6-32.9 34.6c-2.9 3.1-5.9 6.4-9 9.9c5.8-20.2 9.1-31.9 9.8-35.3c0 0 0 0 0 0c1.2-5.1 3.8-21.5 7.9-49c0 0 0 0 0 0c4.2-28.1 5.8-53.8 4.9-77.4c-1-24.4-2.7-40.3-4.7-47.7c0 0 0 0 0 0c-2.2-7.8-4.9-15.1-8.2-21.9c-3.5-7.1-6.6-12.3-9.2-15.7c0 0 0 0 0 0c-2.8-3.6-5.2-6.4-7.3-8.4c0 0 0 0 0 0c-2.1-2.1-4.2-3.9-6.2-5.5c-1.9-1.5-3.6-2.7-5-3.6c0 0 0 0 0 0c-1.5-0.9-3.4-2-5.8-3.3c-2.3-1.2-5.8-2.7-10.5-4.3c0 0 0 0 0 0c-4.5-1.6-9.6-2.8-15.1-3.6c-5.2-0.8-11.1-1.2-17.6-1.1c-6.3 .2-14.3 1.1-24 3.1c-9.4 1.8-17.9 4.1-25.6 6.9c-7.6 2.6-16.3 6.3-26.4 11.1c-9.8 4.7-23.6 12.6-41.4 23.9c0 0 0 0 0 0c-17.6 11.2-32.1 21.1-43.3 29.8c-11.2 8.7-20.6 16.3-28.3 22.8c-7.6 6.6-16.6 14.6-27 24.3c0 0 0 0 0 0c-10.4 9.6-26.4 25.8-48.1 48.6c-21.6 22.8-43.9 48.3-66.9 76.5c-22.8 28.2-43.5 55.4-62.1 81.5c-18.5 26.2-31.1 44.5-37.8 54.8c0 0 0 0 0 0c-6.8 10.4-15.1 23.7-25 40c-9.9 16.2-21.1 35.4-33.5 57.5c-12.4 22.2-21.6 39-27.5 50.5c0 0 0 0 0 0c-6 11.5-14.2 28.3-24.7 50.3c-10.5 22-19.5 41.4-26.8 58.2c0 0 0 0 0 0c-7.3 16.8-16 37.8-25.9 63.1c-9.9 25.2-18.1 47-24.6 65.4c-6.5 18.4-14.4 42.5-23.8 72.2c0 0 0 0 0 0c-9.3 29.7-17.4 56.7-24.2 81.1c-6.8 24.4-12.8 46.7-18 67c-5.2 20.3-9.3 36.4-12.2 48.5c-2.9 12.1-5 20.8-6.3 26.3c-1.2 5.4-2.2 9.7-2.9 13c0 0 0 0 0 0c-0.7 3.2-1.7 7.6-2.9 13.2c0 0 0 0 0 0c-1.3 5.4-2.2 9.1-2.7 11.1c-2.1 8.4 3 17 11.4 19.2c8.5 2.1 17.1-3 19.2-11.4c.5-2.1 1.5-6 2.8-11.9c1.3-5.7 2.3-10.2 3-13.5c.7-3.2 1.7-7.4 2.9-12.8c0 0 0 0 0 0c1.2-5.3 3.3-13.9 6.2-25.8c0 0 0 0 0 0c2.9-11.9 6.9-27.9 12.1-48.1c5.2-20.1 11.1-42.2 17.8-66.3c6.7-24.1 14.7-50.8 23.9-80.1c9.2-29.3 17-53 23.4-71.2c6.4-18.1 14.5-39.6 24.3-64.4c0 0 0 0 0 0c9.7-24.8 18.2-45.5 25.4-62c7.2-16.5 16-35.6 26.3-57.2c10.4-21.6 18.5-38.1 24.3-49.4c5.8-11.3 14.9-27.8 27-49.5c12.2-21.8 23.2-40.6 32.9-56.6c0 0 0 0 0 0c9.8-15.9 17.9-29 24.5-39.2c6.6-10.2 19-28.1 37.2-53.7c0 0 0 0 0 0c18.1-25.7 38.4-52.3 60.8-79.9c0 0 0 0 0 0c22.4-27.5 44.2-52.4 65.3-74.6c21-22.2 36.6-38 46.6-47.3c10-9.3 18.7-17.1 26.1-23.3c7.3-6.3 16.4-13.6 27.1-21.9c10.6-8.2 24.3-17.6 40.9-28.1c16.3-10.4 29-17.8 38.1-22.1c0 0 0 0 0 0c8.9-4.2 16.6-7.5 23.3-9.9c6.4-2.2 13.5-4.1 21.3-5.7c7.4-1.5 13.6-2.3 18.4-2.4c4.6-0.1 8.7 .1 12.3 .7c3.5 .5 6.6 1.2 9.5 2.2c2.7 1 4.8 1.8 6.2 2.5c0 0 0 0 0 0c1.4 .7 2.5 1.3 3.3 1.8c.8 .6 1.8 1.3 2.9 2.1c1 .8 2.2 1.8 3.3 3c1.2 1.2 2.6 2.9 4.2 5c1.8 2.3 3.7 5.8 6 10.5c2.5 5 4.5 10.5 6.1 16.4c1.8 6.2 2.8 19.8 3.6 40.6c0 0 0 0 0 0c.9 21.7-0.6 45.5-4.5 71.4c-3.9 26.3-6.4 42-7.5 46.9c-1.1 4.9-7.9 28.5-20.3 70.8c-2.9 10.1-5.9 19.9-8.7 29.3Zm-30.1 88.7c-7.3 10-16.4 22.7-27.3 38.2c-15.1 21.3-28.2 40.5-39.3 57.6c-11.2 17.2-25.1 39.7-41.6 67.6c0 0 0 0 0 0c-16.5 27.8-27.8 47.4-33.9 58.8c-6.1 11.3-11 20.4-14.6 27.3c-3.5 6.9-8.6 17.1-15.2 30.6c-6.6 13.5-14.4 30.5-23.3 51.1c-8.8 20.5-15.5 36.9-19.9 49.2c-4.4 12.3-7.7 22-9.8 29.1c-2.1 7-3.6 12.6-4.6 16.7c0 0 0 0 0 0c-0.9 4-1.6 7.2-2.1 9.8c-0.4 2.1-0.8 4.8-1.1 8c1.1-1.2 2.4-2.5 4-4.2c3.3-3.5 9-10.6 17.2-21.4c8.5-11.1 18.7-25.9 30.5-44.5c12-18.8 21.1-33.6 27.3-44.5c0 0 0 0 0 0c6.3-10.9 15.8-28.4 28.6-52.5c12.9-24.1 23.5-44.7 32-62c8.5-17.3 20.1-42.4 35-75.2c14.8-32.9 23.6-52.3 26.1-58.4c0 0 0 0 0 0c2.6-6 6.5-15.6 11.9-28.9c4.7-11.4 11.4-28.9 20.1-52.4Zm745.3-32.2c-15 11.6-29.3 23.2-42.9 34.7c-15.4 13-29.1 25.2-41.3 36.5c0 0 0 0 0 0c-12.1 11.3-23.7 22.6-34.9 33.8c0 0 0 0 0 0c-11.1 11.2-25.3 26.5-42.5 45.8c-17.1 19.3-29.4 33.5-36.7 42.6c0 0 0 0 0 0c-7.2 9.1-14.2 18.1-20.9 27.1c0 0 0 0 0 0c-6.6 8.9-13.5 18.6-20.5 29c-7 10.3-13.1 19.8-18.4 28.4c-5.2 8.6-11.6 20.4-19.1 35.4c-7.3 14.4-13.1 30.2-17.5 47.2c0 0 0 0 0 0c-3.7 14.7-6.1 23.9-5.3 27.8c0 0 0 0 0 0c.2 1.3 .6 2.8 .9 3.8c.6 .1 1.4 .1 2.4 0c0 0 0 0 0 0c1.8 0 3.8-0.4 6.2-1c0 0 0 0 0 0c2.9-0.8 5.6-1.6 8-2.6c2.8-1.2 5.4-2.4 7.9-3.6c2.6-1.4 6.6-3.8 12.1-7.2c5.7-3.6 14.7-10.4 27-20.4c12.6-10.2 22.9-19.2 30.8-26.9c8-7.9 18.3-18.7 30.8-32.6c0 0 0 0 0 0c12.5-13.9 23-26.1 31.3-36.6c8.4-10.5 17.9-23.1 28.4-37.7c0 0 0 0 0 0c10.5-14.6 24.5-36.7 42.1-66.2c0 0 0 0 0 0c17.6-29.5 29.7-51 36.3-64.8c6.6-13.7 11.4-24 14.4-30.9c2.9-6.9 6.5-16.2 10.8-27.9c3.4-9.1 6.9-20.3 10.6-33.7Zm-306.9-82.9c-3.7 2.8-7.7 5.9-11.9 9.2c-13.1 10.3-27.1 22-42 35c-14.9 13.1-30 27.2-45.4 42.5c-15.5 15.3-29 29.3-40.6 42c0 0 0 0 0 0c-11.6 12.7-22.4 25.1-32.5 37c-10.1 12-23.5 29.3-40.4 51.9c-16.9 22.6-28 37.9-33.3 45.9c0 0 0 0 0 0c-5.4 8-11.1 16.8-17.1 26.5c0 0 0 0 0 0c-6.1 9.6-11.6 18.9-16.7 27.7c-5 8.8-10.6 19.2-16.6 31c0 0 0 0 0 0c-6 11.8-11 22.1-14.8 30.9c-3.8 8.7-7.8 19.7-12.1 33.1c0 0 0 0 0 0c-4.1 12.7-6.7 23.1-7.6 31.4c-0.7 6.7-0.9 11.9-0.1 15.5c.2 1 .5 2 .8 2.9c.7-0.1 1.4-0.2 2.3-0.4c1.8-0.4 4.3-1.4 7.5-2.8c0 0 0 0 0 0c3.8-1.7 7.8-4 12.2-6.8c0 0 0 0 0 0c4.7-3 9.3-6.3 13.7-9.8c4.6-3.6 10.6-8.8 18-15.7c0 0 0 0 0 0c7.7-7 19.4-19.3 35.3-36.7c0 0 0 0 0 0c16-17.7 32-36.9 48-57.5c0 0 0 0 0 0c16.1-20.8 37.9-52.5 65.7-95c27.7-42.5 49.7-78.8 66-108.9c0 0 0 0 0 0c16.2-30 27.1-50.7 32.4-61.9c0 0 0 0 0 0c5.4-11.2 11.6-25.1 18.7-41.6c3.8-9 7.3-17.5 10.5-25.4Z" fill="#fff" style="animation: 30s linear infinite both m3mtzjxhzb4i55mf5glya0li_f;"/></g><g transform="translate(1647.6,1486.8) scale(.991458,.968657) translate(-1559.5,-1484.4)"><path d="M849.3 1955c4.5 9 8.7 16.9 12.6 23.7c8.6 15.1 15.4 26.8 20.4 35c0 0 0 0 0 0c4.7 7.8 12.2 19.9 22.3 36.4c12.3 20 26.9 40.8 43.9 62.3c17.7 22.5 40.3 46.3 68.1 71.2c26.5 23.6 51.2 42.9 74 58.1c0 0 0 0 0 0c23.7 15.7 43 27.2 57.9 34.8c13.7 6.9 24 11.9 30.9 15.1c0 0 0 0 0 0c8.2 3.8 15.9 7 22.9 9.8c0 0 0 0 0 0c4.6 1.8 15 6.1 31.3 12.8c17.6 7.3 39.5 16.4 65.8 27.3c0 0 0 0 0 0c29.1 12 59 23.1 89.5 33.2c0 0 0 0 0 0c30.7 10.2 54.3 17.4 70.8 21.8c0 0 0 0 0 0c16.8 4.4 40.9 9.8 72.5 16c30.6 6 57.6 10.6 81.2 13.9c29.9 4.1 60 5.4 90.2 3.6c0 0 0 0 0 0c28.5-1.6 52-4.4 70.4-7.9l6.2-1.3c12.7-1.4 26-3.3 40-5.6c34.3-5.8 65.5-12.5 93.6-19.8c0 0 0 0 0 0c34.9-9.1 69.1-22.8 102.6-41.2c0 0 0 0 0 0c26.4-14.6 47.5-26.8 63.2-36.7c0 0 0 0 0 0c17.2-10.8 38.4-26 63.3-45.9c24.6-19.7 43.6-36.3 57.1-49.6c13.2-12.9 24.6-24.8 34.3-35.5c8.7-9.6 19.7-22.2 33-37.8c0 0 0 0 0 0c14.3-16.7 28-33.7 41.1-51.2c17.1-22.8 38.8-67.9 57.3-138.4c0 0 0 0 0 0c12.7-48.5 22.1-86.4 28.3-113.7c7-30.5 11.7-55.3 14.5-74.5c3.4-22.9 5.1-45.6 5.1-68.2c.1-16.9 0-34.5-0.1-53c-0.1-17.9-0.3-42.4-0.4-73.5c-0.2-36.9-2.6-73.2-7.4-108.9c0 0 0 0 0 0c-5-37.2-10.8-67.2-17-90c0 0 0 0 0 0c-4.8-17.3-10-37.8-15.6-61.5c0 0 0 0 0 0c-7-29.1-14.2-55.1-21.8-78.3c-8.4-25.6-20.4-54.4-36.6-86.2c-11.7-23.1-22.3-45.1-31.8-66.1c-13-28.6-26.5-53.8-40.2-75.7c0 0 0 0 0 0c-11.2-17.8-26.2-41.1-45.1-69.9c0 0 0 0 0 0c-18.2-27.9-31.8-48.8-40.9-62.7c0 0 0 0 0 0c-12.7-19.7-26.1-37.4-40-53.2c-13.1-15-24.3-26.7-33.5-35.5c0 0 0 0 0 0c-9.1-8.7-26.1-22.8-51.3-41.7c0 0 0 0 0 0c-24-17.8-44.4-31.5-61-41.3l-3.1-1.8l-1.8-2.4c-17.4-24.3-40-47-68.7-67.2c0 0 0 0 0 0c-23.5-16.6-53-32.1-89.2-45.4c0 0 0 0 0 0c-28.3-10.5-53.8-18.6-76.3-24.5c0 0 0 0 0 0c-21.8-5.8-47.1-11.3-75.9-16.5c-31.9-5.8-66.7-9-104.4-9.3c-36.1-0.2-66.8 1.3-92.2 4.3c-25.4 3.1-48.9 7-70.5 11.7c0 0 0 0 0 0c-21.9 4.8-46.6 11.8-74.2 21.2c0 0 0 0 0 0c-25.5 8.7-44.7 15.7-57.6 21c-12.6 5.1-24.8 10.2-36.6 15.5c0 0 0 0 0 0c-12 5.3-31.3 14.7-57.9 28.3c0 0 0 0 0 0c-24 12.4-43.7 22.6-59.1 30.7c0 0 0 0 0 0c-19.7 10.4-45.3 26.9-76.3 50.3c-29.4 22.4-56.9 47-82.3 74c-24.6 26-43.3 47.8-56.4 65.1c-11.9 15.9-23.4 31.7-34.3 47.4c-12.4 17.9-24 36.7-34.9 56.4c-10.7 19.3-20.8 40-30.3 61.9c-7.6 17.7-13.6 31.6-17.9 41.6c-5.5 12.6-13.6 35.4-23.5 68.4c-9.7 32.3-15.9 57.3-19.1 74.7c0 0 0 0 0 0c-1.4 8.1-2.8 14.9-4.5 20.2c0 0 0 0 0 0c-4.1 13.7-9.6 41.8-13.7 84.9c0 0 0 0 0 0c-3.3 34.7-4.8 64.5-4.8 89.3c0 22.9 .4 43.4 1 61.7c.6 19.2 2.2 43.1 4.9 71.5c0 0 0 0 0 0c2.8 29.3 8.8 66 18.4 109.8c0 0 0 0 0 0c9 41.3 18.3 77.9 27.8 109.8c10.5 35.2 22.5 67.4 35.7 96.5c0 0 0 0 0 0c14.5 31.9 27 55.1 36.6 70c6.5 10.1 11.4 17.7 14.6 23l4.9 7.7Zm1073.6 38.4c2.7-5.4 5.9-11.8 9.5-19.2c.1 0 .1 0 .1 0c12.7-25.8 26.1-52.6 39.9-80.6c13-26.3 24-49.3 32.8-68.9c7-15.5 12.7-29.8 16.8-43c4.1-13.1 7.4-27.2 10.2-42.5c0 0 0 0 0 0c2.3-12.6 4-22.5 4.3-29.8c.3-10.9 .5-18.7 .6-23.3c0-5.1 .3-26.9 .8-65.5c.5-37.5 .6-68.7 .3-93.8c-0.2-22.2-0.9-41.5-2.3-58.2c-1.8-20.6-3-35.9-3.7-46c-0.5-8.7-2.1-24.4-4.4-47.1c-2-19-4.7-36.3-8.3-51.7c-3.4-14.5-7.8-28.7-13.2-42.7c-6.6-17.2-13.3-33.9-20-50c-2.8-3.6-17.7-22.5-30.6-35.8c-28.1-28.9-49.9-50.8-65.4-65.4c-16.2-15.3-28.4-26.8-36.6-34.5c-6.4-5.9-14.8-13-25.3-21.3c-11.2-8.9-29.4-20.9-54.2-36.4c0 0 0 0 0 0c-28.5-17.8-51.5-31.7-69-41.6c0 0 0 0 0 0c-14-8-26.8-14.6-38.6-19.6c0 0 0 0 0 0c-13.2-5.7-23.5-9.9-30.8-12.7c-7.7-2.9-15.9-5.8-24.7-8.8c0 0 0 0 0 0c-8.7-2.9-22.1-7-40.4-12.1c-16.5-4.7-31.3-8.4-44.2-10.7c-7.7-1.4-16.7-1.3-26.9-0.7c-10.4 .6-20.7 2.7-30.9 6.2c-18.9 6.3-33 11.3-42.5 15.1c0 0 0 0 0 0c-8.1 3.2-20.6 9.5-37.5 18.3c-17 8.9-33.3 18.8-48.6 29.8c-15.4 11-26.9 19.4-34 25.8c0 0 0 0 0 0c-8.5 7.4-16.5 14.7-24.3 22c0 0 0 0 0 0c-6.3 5.9-13.5 13.4-21.6 22.5c0 0 0 0 0 0c-10.2 11.4-17.8 20-22.8 26c0 0 0 0 0 0c-5.4 6.3-14.3 16.9-26.8 31.9c0 0 0 0 0 0c-10.8 13-20.7 25.7-29.7 38.3c-7.9 11.1-16.6 26.9-26.8 47.1c-12.3 24.1-23 47.7-32.3 70.7c-8.1 19.9-14.7 43.5-20.3 70.8c-6.6 31.8-11.4 58.9-14.1 81.4c-2.8 22.7-4.9 46-6.2 69.9c0 0 0 0 0 0c-1.4 23.8-2.1 41.3-2.2 52.5c0 11.6 .3 26.8 .9 45.6c.5 17 2.4 37.3 5.4 60.7c0 0 0 0 0 0c3.4 26.5 6.8 49.8 10.1 69.9c2.7 15.6 8.9 35.4 17.8 59.8c11 30.2 20.9 55.4 29.9 75.4c0 0 0 0 0 0c9.2 20.5 16.8 36.8 22.7 48.8c2.2 4.6 5.9 9 10.1 14c8.7 10.2 20.7 21.5 35.6 34.5l9 7.7c18.4 12.9 34.3 24.3 47.7 34.1c11.8 8.7 26.3 18 43.5 28.2c0 0 0 0 0 0c9.4 5.7 19.9 11.2 31.4 16.6c15.7 5.4 32.9 10.2 51.6 14.5c29.1 6.8 51.4 11.5 66.8 14.2c0 0 0 0 0 0c24.3 4.2 46.5 9.8 66.6 16.6c0 0 0 0 0 0c15.2 5.2 26.5 9.1 33.7 11.7l2.4 .9c46.8-21.1 103.9-13.6 143.8 23.7c7.1 6.5 13.2 13.7 18.5 21.4c6.5-1.6 12-3 16.5-4.4c7.6-2.4 18.9-9 34.3-18.9c17.3-11.2 33.4-23.7 48.1-37.7c16.4-15.5 33-31.2 49.9-47.1c14.9-14 27.3-27.9 37.1-41.7c3.9-5.5 7.4-10.5 10.5-14.9Z" fill="#fe06ad" style="animation: 30s linear infinite both npnvosv5n3s8jyxri5pvn7ti_f;"/></g><g transform="translate(1929.3,968.4) scale(.991458,.968657) translate(-1843.6,-949.3)"><path d="M1391.8 798.4c-17.3 3.1-40.3 7.2-68.8 12.4c0 0 0 0 0 0c-32.9 6-76.1 14.4-129.5 25.2c0 0 0 0 0 0c-52.9 10.7-95 19.4-126.2 26c-30.7 6.6-52.9 11.3-66.7 14.3c0 0 0 0 0 0c-14.6 3.1-35.4 7.9-62.4 14.4c-26.8 6.5-59.7 15.2-98.9 26.3c-37.5 10.5-67.2 18.9-89.1 25.2c-22.4 6.4-51 14.9-86 25.4c0 0 0 0 0 0c-36 10.9-62.7 19.3-80.1 25.2c-16.3 5.5-39.6 13.3-69.8 23.4c-34 11.3-66.3 23.4-96.9 36.4c-33.8 14.3-54.7 24-62.8 28.4c-5.6 3-13.2 6.9-22.7 11.7c-11.6 5.8-63.8 32.5-75.2 38.5c-12.6 6.7-27.5 15.1-44.5 25.6c-50.5 2.7-91 42.5-87.6 150.8c1.1 37.5 17.9 72.8 46.2 97.4c45.6 39.5 82.3 46.1 93 47.4c43.5 5.4 84.8-10.7 113.1-40c36.9-3.7 120.3-61.2 120.3-61.2c19.9-7.6 50.3-18.2 91.4-31.9c35.4-11.8 61.2-19.7 77.6-22.8c20.9-4 46.7-9.2 77.3-15.7c0 0 0 0 0 0c27.6-5.9 49.3-10.2 65-13.1c16.8-3 41.9-7.6 75.4-13.8c31.4-5.7 54.2-9.7 68.3-11.8c15.4-2.3 33.2-5.1 53.4-8.4c19.2-3.1 33.8-5.4 43.7-6.9c0 0 0 0 0 0c10.3-1.5 24.6-3.8 42.8-6.7c17.7-2.8 34.6-5.5 50.7-8c16.4-2.5 39.2-6.1 68.6-10.8c28.7-4.6 56.6-8.9 83.7-12.9c27.7-4.2 67.9-10.3 120.6-18.4c0 0 0 0 0 0c51.4-8 97.9-14.7 139.2-20.3c32.8-4.4 60.3-7.8 82.7-10.4c4.1 6.5 8.4 13.3 12.9 20.6c22.2 35.7 40.4 65 54.5 88c13.8 22.7 24.8 40.8 32.8 54.4c8.6 14.7 24.4 39.7 47.5 75c23 35.2 43 64.1 59.8 86.9c0 0 0 0 0 0c16.2 21.9 34.9 46.9 56 75.1c0 0 0 0 0 0c20.4 27.3 37.8 51 52.1 71.1c14.1 19.9 29 41.6 44.5 65.2c0 0 0 0 0 0c17.4 26.4 42.1 56 74.4 88.3c11.8 15.9 25 20.8 26.6 21.7c36.9 20.1 82.9 9.9 107.9-23.9c16.2-21.9 20.2-49.4 12.9-74.1l-9-34.9c-6.8-27.1-11.5-44.7-13.8-52.6c-11.5-38.9-48.7-63.3-87.6-60.1c-6.4-9.3-12.7-18.3-18.8-27c-15-21.1-33.2-45.9-54.7-74.6c-20.8-27.8-39.3-52.5-55.2-74.1c-15.4-20.8-33.5-47.1-54.5-79.2c-20.9-31.9-35.3-54.5-43.1-67.8c-8.4-14.3-19.9-33.4-34.4-57.2c0 0 0 0 0 0c-7.6-12.3-16.3-26.5-26.2-42.4l33.6-4c19.2-2.4 36.2-4.1 51.1-5.3c16.3-1.3 32-2.6 47.1-3.8c15.3-1.1 36.5-2.8 63.6-4.9c27.2-2.2 52.5-4.2 75.9-6.2c0 0 0 0 0 0c23.1-1.9 48.6-4 76.7-6.2c0 0 0 0 0 0c28.3-2.2 52-4.1 71.2-5.6c0 0 0 0 0 0c19.1-1.5 46.9-3.7 83.2-6.5c35.6-2.7 63.2-4.7 82.9-5.9c19.8-1.2 47.6-2.7 83.4-4.5c0 0 0 0 0 0c35.9-1.8 67.9-3.2 95.9-4.3c0 0 0 0 0 0c28.7-1.1 71-3 126.7-5.8c0 0 0 0 0 0c56.1-2.9 97.6-5.2 124.3-7c25.5-1.8 62.5-3.8 110.9-5.9c47.2-2.2 76.9-3.3 89-3.4c14.4-0.1 31.7-0.7 51.6-1.7c17.1-0.9 41.3-1.8 72.6-2.9c30.7-1 50.9-1.5 60.6-1.6c10.5-0.1 25.3-0.3 44.4-0.6c17.2-0.3 40.2-0.2 69 .4c16.8 .4 29.3 .3 37.3 2.4c32.3 8.5 50.6 9.1 53.2 9.1c71.5-0.1 100.5-42.9 111.9-60.1c18.5-27.9 30-60.9 22-98.3c-0.3-8.4-1.1-17.1-2.2-26.1c0 0 0 0 0 0c-1.7-13.4-3.7-27.4-6.1-42.1c-2.7-17-5.2-29.7-7.1-38.1c-2.7-11.7-7-25.8-13.4-42c0 0 0 0 0 0c-3.1-8.1-6.7-16.1-10.6-23.9c-1.6-14.9-0.6-122.3-269.1-125.2c-26.6-0.3-55.6-0.3-87 .1c-38.9 .5-73.3 1.1-103.2 1.9c-30.3 .7-74.6 2.5-133.1 5.4c-58.7 3-108.7 6.1-149.9 9.5c-40.7 3.3-66 5.4-75.9 6.3c0 0 0 0 0 0c-10.1 .9-23.6 2.2-40.6 3.9c0 0 0 0 0 0c-17 1.7-38 3.9-63.1 6.8c-24.1 2.7-58.3 6.4-102.6 11c-45.5 4.8-99.9 11.1-163.2 19.1c-62.9 7.9-137.1 18-222.5 30.3c-84.8 12.2-134.6 19.4-149.2 21.6c-14.7 2.2-36.8 5.6-66.4 10.2c0 0 0 0 0 0c-29.3 4.5-56.2 8.7-80.7 12.5c-24.5 3.8-56.9 8.9-97 15.4c-35.5 5.7-81.9 13.5-139.1 23.5c-0.9-1-1.6-2-2.4-3c-11.2-14.4-22.8-29.5-34.7-45.1c0 0 0 0 0 0c-12.1-15.9-22.9-30.2-32.5-42.9c0 0 0 0 0 0c-9.7-12.8-23.2-30.6-40.5-53.3c-17.2-22.5-30.8-40.4-40.9-53.7c-10.1-13.3-23.7-31.4-40.9-54.5c0 0 0 0 0 0c-17.4-23.5-32.3-43.4-44.6-60c-12.8-17-21.9-29-27.4-36c-5.4-7-12.8-16.4-22.2-28.2c-9.2-11.7-21-26.3-35.2-43.9c-14.5-17.9-24.6-30.4-30.4-37.3c0 0 0 0 0 0c-5.5-6.6-12.8-15.5-22-26.7c0 0 0 0 0 0c-8.9-10.9-20.9-26.1-36-45.5c-4.7-6-9.5-12.2-14.4-18.4c-0.2-28.9-15.2-56.9-42.1-72.4c-4.5-2.6-21.6-12.6-51.2-30l-0.1 .1l-2.3-1.4c-40.4-21.9-90.8-7.4-113.3 32.6c-20.6 36.5-11 81.9 21 107.2c3.1 3.4 12.4 13.9 20.5 23.8c17.6 21.6 34 42.1 49.1 61.7c0 0 0 0 .1 0c16.1 20.8 29 37 38.6 48.8c9.5 11.6 17.1 20.8 22.8 27.7c5.5 6.6 15.1 18.4 28.9 35.4c0 0 0 0 0 0c13.9 17.3 25.4 31.6 34.4 43c8.9 11.1 15.9 20 21 26.6c5.1 6.5 13.6 17.8 25.5 33.7c0 0 0 0 0 0c12.3 16.4 27.1 36.2 44.4 59.5c17.6 23.6 31.5 42.2 41.8 55.7c10.1 13.5 23.9 31.6 41.2 54.3c0 0 0 0 0 0c17.1 22.4 30.5 39.9 40.1 52.6c5.3 7.1 11.1 14.7 17.2 22.8Zm-1241.4 581c-7.3-10-13.3-21.1-17.7-33c-4.4-11.8-7.1-24.5-8-37.7c2.2 32.7 11.6 55.5 25.7 70.7Z" fill="#69257b" style="animation: 30s linear infinite both tou6v9ozuwxvmye63ny474en_f;"/></g></g></g></svg>